<?xml version='1.0' encoding='UTF-8'?>
<svg xmlns="http://www.w3.org/2000/svg" width="10.0mm" height="10.0mm" viewBox="0 0 10.0 10.0" version="1.1"><g id="qr-code"><path d="M 0.2000,0.0000 L 2.6000,0.0000 Q 2.8000,0.0000 2.8000,0.2000 L 2.8000,2.6000 Q 2.8000,2.8000 2.6000,2.8000 L 0.2000,2.8000 Q 0.0000,2.8000 0.0000,2.6000 L 0.0000,0.2000 Q 0.0000,0.0000 0.2000,0.0000 Z M 0.4000,0.4000 L 0.4000,2.4000 L 2.4000,2.4000 L 2.4000,0.4000 Z" fill="black" fill-rule="evenodd" /><rect x="0.8000" y="0.8000" width="1.2000" height="1.2000" rx="0.1000" ry="0.1000" fill="black" /><path d="M 7.4000,0.0000 L 9.8000,0.0000 Q 10.0000,0.0000 10.0000,0.2000 L 10.0000,2.6000 Q 10.0000,2.8000 9.8000,2.8000 L 7.4000,2.8000 Q 7.2000,2.8000 7.2000,2.6000 L 7.2000,0.2000 Q 7.2000,0.0000 7.4000,0.0000 Z M 7.6000,0.4000 L 7.6000,2.4000 L 9.6000,2.4000 L 9.6000,0.4000 Z" fill="black" fill-rule="evenodd" /><rect x="8.0000" y="0.8000" width="1.2000" height="1.2000" rx="0.1000" ry="0.1000" fill="black" /><path d="M 0.2000,7.2000 L 2.6000,7.2000 Q 2.8000,7.2000 2.8000,7.4000 L 2.8000,9.8000 Q 2.8000,10.0000 2.6000,10.0000 L 0.2000,10.0000 Q 0.0000,10.0000 0.0000,9.8000 L 0.0000,7.4000 Q 0.0000,7.2000 0.2000,7.2000 Z M 0.4000,7.6000 L 0.4000,9.6000 L 2.4000,9.6000 L 2.4000,7.6000 Z" fill="black" fill-rule="evenodd" /><rect x="0.8000" y="8.0000" width="1.2000" height="1.2000" rx="0.1000" ry="0.1000" fill="black" /><circle cx="3.8000" cy="0.2000" r="0.1920" fill="black" /><circle cx="4.6000" cy="0.2000" r="0.1920" fill="black" /><circle cx="5.4000" cy="0.2000" r="0.1920" fill="black" /><circle cx="6.2000" cy="0.2000" r="0.1920" fill="black" /><circle cx="3.8000" cy="0.6000" r="0.1920" fill="black" /><circle cx="4.6000" cy="0.6000" r="0.1920" fill="black" /><circle cx="5.0000" cy="0.6000" r="0.1920" fill="black" /><circle cx="5.4000" cy="0.6000" r="0.1920" fill="black" /><circle cx="5.8000" cy="0.6000" r="0.1920" fill="black" /><circle cx="6.6000" cy="0.6000" r="0.1920" fill="black" /><circle cx="3.4000" cy="1.0000" r="0.1920" fill="black" /><circle cx="4.6000" cy="1.0000" r="0.1920" fill="black" /><circle cx="5.8000" cy="1.0000" r="0.1920" fill="black" /><circle cx="3.8000" cy="1.4000" r="0.1920" fill="black" /><circle cx="4.6000" cy="1.4000" r="0.1920" fill="black" /><circle cx="5.0000" cy="1.4000" r="0.1920" fill="black" /><circle cx="5.4000" cy="1.4000" r="0.1920" fill="black" /><circle cx="3.4000" cy="1.8000" r="0.1920" fill="black" /><circle cx="4.2000" cy="1.8000" r="0.1920" fill="black" /><circle cx="5.8000" cy="1.8000" r="0.1920" fill="black" /><circle cx="6.6000" cy="1.8000" r="0.1920" fill="black" /><circle cx="3.4000" cy="2.2000" r="0.1920" fill="black" /><circle cx="3.8000" cy="2.2000" r="0.1920" fill="black" /><circle cx="4.2000" cy="2.2000" r="0.1920" fill="black" /><circle cx="5.0000" cy="2.2000" r="0.1920" fill="black" /><circle cx="6.6000" cy="2.2000" r="0.1920" fill="black" /><circle cx="3.4000" cy="2.6000" r="0.1920" fill="black" /><circle cx="4.2000" cy="2.6000" r="0.1920" fill="black" /><circle cx="5.0000" cy="2.6000" r="0.1920" fill="black" /><circle cx="5.8000" cy="2.6000" r="0.1920" fill="black" /><circle cx="6.6000" cy="2.6000" r="0.1920" fill="black" /><circle cx="5.0000" cy="3.0000" r="0.1920" fill="black" /><circle cx="0.6000" cy="3.4000" r="0.1920" fill="black" /><circle cx="1.8000" cy="3.4000" r="0.1920" fill="black" /><circle cx="2.6000" cy="3.4000" r="0.1920" fill="black" /><circle cx="3.4000" cy="3.4000" r="0.1920" fill="black" /><circle cx="4.6000" cy="3.4000" r="0.1920" fill="black" /><circle cx="5.0000" cy="3.4000" r="0.1920" fill="black" /><circle cx="5.8000" cy="3.4000" r="0.1920" fill="black" /><circle cx="6.6000" cy="3.4000" r="0.1920" fill="black" /><circle cx="7.0000" cy="3.4000" r="0.1920" fill="black" /><circle cx="7.8000" cy="3.4000" r="0.1920" fill="black" /><circle cx="8.2000" cy="3.4000" r="0.1920" fill="black" /><circle cx="9.0000" cy="3.4000" r="0.1920" fill="black" /><circle cx="0.6000" cy="3.8000" r="0.1920" fill="black" /><circle cx="1.4000" cy="3.8000" r="0.1920" fill="black" /><circle cx="2.2000" cy="3.8000" r="0.1920" fill="black" /><circle cx="3.4000" cy="3.8000" r="0.1920" fill="black" /><circle cx="3.8000" cy="3.8000" r="0.1920" fill="black" /><circle cx="5.4000" cy="3.8000" r="0.1920" fill="black" /><circle cx="6.2000" cy="3.8000" r="0.1920" fill="black" /><circle cx="7.8000" cy="3.8000" r="0.1920" fill="black" /><circle cx="8.2000" cy="3.8000" r="0.1920" fill="black" /><circle cx="8.6000" cy="3.8000" r="0.1920" fill="black" /><circle cx="9.4000" cy="3.8000" r="0.1920" fill="black" /><circle cx="1.0000" cy="4.2000" r="0.1920" fill="black" /><circle cx="2.2000" cy="4.2000" r="0.1920" fill="black" /><circle cx="2.6000" cy="4.2000" r="0.1920" fill="black" /><circle cx="3.0000" cy="4.2000" r="0.1920" fill="black" /><circle cx="3.8000" cy="4.2000" r="0.1920" fill="black" /><circle cx="5.0000" cy="4.2000" r="0.1920" fill="black" /><circle cx="5.8000" cy="4.2000" r="0.1920" fill="black" /><circle cx="6.2000" cy="4.2000" r="0.1920" fill="black" /><circle cx="7.4000" cy="4.2000" r="0.1920" fill="black" /><circle cx="7.8000" cy="4.2000" r="0.1920" fill="black" /><circle cx="8.2000" cy="4.2000" r="0.1920" fill="black" /><circle cx="8.6000" cy="4.2000" r="0.1920" fill="black" /><circle cx="9.0000" cy="4.2000" r="0.1920" fill="black" /><circle cx="0.6000" cy="4.6000" r="0.1920" fill="black" /><circle cx="1.4000" cy="4.6000" r="0.1920" fill="black" /><circle cx="5.0000" cy="4.6000" r="0.1920" fill="black" /><circle cx="5.8000" cy="4.6000" r="0.1920" fill="black" /><circle cx="6.2000" cy="4.6000" r="0.1920" fill="black" /><circle cx="6.6000" cy="4.6000" r="0.1920" fill="black" /><circle cx="7.0000" cy="4.6000" r="0.1920" fill="black" /><circle cx="7.4000" cy="4.6000" r="0.1920" fill="black" /><circle cx="7.8000" cy="4.6000" r="0.1920" fill="black" /><circle cx="8.2000" cy="4.6000" r="0.1920" fill="black" /><circle cx="9.0000" cy="4.6000" r="0.1920" fill="black" /><circle cx="9.4000" cy="4.6000" r="0.1920" fill="black" /><circle cx="0.2000" cy="5.0000" r="0.1920" fill="black" /><circle cx="1.0000" cy="5.0000" r="0.1920" fill="black" /><circle cx="2.2000" cy="5.0000" r="0.1920" fill="black" /><circle cx="2.6000" cy="5.0000" r="0.1920" fill="black" /><circle cx="3.0000" cy="5.0000" r="0.1920" fill="black" /><circle cx="3.8000" cy="5.0000" r="0.1920" fill="black" /><circle cx="4.2000" cy="5.0000" r="0.1920" fill="black" /><circle cx="5.4000" cy="5.0000" r="0.1920" fill="black" /><circle cx="5.8000" cy="5.0000" r="0.1920" fill="black" /><circle cx="6.6000" cy="5.0000" r="0.1920" fill="black" /><circle cx="7.0000" cy="5.0000" r="0.1920" fill="black" /><circle cx="7.4000" cy="5.0000" r="0.1920" fill="black" /><circle cx="7.8000" cy="5.0000" r="0.1920" fill="black" /><circle cx="8.6000" cy="5.0000" r="0.1920" fill="black" /><circle cx="9.0000" cy="5.0000" r="0.1920" fill="black" /><circle cx="9.4000" cy="5.0000" r="0.1920" fill="black" /><circle cx="9.8000" cy="5.0000" r="0.1920" fill="black" /><circle cx="0.2000" cy="5.4000" r="0.1920" fill="black" /><circle cx="0.6000" cy="5.4000" r="0.1920" fill="black" /><circle cx="1.0000" cy="5.4000" r="0.1920" fill="black" /><circle cx="1.4000" cy="5.4000" r="0.1920" fill="black" /><circle cx="3.4000" cy="5.4000" r="0.1920" fill="black" /><circle cx="4.2000" cy="5.4000" r="0.1920" fill="black" /><circle cx="5.0000" cy="5.4000" r="0.1920" fill="black" /><circle cx="5.4000" cy="5.4000" r="0.1920" fill="black" /><circle cx="5.8000" cy="5.4000" r="0.1920" fill="black" /><circle cx="6.2000" cy="5.4000" r="0.1920" fill="black" /><circle cx="8.2000" cy="5.4000" r="0.1920" fill="black" /><circle cx="9.4000" cy="5.4000" r="0.1920" fill="black" /><circle cx="1.4000" cy="5.8000" r="0.1920" fill="black" /><circle cx="1.8000" cy="5.8000" r="0.1920" fill="black" /><circle cx="2.6000" cy="5.8000" r="0.1920" fill="black" /><circle cx="3.4000" cy="5.8000" r="0.1920" fill="black" /><circle cx="3.8000" cy="5.8000" r="0.1920" fill="black" /><circle cx="4.2000" cy="5.8000" r="0.1920" fill="black" /><circle cx="5.0000" cy="5.8000" r="0.1920" fill="black" /><circle cx="5.8000" cy="5.8000" r="0.1920" fill="black" /><circle cx="6.2000" cy="5.8000" r="0.1920" fill="black" /><circle cx="7.0000" cy="5.8000" r="0.1920" fill="black" /><circle cx="7.8000" cy="5.8000" r="0.1920" fill="black" /><circle cx="8.6000" cy="5.8000" r="0.1920" fill="black" /><circle cx="9.0000" cy="5.8000" r="0.1920" fill="black" /><circle cx="1.0000" cy="6.2000" r="0.1920" fill="black" /><circle cx="1.4000" cy="6.2000" r="0.1920" fill="black" /><circle cx="2.2000" cy="6.2000" r="0.1920" fill="black" /><circle cx="3.4000" cy="6.2000" r="0.1920" fill="black" /><circle cx="3.8000" cy="6.2000" r="0.1920" fill="black" /><circle cx="4.6000" cy="6.2000" r="0.1920" fill="black" /><circle cx="5.4000" cy="6.2000" r="0.1920" fill="black" /><circle cx="5.8000" cy="6.2000" r="0.1920" fill="black" /><circle cx="6.2000" cy="6.2000" r="0.1920" fill="black" /><circle cx="8.2000" cy="6.2000" r="0.1920" fill="black" /><circle cx="8.6000" cy="6.2000" r="0.1920" fill="black" /><circle cx="9.0000" cy="6.2000" r="0.1920" fill="black" /><circle cx="9.4000" cy="6.2000" r="0.1920" fill="black" /><circle cx="0.2000" cy="6.6000" r="0.1920" fill="black" /><circle cx="0.6000" cy="6.6000" r="0.1920" fill="black" /><circle cx="2.2000" cy="6.6000" r="0.1920" fill="black" /><circle cx="2.6000" cy="6.6000" r="0.1920" fill="black" /><circle cx="3.0000" cy="6.6000" r="0.1920" fill="black" /><circle cx="3.4000" cy="6.6000" r="0.1920" fill="black" /><circle cx="3.8000" cy="6.6000" r="0.1920" fill="black" /><circle cx="4.6000" cy="6.6000" r="0.1920" fill="black" /><circle cx="5.0000" cy="6.6000" r="0.1920" fill="black" /><circle cx="5.8000" cy="6.6000" r="0.1920" fill="black" /><circle cx="6.2000" cy="6.6000" r="0.1920" fill="black" /><circle cx="6.6000" cy="6.6000" r="0.1920" fill="black" /><circle cx="7.0000" cy="6.6000" r="0.1920" fill="black" /><circle cx="7.4000" cy="6.6000" r="0.1920" fill="black" /><circle cx="7.8000" cy="6.6000" r="0.1920" fill="black" /><circle cx="8.2000" cy="6.6000" r="0.1920" fill="black" /><circle cx="8.6000" cy="6.6000" r="0.1920" fill="black" /><circle cx="9.0000" cy="6.6000" r="0.1920" fill="black" /><circle cx="3.4000" cy="7.0000" r="0.1920" fill="black" /><circle cx="4.2000" cy="7.0000" r="0.1920" fill="black" /><circle cx="5.0000" cy="7.0000" r="0.1920" fill="black" /><circle cx="6.6000" cy="7.0000" r="0.1920" fill="black" /><circle cx="8.2000" cy="7.0000" r="0.1920" fill="black" /><circle cx="9.0000" cy="7.0000" r="0.1920" fill="black" /><circle cx="4.2000" cy="7.4000" r="0.1920" fill="black" /><circle cx="4.6000" cy="7.4000" r="0.1920" fill="black" /><circle cx="5.0000" cy="7.4000" r="0.1920" fill="black" /><circle cx="5.8000" cy="7.4000" r="0.1920" fill="black" /><circle cx="6.2000" cy="7.4000" r="0.1920" fill="black" /><circle cx="6.6000" cy="7.4000" r="0.1920" fill="black" /><circle cx="7.4000" cy="7.4000" r="0.1920" fill="black" /><circle cx="8.2000" cy="7.4000" r="0.1920" fill="black" /><circle cx="8.6000" cy="7.4000" r="0.1920" fill="black" /><circle cx="5.0000" cy="7.8000" r="0.1920" fill="black" /><circle cx="5.4000" cy="7.8000" r="0.1920" fill="black" /><circle cx="6.6000" cy="7.8000" r="0.1920" fill="black" /><circle cx="8.2000" cy="7.8000" r="0.1920" fill="black" /><circle cx="8.6000" cy="7.8000" r="0.1920" fill="black" /><circle cx="9.0000" cy="7.8000" r="0.1920" fill="black" /><circle cx="9.4000" cy="7.8000" r="0.1920" fill="black" /><circle cx="3.4000" cy="8.2000" r="0.1920" fill="black" /><circle cx="3.8000" cy="8.2000" r="0.1920" fill="black" /><circle cx="4.6000" cy="8.2000" r="0.1920" fill="black" /><circle cx="5.0000" cy="8.2000" r="0.1920" fill="black" /><circle cx="6.6000" cy="8.2000" r="0.1920" fill="black" /><circle cx="7.0000" cy="8.2000" r="0.1920" fill="black" /><circle cx="7.4000" cy="8.2000" r="0.1920" fill="black" /><circle cx="7.8000" cy="8.2000" r="0.1920" fill="black" /><circle cx="8.2000" cy="8.2000" r="0.1920" fill="black" /><circle cx="9.0000" cy="8.2000" r="0.1920" fill="black" /><circle cx="9.4000" cy="8.2000" r="0.1920" fill="black" /><circle cx="9.8000" cy="8.2000" r="0.1920" fill="black" /><circle cx="4.2000" cy="8.6000" r="0.1920" fill="black" /><circle cx="4.6000" cy="8.6000" r="0.1920" fill="black" /><circle cx="5.8000" cy="8.6000" r="0.1920" fill="black" /><circle cx="6.2000" cy="8.6000" r="0.1920" fill="black" /><circle cx="6.6000" cy="8.6000" r="0.1920" fill="black" /><circle cx="7.0000" cy="8.6000" r="0.1920" fill="black" /><circle cx="7.4000" cy="8.6000" r="0.1920" fill="black" /><circle cx="8.6000" cy="8.6000" r="0.1920" fill="black" /><circle cx="9.0000" cy="8.6000" r="0.1920" fill="black" /><circle cx="9.4000" cy="8.6000" r="0.1920" fill="black" /><circle cx="9.8000" cy="8.6000" r="0.1920" fill="black" /><circle cx="3.8000" cy="9.0000" r="0.1920" fill="black" /><circle cx="4.6000" cy="9.0000" r="0.1920" fill="black" /><circle cx="5.0000" cy="9.0000" r="0.1920" fill="black" /><circle cx="5.4000" cy="9.0000" r="0.1920" fill="black" /><circle cx="5.8000" cy="9.0000" r="0.1920" fill="black" /><circle cx="7.4000" cy="9.0000" r="0.1920" fill="black" /><circle cx="9.4000" cy="9.0000" r="0.1920" fill="black" /><circle cx="3.4000" cy="9.4000" r="0.1920" fill="black" /><circle cx="4.2000" cy="9.4000" r="0.1920" fill="black" /><circle cx="4.6000" cy="9.4000" r="0.1920" fill="black" /><circle cx="6.2000" cy="9.4000" r="0.1920" fill="black" /><circle cx="7.8000" cy="9.4000" r="0.1920" fill="black" /><circle cx="8.2000" cy="9.4000" r="0.1920" fill="black" /><circle cx="8.6000" cy="9.4000" r="0.1920" fill="black" /><circle cx="9.0000" cy="9.4000" r="0.1920" fill="black" /><circle cx="9.4000" cy="9.4000" r="0.1920" fill="black" /><circle cx="5.4000" cy="9.8000" r="0.1920" fill="black" /><circle cx="7.4000" cy="9.8000" r="0.1920" fill="black" /><circle cx="9.0000" cy="9.8000" r="0.1920" fill="black" /><circle cx="9.4000" cy="9.8000" r="0.1920" fill="black" /><circle cx="9.8000" cy="9.8000" r="0.1920" fill="black" /></g></svg>