%TF.GenerationSoftware,KiCad,Pcbnew,7.0.1*%
%TF.CreationDate,2023-06-12T22:17:34+07:00*%
%TF.ProjectId,servo_motor,73657276-6f5f-46d6-9f74-6f722e6b6963,rev?*%
%TF.SameCoordinates,Original*%
%TF.FileFunction,Soldermask,Top*%
%TF.FilePolarity,Negative*%
%FSLAX46Y46*%
G04 Gerber Fmt 4.6, Leading zero omitted, Abs format (unit mm)*
G04 Created by KiCad (PCBNEW 7.0.1) date 2023-06-12 22:17:34*
%MOMM*%
%LPD*%
G01*
G04 APERTURE LIST*
G04 Aperture macros list*
%AMRoundRect*
0 Rectangle with rounded corners*
0 $1 Rounding radius*
0 $2 $3 $4 $5 $6 $7 $8 $9 X,Y pos of 4 corners*
0 Add a 4 corners polygon primitive as box body*
4,1,4,$2,$3,$4,$5,$6,$7,$8,$9,$2,$3,0*
0 Add four circle primitives for the rounded corners*
1,1,$1+$1,$2,$3*
1,1,$1+$1,$4,$5*
1,1,$1+$1,$6,$7*
1,1,$1+$1,$8,$9*
0 Add four rect primitives between the rounded corners*
20,1,$1+$1,$2,$3,$4,$5,0*
20,1,$1+$1,$4,$5,$6,$7,0*
20,1,$1+$1,$6,$7,$8,$9,0*
20,1,$1+$1,$8,$9,$2,$3,0*%
%AMFreePoly0*
4,1,9,3.862500,-0.866500,0.737500,-0.866500,0.737500,-0.450000,-0.737500,-0.450000,-0.737500,0.450000,0.737500,0.450000,0.737500,0.866500,3.862500,0.866500,3.862500,-0.866500,3.862500,-0.866500,$1*%
G04 Aperture macros list end*
%ADD10RoundRect,0.225000X0.250000X-0.225000X0.250000X0.225000X-0.250000X0.225000X-0.250000X-0.225000X0*%
%ADD11R,1.700000X1.700000*%
%ADD12O,1.700000X1.700000*%
%ADD13C,3.600000*%
%ADD14RoundRect,0.200000X0.200000X0.275000X-0.200000X0.275000X-0.200000X-0.275000X0.200000X-0.275000X0*%
%ADD15RoundRect,0.225000X-0.225000X-0.250000X0.225000X-0.250000X0.225000X0.250000X-0.225000X0.250000X0*%
%ADD16R,0.450000X0.600000*%
%ADD17RoundRect,0.200000X0.275000X-0.200000X0.275000X0.200000X-0.275000X0.200000X-0.275000X-0.200000X0*%
%ADD18RoundRect,0.250000X0.475000X-0.250000X0.475000X0.250000X-0.475000X0.250000X-0.475000X-0.250000X0*%
%ADD19RoundRect,0.250000X-0.475000X0.250000X-0.475000X-0.250000X0.475000X-0.250000X0.475000X0.250000X0*%
%ADD20RoundRect,0.225000X-0.250000X0.225000X-0.250000X-0.225000X0.250000X-0.225000X0.250000X0.225000X0*%
%ADD21RoundRect,0.250000X-1.425000X0.362500X-1.425000X-0.362500X1.425000X-0.362500X1.425000X0.362500X0*%
%ADD22RoundRect,0.135000X-0.185000X0.135000X-0.185000X-0.135000X0.185000X-0.135000X0.185000X0.135000X0*%
%ADD23O,1.300000X1.400000*%
%ADD24RoundRect,0.250000X1.425000X-0.362500X1.425000X0.362500X-1.425000X0.362500X-1.425000X-0.362500X0*%
%ADD25RoundRect,0.225000X0.225000X0.250000X-0.225000X0.250000X-0.225000X-0.250000X0.225000X-0.250000X0*%
%ADD26RoundRect,0.200000X-0.200000X-0.275000X0.200000X-0.275000X0.200000X0.275000X-0.200000X0.275000X0*%
%ADD27R,1.600000X0.600000*%
%ADD28R,4.600000X3.600000*%
%ADD29R,0.900000X1.300000*%
%ADD30FreePoly0,90.000000*%
%ADD31RoundRect,0.100000X-0.100000X0.637500X-0.100000X-0.637500X0.100000X-0.637500X0.100000X0.637500X0*%
%ADD32O,7.000000X3.500000*%
%ADD33RoundRect,0.200000X-0.275000X0.200000X-0.275000X-0.200000X0.275000X-0.200000X0.275000X0.200000X0*%
%ADD34C,2.200000*%
%ADD35RoundRect,0.150000X0.150000X-0.587500X0.150000X0.587500X-0.150000X0.587500X-0.150000X-0.587500X0*%
%ADD36R,1.700000X1.000000*%
%ADD37RoundRect,0.150000X-0.512500X-0.150000X0.512500X-0.150000X0.512500X0.150000X-0.512500X0.150000X0*%
%ADD38R,0.600000X1.600000*%
%ADD39R,3.600000X4.600000*%
%ADD40R,0.228600X1.473200*%
%ADD41R,1.473200X0.228600*%
%ADD42C,6.000000*%
%ADD43R,3.000000X3.000000*%
%ADD44C,3.000000*%
%ADD45RoundRect,0.150000X-0.150000X0.587500X-0.150000X-0.587500X0.150000X-0.587500X0.150000X0.587500X0*%
%ADD46RoundRect,0.150000X0.150000X-0.512500X0.150000X0.512500X-0.150000X0.512500X-0.150000X-0.512500X0*%
%ADD47RoundRect,0.150000X-0.825000X-0.150000X0.825000X-0.150000X0.825000X0.150000X-0.825000X0.150000X0*%
%ADD48R,1.300000X0.900000*%
%ADD49FreePoly0,0.000000*%
%ADD50RoundRect,0.218750X-0.218750X-0.256250X0.218750X-0.256250X0.218750X0.256250X-0.218750X0.256250X0*%
%ADD51C,2.800000*%
G04 APERTURE END LIST*
D10*
%TO.C,C25*%
X158946018Y-122468178D03*
X158946018Y-120918178D03*
%TD*%
D11*
%TO.C,J2*%
X128000000Y-65775000D03*
D12*
X128000000Y-63235000D03*
X128000000Y-60695000D03*
X128000000Y-58155000D03*
X128000000Y-55615000D03*
%TD*%
D13*
%TO.C,H3*%
X171265018Y-48700167D03*
%TD*%
%TO.C,H5*%
X125799018Y-94782178D03*
%TD*%
D14*
%TO.C,R11*%
X144925000Y-52600000D03*
X143275000Y-52600000D03*
%TD*%
%TO.C,R2*%
X147725000Y-72400000D03*
X146075000Y-72400000D03*
%TD*%
D15*
%TO.C,C41*%
X152425000Y-54500000D03*
X153975000Y-54500000D03*
%TD*%
%TO.C,C28*%
X136325000Y-60700000D03*
X137875000Y-60700000D03*
%TD*%
D16*
%TO.C,D2*%
X158946018Y-113925178D03*
X158946018Y-116025178D03*
%TD*%
D15*
%TO.C,C17*%
X154050000Y-61600000D03*
X155600000Y-61600000D03*
%TD*%
D16*
%TO.C,D1*%
X161486018Y-113925178D03*
X161486018Y-116025178D03*
%TD*%
D17*
%TO.C,R5*%
X130900000Y-60400000D03*
X130900000Y-58750000D03*
%TD*%
D18*
%TO.C,C7*%
X137229018Y-92036178D03*
X137229018Y-90136178D03*
%TD*%
D19*
%TO.C,C21*%
X136340018Y-121759178D03*
X136340018Y-123659178D03*
%TD*%
D20*
%TO.C,C32*%
X158946018Y-117616178D03*
X158946018Y-119166178D03*
%TD*%
D17*
%TO.C,R13*%
X149400000Y-71725000D03*
X149400000Y-70075000D03*
%TD*%
D21*
%TO.C,R16*%
X150437018Y-92822678D03*
X150437018Y-98747678D03*
%TD*%
D22*
%TO.C,TH1*%
X129000000Y-73890000D03*
X129000000Y-74910000D03*
%TD*%
D14*
%TO.C,R26*%
X134411800Y-58817600D03*
X132761800Y-58817600D03*
%TD*%
D19*
%TO.C,C15*%
X132022018Y-121759178D03*
X132022018Y-123659178D03*
%TD*%
D15*
%TO.C,C1*%
X146325000Y-70900000D03*
X147875000Y-70900000D03*
%TD*%
D16*
%TO.C,D5*%
X156533018Y-113925178D03*
X156533018Y-116025178D03*
%TD*%
D18*
%TO.C,C6*%
X134943018Y-92036178D03*
X134943018Y-90136178D03*
%TD*%
%TO.C,C34*%
X130371018Y-92036178D03*
X130371018Y-90136178D03*
%TD*%
D23*
%TO.C,U4*%
X163234007Y-61816828D03*
X163234007Y-59916828D03*
X161434007Y-60866828D03*
X159834007Y-63166828D03*
X159834007Y-61266828D03*
X158034007Y-62216828D03*
X158034007Y-58167828D03*
X158034007Y-60067828D03*
X159834007Y-59117828D03*
%TD*%
D13*
%TO.C,H6*%
X125799018Y-118782200D03*
%TD*%
D19*
%TO.C,C19*%
X134181018Y-121759178D03*
X134181018Y-123659178D03*
%TD*%
D24*
%TO.C,R14*%
X151707018Y-117035678D03*
X151707018Y-111110678D03*
%TD*%
D25*
%TO.C,C26*%
X134575000Y-70200000D03*
X133025000Y-70200000D03*
%TD*%
D10*
%TO.C,C8*%
X161486018Y-111940178D03*
X161486018Y-110390178D03*
%TD*%
D26*
%TO.C,R23*%
X164243018Y-111237178D03*
X165893018Y-111237178D03*
%TD*%
D27*
%TO.C,Q4*%
X143476018Y-107884178D03*
X143476018Y-106614178D03*
X143476018Y-105344178D03*
X143476018Y-104074178D03*
X138015018Y-104074178D03*
X138015018Y-105344178D03*
X138015018Y-106614178D03*
X138015018Y-107884178D03*
D28*
X140047018Y-105979178D03*
%TD*%
D15*
%TO.C,C11*%
X147125000Y-67300000D03*
X148675000Y-67300000D03*
%TD*%
D26*
%TO.C,R21*%
X167743018Y-108237178D03*
X169393018Y-108237178D03*
%TD*%
D29*
%TO.C,U11*%
X133062000Y-68294000D03*
D30*
X134562000Y-68206500D03*
D29*
X136062000Y-68294000D03*
%TD*%
D27*
%TO.C,Q3*%
X152239018Y-108731178D03*
X152239018Y-107461178D03*
X152239018Y-106191178D03*
X152239018Y-104921178D03*
X146778018Y-104921178D03*
X146778018Y-106191178D03*
X146778018Y-107461178D03*
X146778018Y-108731178D03*
D28*
X148810018Y-106826178D03*
%TD*%
D25*
%TO.C,C2*%
X162388018Y-96801178D03*
X160838018Y-96801178D03*
%TD*%
D31*
%TO.C,U3*%
X162379018Y-101812678D03*
X161729018Y-101812678D03*
X161079018Y-101812678D03*
X160429018Y-101812678D03*
X159779018Y-101812678D03*
X159129018Y-101812678D03*
X158479018Y-101812678D03*
X157829018Y-101812678D03*
X157179018Y-101812678D03*
X156529018Y-101812678D03*
X156529018Y-107537678D03*
X157179018Y-107537678D03*
X157829018Y-107537678D03*
X158479018Y-107537678D03*
X159129018Y-107537678D03*
X159779018Y-107537678D03*
X160429018Y-107537678D03*
X161079018Y-107537678D03*
X161729018Y-107537678D03*
X162379018Y-107537678D03*
%TD*%
D14*
%TO.C,R12*%
X144925000Y-50800000D03*
X143275000Y-50800000D03*
%TD*%
D26*
%TO.C,R24*%
X132975000Y-55100000D03*
X134625000Y-55100000D03*
%TD*%
D32*
%TO.C,J3*%
X129736018Y-102834178D03*
X129736018Y-106834178D03*
X129736018Y-110834178D03*
%TD*%
D10*
%TO.C,C13*%
X158946018Y-111940178D03*
X158946018Y-110390178D03*
%TD*%
D14*
%TO.C,R10*%
X166502018Y-101246178D03*
X164852018Y-101246178D03*
%TD*%
D33*
%TO.C,R20*%
X139600000Y-60875000D03*
X139600000Y-62525000D03*
%TD*%
D11*
%TO.C,J6*%
X132320000Y-74100000D03*
D12*
X134860000Y-74100000D03*
X137400000Y-74100000D03*
X139940000Y-74100000D03*
X142480000Y-74100000D03*
%TD*%
D34*
%TO.C,P1*%
X131006018Y-87403178D03*
X135006018Y-87403178D03*
X139006018Y-87403178D03*
X143006018Y-87403178D03*
X147006018Y-87403178D03*
X151006018Y-87403178D03*
X155006018Y-87403178D03*
X159006018Y-87403178D03*
X163006018Y-87403178D03*
%TD*%
D35*
%TO.C,Q8*%
X164218018Y-109174678D03*
X166118018Y-109174678D03*
X165168018Y-107299678D03*
%TD*%
D17*
%TO.C,R27*%
X134400000Y-62225000D03*
X134400000Y-60575000D03*
%TD*%
D26*
%TO.C,R17*%
X162775000Y-71200000D03*
X164425000Y-71200000D03*
%TD*%
D36*
%TO.C,SW1*%
X129150000Y-46400000D03*
X135450000Y-46400000D03*
X129150000Y-50200000D03*
X135450000Y-50200000D03*
%TD*%
D17*
%TO.C,R4*%
X130900000Y-65625000D03*
X130900000Y-63975000D03*
%TD*%
D14*
%TO.C,R8*%
X169693018Y-103087178D03*
X168043018Y-103087178D03*
%TD*%
D37*
%TO.C,U9*%
X136462500Y-56750000D03*
X136462500Y-57700000D03*
X136462500Y-58650000D03*
X138737500Y-58650000D03*
X138737500Y-56750000D03*
%TD*%
D13*
%TO.C,H7*%
X171265018Y-94782178D03*
%TD*%
D25*
%TO.C,C22*%
X138075000Y-55000000D03*
X136525000Y-55000000D03*
%TD*%
D18*
%TO.C,C10*%
X132657018Y-92036178D03*
X132657018Y-90136178D03*
%TD*%
D38*
%TO.C,Q6*%
X135586018Y-114319178D03*
X134316018Y-114319178D03*
X133046018Y-114319178D03*
X131776018Y-114319178D03*
X131776018Y-119780178D03*
X133046018Y-119780178D03*
X134316018Y-119780178D03*
X135586018Y-119780178D03*
D39*
X133681018Y-117748178D03*
%TD*%
D14*
%TO.C,R22*%
X165893018Y-113187178D03*
X164243018Y-113187178D03*
%TD*%
D33*
%TO.C,R3*%
X149700000Y-50175000D03*
X149700000Y-51825000D03*
%TD*%
D34*
%TO.C,P3*%
X131006018Y-126011178D03*
X135006018Y-126011178D03*
X139006018Y-126011178D03*
X143006018Y-126011178D03*
X147006018Y-126011178D03*
X151006018Y-126011178D03*
X155006018Y-126011178D03*
X159006018Y-126011178D03*
X163006018Y-126011178D03*
%TD*%
D15*
%TO.C,C20*%
X154050000Y-63300000D03*
X155600000Y-63300000D03*
%TD*%
D33*
%TO.C,R19*%
X141900000Y-68575000D03*
X141900000Y-70225000D03*
%TD*%
D10*
%TO.C,C35*%
X159800000Y-69975000D03*
X159800000Y-68425000D03*
%TD*%
D27*
%TO.C,Q5*%
X143587018Y-115732178D03*
X143587018Y-114462178D03*
X143587018Y-113192178D03*
X143587018Y-111922178D03*
X138126018Y-111922178D03*
X138126018Y-113192178D03*
X138126018Y-114462178D03*
X138126018Y-115732178D03*
D28*
X140158018Y-113827178D03*
%TD*%
D19*
%TO.C,C12*%
X127577018Y-121759178D03*
X127577018Y-123659178D03*
%TD*%
D40*
%TO.C,U2*%
X144150000Y-64916400D03*
X144649999Y-64916400D03*
X145150001Y-64916400D03*
X145650000Y-64916400D03*
X146149999Y-64916400D03*
X146650000Y-64916400D03*
X147150000Y-64916400D03*
X147650001Y-64916400D03*
X148150000Y-64916400D03*
X148649999Y-64916400D03*
X149150001Y-64916400D03*
X149650000Y-64916400D03*
D41*
X151116400Y-63450000D03*
X151116400Y-62950001D03*
X151116400Y-62449999D03*
X151116400Y-61950000D03*
X151116400Y-61450001D03*
X151116400Y-60950000D03*
X151116400Y-60450000D03*
X151116400Y-59949999D03*
X151116400Y-59450000D03*
X151116400Y-58950001D03*
X151116400Y-58449999D03*
X151116400Y-57950000D03*
D40*
X149650000Y-56483600D03*
X149150001Y-56483600D03*
X148649999Y-56483600D03*
X148150000Y-56483600D03*
X147650001Y-56483600D03*
X147150000Y-56483600D03*
X146650000Y-56483600D03*
X146149999Y-56483600D03*
X145650000Y-56483600D03*
X145150001Y-56483600D03*
X144649999Y-56483600D03*
X144150000Y-56483600D03*
D41*
X142683600Y-57950000D03*
X142683600Y-58449999D03*
X142683600Y-58950001D03*
X142683600Y-59450000D03*
X142683600Y-59949999D03*
X142683600Y-60450000D03*
X142683600Y-60950000D03*
X142683600Y-61450001D03*
X142683600Y-61950000D03*
X142683600Y-62449999D03*
X142683600Y-62950001D03*
X142683600Y-63450000D03*
%TD*%
D15*
%TO.C,C36*%
X152325000Y-56100000D03*
X153875000Y-56100000D03*
%TD*%
D13*
%TO.C,H4*%
X171265018Y-72700187D03*
%TD*%
D42*
%TO.C,TP1*%
X154300000Y-48600000D03*
%TD*%
D14*
%TO.C,R25*%
X137925000Y-62500000D03*
X136275000Y-62500000D03*
%TD*%
D10*
%TO.C,C16*%
X156660018Y-111940178D03*
X156660018Y-110390178D03*
%TD*%
D17*
%TO.C,R6*%
X168468018Y-99462178D03*
X168468018Y-97812178D03*
%TD*%
D43*
%TO.C,J5*%
X147135018Y-122074178D03*
D44*
X152215018Y-122074178D03*
%TD*%
D19*
%TO.C,C27*%
X140658018Y-121759178D03*
X140658018Y-123659178D03*
%TD*%
D13*
%TO.C,H1*%
X125799018Y-48700167D03*
%TD*%
D10*
%TO.C,C3*%
X158438018Y-98846178D03*
X158438018Y-97296178D03*
%TD*%
D45*
%TO.C,Q7*%
X169718018Y-110799678D03*
X167818018Y-110799678D03*
X168768018Y-112674678D03*
%TD*%
D19*
%TO.C,C14*%
X129863018Y-121759178D03*
X129863018Y-123659178D03*
%TD*%
D18*
%TO.C,C31*%
X128085018Y-92036178D03*
X128085018Y-90136178D03*
%TD*%
D15*
%TO.C,C33*%
X136325000Y-70200000D03*
X137875000Y-70200000D03*
%TD*%
D26*
%TO.C,R15*%
X157575000Y-52000000D03*
X159225000Y-52000000D03*
%TD*%
D15*
%TO.C,C18*%
X157625000Y-53600000D03*
X159175000Y-53600000D03*
%TD*%
D33*
%TO.C,R18*%
X140200000Y-68575000D03*
X140200000Y-70225000D03*
%TD*%
D46*
%TO.C,U1*%
X164854018Y-99081678D03*
X165804018Y-99081678D03*
X166754018Y-99081678D03*
X166754018Y-96806678D03*
X164854018Y-96806678D03*
%TD*%
D27*
%TO.C,Q1*%
X145206018Y-99976178D03*
X145206018Y-98706178D03*
X145206018Y-97436178D03*
X145206018Y-96166178D03*
X139745018Y-96166178D03*
X139745018Y-97436178D03*
X139745018Y-98706178D03*
X139745018Y-99976178D03*
D28*
X141777018Y-98071178D03*
%TD*%
D36*
%TO.C,RST1*%
X167450000Y-50200000D03*
X161150000Y-50200000D03*
X167450000Y-46400000D03*
X161150000Y-46400000D03*
%TD*%
D26*
%TO.C,R29*%
X153675000Y-53000000D03*
X155325000Y-53000000D03*
%TD*%
D20*
%TO.C,C9*%
X145500000Y-67225000D03*
X145500000Y-68775000D03*
%TD*%
D15*
%TO.C,C4*%
X168143018Y-101287178D03*
X169693018Y-101287178D03*
%TD*%
D47*
%TO.C,U5*%
X152325000Y-67795000D03*
X152325000Y-69065000D03*
X152325000Y-70335000D03*
X152325000Y-71605000D03*
X157275000Y-71605000D03*
X157275000Y-70335000D03*
X157275000Y-69065000D03*
X157275000Y-67795000D03*
%TD*%
D48*
%TO.C,U12*%
X161218018Y-117937178D03*
D49*
X161305518Y-119437178D03*
D48*
X161218018Y-120937178D03*
%TD*%
D19*
%TO.C,C24*%
X138499018Y-121759178D03*
X138499018Y-123659178D03*
%TD*%
D27*
%TO.C,Q2*%
X136148018Y-98656178D03*
X136148018Y-97386178D03*
X136148018Y-96116178D03*
X136148018Y-94846178D03*
X130687018Y-94846178D03*
X130687018Y-96116178D03*
X130687018Y-97386178D03*
X130687018Y-98656178D03*
D28*
X132719018Y-96751178D03*
%TD*%
D50*
%TO.C,D3*%
X140137500Y-50800000D03*
X141712500Y-50800000D03*
%TD*%
D11*
%TO.C,J4*%
X156873218Y-74144378D03*
D12*
X159413218Y-74144378D03*
X161953218Y-74144378D03*
X164493218Y-74144378D03*
%TD*%
D25*
%TO.C,C5*%
X162388018Y-99087178D03*
X160838018Y-99087178D03*
%TD*%
D14*
%TO.C,R7*%
X168280018Y-105310178D03*
X166630018Y-105310178D03*
%TD*%
D13*
%TO.C,H2*%
X125799018Y-72700187D03*
%TD*%
D11*
%TO.C,J1*%
X146246018Y-46636178D03*
D12*
X143706018Y-46636178D03*
X141166018Y-46636178D03*
X138626018Y-46636178D03*
%TD*%
D15*
%TO.C,C23*%
X154050000Y-59900000D03*
X155600000Y-59900000D03*
%TD*%
D25*
%TO.C,C30*%
X134438000Y-56938000D03*
X132888000Y-56938000D03*
%TD*%
D17*
%TO.C,R1*%
X149700000Y-48525000D03*
X149700000Y-46875000D03*
%TD*%
D51*
%TO.C,P2*%
X132532018Y-80037178D03*
X136532018Y-80037178D03*
X140532018Y-80037178D03*
X144532018Y-80037178D03*
X148532018Y-80037178D03*
X152532018Y-80037178D03*
X156532018Y-80037178D03*
X160532018Y-80037178D03*
X164532018Y-80037178D03*
%TD*%
D19*
%TO.C,C29*%
X142817018Y-121759178D03*
X142817018Y-123659178D03*
%TD*%
D13*
%TO.C,H8*%
X171392018Y-118782200D03*
%TD*%
D51*
%TO.C,P4*%
X132532018Y-41429178D03*
X136532018Y-41429178D03*
X140532018Y-41429178D03*
X144532018Y-41429178D03*
X148532018Y-41429178D03*
X152532018Y-41429178D03*
X156532018Y-41429178D03*
X160532018Y-41429178D03*
X164532018Y-41429178D03*
%TD*%
D26*
%TO.C,R9*%
X164852018Y-103151178D03*
X166502018Y-103151178D03*
%TD*%
D50*
%TO.C,D4*%
X140137500Y-52600000D03*
X141712500Y-52600000D03*
%TD*%
M02*
