%TF.GenerationSoftware,KiCad,Pcbnew,7.0.1*%
%TF.CreationDate,2023-06-12T22:17:34+07:00*%
%TF.ProjectId,servo_motor,73657276-6f5f-46d6-9f74-6f722e6b6963,rev?*%
%TF.SameCoordinates,Original*%
%TF.FileFunction,Profile,NP*%
%FSLAX46Y46*%
G04 Gerber Fmt 4.6, Leading zero omitted, Abs format (unit mm)*
G04 Created by KiCad (PCBNEW 7.0.1) date 2023-06-12 22:17:34*
%MOMM*%
%LPD*%
G01*
G04 APERTURE LIST*
%TA.AperFunction,Profile*%
%ADD10C,0.200000*%
%TD*%
G04 APERTURE END LIST*
D10*
X147970010Y-127232201D02*
X148470011Y-127232201D01*
X131550002Y-78625413D02*
X131550002Y-77180186D01*
X171524807Y-98782185D02*
X171900023Y-99157401D01*
X126000000Y-52700171D02*
X126000000Y-44700167D01*
X139970006Y-127232201D02*
X140470007Y-127232201D01*
X171529389Y-40900167D02*
X171900026Y-41270804D01*
X142850010Y-44920211D02*
G75*
G03*
X143550011Y-44220168I-10J700011D01*
G01*
X147550015Y-77180186D02*
G75*
G03*
X146850012Y-76480185I-700015J-14D01*
G01*
X139050005Y-80800189D02*
G75*
G03*
X142050009Y-80800189I1500002J800001D01*
G01*
X146850012Y-44920213D02*
G75*
G03*
X147550013Y-44220168I-12J700013D01*
G01*
X142970007Y-88132178D02*
X142970007Y-86332179D01*
X130970001Y-127232201D02*
X131970001Y-127232201D01*
X159050018Y-42200167D02*
X159050018Y-40600165D01*
X146250011Y-44920169D02*
X146850012Y-44920169D01*
X143970008Y-127232201D02*
X144470009Y-127232201D01*
X150250013Y-76480212D02*
G75*
G03*
X149550012Y-77180186I-13J-699988D01*
G01*
X154970014Y-127232201D02*
X154970014Y-125432200D01*
X154050016Y-42200167D02*
X154050016Y-40600165D01*
X156970015Y-88132178D02*
X158970016Y-88132178D01*
X150970012Y-88132178D02*
X150970012Y-86332179D01*
X134250004Y-44920169D02*
X134850006Y-44920169D01*
X147550011Y-78625413D02*
X147550011Y-77180186D01*
X126000000Y-52700171D02*
X125679981Y-52700171D01*
X141550015Y-42774952D02*
G75*
G03*
X142050009Y-42200167I-1000015J1374752D01*
G01*
X152470014Y-87632179D02*
X152470014Y-86332179D01*
X158970016Y-127232201D02*
X159970016Y-127232201D01*
X133550031Y-44220168D02*
G75*
G03*
X134250004Y-44920169I699969J-32D01*
G01*
X148470019Y-87632179D02*
G75*
G03*
X148970010Y-88132181I499981J-21D01*
G01*
X138970005Y-127232201D02*
X139970006Y-127232201D01*
X158250017Y-76480216D02*
G75*
G03*
X157550016Y-77180186I-17J-699984D01*
G01*
X139050007Y-42200167D02*
X139050007Y-40600165D01*
X137550005Y-78625413D02*
X137550005Y-77180186D01*
X143550009Y-78625413D02*
X143550009Y-77180186D01*
X158850019Y-44920220D02*
G75*
G03*
X159550020Y-44220168I-19J700020D01*
G01*
X150050013Y-40600165D02*
G75*
G03*
X147050009Y-40600165I-1500002J-800001D01*
G01*
X125199997Y-101387574D02*
X125199997Y-99209971D01*
X146970009Y-127232201D02*
X146970009Y-125432200D01*
X146250011Y-76480210D02*
G75*
G03*
X145550010Y-77180186I-11J-699990D01*
G01*
X162050018Y-79200188D02*
G75*
G03*
X161550018Y-78625413I-1500018J-800012D01*
G01*
X151050014Y-80800189D02*
X151050014Y-79200187D01*
X138850008Y-44920209D02*
G75*
G03*
X139550009Y-44220168I-8J700009D01*
G01*
X141550007Y-44220168D02*
X141550007Y-42774941D01*
X162970018Y-88132178D02*
X162970018Y-86332179D01*
X134970003Y-88132178D02*
X134970003Y-86332179D01*
X125521023Y-125432200D02*
X130970001Y-125432200D01*
X171594857Y-44700167D02*
X171900026Y-44394999D01*
X166500018Y-55450001D02*
X166500018Y-65950005D01*
X166050020Y-79200188D02*
G75*
G03*
X165550020Y-78625413I-1500020J-800012D01*
G01*
X156470016Y-87632179D02*
X156470016Y-86332179D01*
X147050012Y-42200167D02*
X147050012Y-40600165D01*
X162250019Y-76480185D02*
X162850021Y-76480185D01*
X130050003Y-80500187D02*
X130050003Y-79200187D01*
X126000000Y-76700184D02*
X126000000Y-68700180D01*
X131550005Y-78625417D02*
G75*
G03*
X131050001Y-79200187I999995J-1374783D01*
G01*
X163050020Y-80800189D02*
X163050020Y-79200187D01*
X165550020Y-44220168D02*
X165550020Y-42774941D01*
X147050012Y-80800189D02*
X147050012Y-79200187D01*
X166050022Y-42200167D02*
X166050022Y-40600165D01*
X171492000Y-88132178D02*
X171900023Y-88540201D01*
X171900026Y-44394999D02*
X171900026Y-41270804D01*
X135970003Y-86332179D02*
X136470005Y-86332179D01*
X125632577Y-111782192D02*
X129800001Y-111782192D01*
X162250019Y-76480218D02*
G75*
G03*
X161550018Y-77180186I-19J-699982D01*
G01*
X132470003Y-127232201D02*
X132470003Y-125932199D01*
X135050005Y-80800189D02*
X135050005Y-79200187D01*
X171100025Y-76700184D02*
X171439206Y-76700184D01*
X171100025Y-122782198D02*
X171100025Y-114782193D01*
X150050013Y-42200167D02*
X150050013Y-40600165D01*
X171100025Y-114782193D02*
X171388231Y-114782193D01*
X148970010Y-125432200D02*
X150970012Y-125432200D01*
X146970009Y-88132178D02*
X146970009Y-86332179D01*
X152470014Y-127232201D02*
X152470014Y-125932199D01*
X137550005Y-44220168D02*
X137550005Y-42774941D01*
X125627784Y-98782185D02*
X125999998Y-98782185D01*
X158250017Y-76480185D02*
X158850019Y-76480185D01*
X135049983Y-42200178D02*
G75*
G03*
X135550005Y-42774940I1500017J800078D01*
G01*
X163550015Y-77180186D02*
G75*
G03*
X162850021Y-76480185I-700015J-14D01*
G01*
X142250009Y-76480185D02*
X142850010Y-76480185D01*
X167550022Y-44220168D02*
X167550022Y-40900167D01*
X131550015Y-77180186D02*
G75*
G03*
X130850003Y-76480185I-700015J-14D01*
G01*
X159049992Y-42200180D02*
G75*
G03*
X159550017Y-42774941I1500008J800080D01*
G01*
X166050022Y-80800189D02*
X166050022Y-79200187D01*
X136470005Y-127232201D02*
X136470005Y-125932199D01*
X157550016Y-44220168D02*
X157550016Y-42774941D01*
X129550001Y-44220168D02*
X129550001Y-42774941D01*
X125200000Y-44186777D02*
X125713389Y-44700167D01*
X146970009Y-86332179D02*
X147970010Y-86332179D01*
X171100025Y-98782185D02*
X171100025Y-90782180D01*
X154250015Y-44920169D02*
X154850016Y-44920169D01*
X147550011Y-44220168D02*
X147550011Y-42774941D01*
X171900023Y-114270401D02*
X171900023Y-99157401D01*
X142970007Y-127232201D02*
X143970008Y-127232201D01*
X154970014Y-88132178D02*
X154970014Y-86332179D01*
X154970014Y-127232201D02*
X155970014Y-127232201D01*
X158050018Y-42200167D02*
X158050018Y-40600165D01*
X162970018Y-127232201D02*
X162970018Y-125432200D01*
X164470020Y-87632179D02*
X164470020Y-86332179D01*
X159550017Y-78625413D02*
X159550017Y-77180186D01*
X166290514Y-93930736D02*
X166290514Y-90930737D01*
X150250013Y-44920169D02*
X150850014Y-44920169D01*
X152970013Y-88132178D02*
X154970014Y-88132178D01*
X154050015Y-40600166D02*
G75*
G03*
X151050012Y-40600165I-1500002J-799999D01*
G01*
X155550015Y-44220168D02*
X155550015Y-42774941D01*
X139550006Y-44220168D02*
X139550006Y-42774941D01*
X150050013Y-80800189D02*
X150050013Y-79200187D01*
X143050010Y-80800189D02*
X143050010Y-79200187D01*
X171900023Y-90441945D02*
X171900023Y-88540201D01*
X126000000Y-68700180D02*
X125581632Y-68700180D01*
X134250004Y-76480185D02*
X134850006Y-76480185D01*
X148970010Y-88132178D02*
X150970012Y-88132178D01*
X125713389Y-44700167D02*
X126000000Y-44700167D01*
X130250002Y-76480185D02*
X130850003Y-76480185D01*
X131050003Y-80800189D02*
X131050003Y-79200187D01*
X171100025Y-90782180D02*
X171559787Y-90782180D01*
X140970006Y-88132178D02*
X142970007Y-88132178D01*
X125199997Y-90414774D02*
X125199997Y-88516571D01*
X125630771Y-122782198D02*
X125999998Y-122782198D01*
X150850014Y-44920215D02*
G75*
G03*
X151550015Y-44220168I-14J700015D01*
G01*
X140970006Y-125432200D02*
X142970007Y-125432200D01*
X125199997Y-114392374D02*
X125199997Y-112214771D01*
X154850016Y-44920218D02*
G75*
G03*
X155550018Y-44220168I-16J700018D01*
G01*
X125199997Y-88516571D02*
X125584390Y-88132178D01*
X162050020Y-80800189D02*
X162050020Y-79200187D01*
X144470009Y-127232201D02*
X144470009Y-125932199D01*
X131050001Y-80800189D02*
G75*
G03*
X134050005Y-80800189I1500002J800001D01*
G01*
X143970008Y-86332179D02*
X144470009Y-86332179D01*
X138050007Y-40600165D02*
G75*
G03*
X135050003Y-40600165I-1500002J-800001D01*
G01*
X156970015Y-125432213D02*
G75*
G03*
X156470013Y-125932199I-15J-499987D01*
G01*
X161550018Y-78625413D02*
X161550018Y-77180186D01*
X138970005Y-88132178D02*
X138970005Y-86332179D01*
X147050017Y-42200163D02*
G75*
G03*
X147550012Y-42774940I1499983J799963D01*
G01*
X167550022Y-80500187D02*
X167550022Y-77180186D01*
X160970017Y-125432200D02*
X162970018Y-125432200D01*
X171521820Y-122782198D02*
X171900023Y-123160401D01*
X158050018Y-80800189D02*
X158050018Y-79200187D01*
X153550014Y-44220168D02*
X153550014Y-42774941D01*
X125200000Y-77194824D02*
X125694639Y-76700184D01*
X162970018Y-86332179D02*
X163970019Y-86332179D01*
X145550010Y-78625413D02*
X145550010Y-77180186D01*
X163970019Y-86332179D02*
X164470020Y-86332179D01*
X132970002Y-125432200D02*
X134970003Y-125432200D01*
X133550010Y-42774951D02*
G75*
G03*
X134050004Y-42200167I-1000010J1374751D01*
G01*
X162050020Y-40600165D02*
G75*
G03*
X159050016Y-40600165I-1500002J-800001D01*
G01*
X125199997Y-125111174D02*
X125199997Y-123212971D01*
X133550003Y-78625413D02*
X133550003Y-77180186D01*
X125750202Y-40900167D02*
X130050003Y-40900167D01*
X143550013Y-78625419D02*
G75*
G03*
X143050008Y-79200187I999987J-1374781D01*
G01*
X125199997Y-112214771D02*
X125632577Y-111782192D01*
X139970006Y-86332179D02*
X140470007Y-86332179D01*
X125581632Y-68700180D02*
X125199999Y-68318547D01*
X125999998Y-122782198D02*
X125999998Y-114782193D01*
X129800001Y-111782192D02*
X129800001Y-101782186D01*
X171100025Y-52000000D02*
X171100025Y-44700167D01*
X125589816Y-114782193D02*
X125999998Y-114782193D01*
X132470003Y-87632179D02*
X132470003Y-86332179D01*
X131970001Y-127232201D02*
X132470003Y-127232201D01*
X136470005Y-87632179D02*
X136470005Y-86332179D01*
X125677408Y-80500187D02*
X130050003Y-80500187D01*
X141550007Y-78625413D02*
X141550007Y-77180186D01*
X138250006Y-76480205D02*
G75*
G03*
X137550005Y-77180186I-6J-699995D01*
G01*
X159050018Y-80800189D02*
X159050018Y-79200187D01*
X136970004Y-88132178D02*
X138970005Y-88132178D01*
X159550015Y-77180186D02*
G75*
G03*
X158850019Y-76480185I-700015J-14D01*
G01*
X150250013Y-76480185D02*
X150850014Y-76480185D01*
X139550006Y-78625413D02*
X139550006Y-77180186D01*
X138050007Y-42200167D02*
X138050007Y-40600165D01*
X151550018Y-78625419D02*
G75*
G03*
X151050011Y-79200187I999982J-1374781D01*
G01*
X132970002Y-88132178D02*
X134970003Y-88132178D01*
X149550012Y-44220168D02*
X149550012Y-42774941D01*
X129550001Y-78625413D02*
X129550001Y-77180186D01*
X136970004Y-125432200D02*
X138970005Y-125432200D01*
X161550028Y-42774955D02*
G75*
G03*
X162050020Y-42200167I-1000028J1374755D01*
G01*
X129550031Y-44220168D02*
G75*
G03*
X130250002Y-44920169I699969J-32D01*
G01*
X136970004Y-125432202D02*
G75*
G03*
X136470002Y-125932199I-4J-499998D01*
G01*
X164970019Y-125432218D02*
G75*
G03*
X164470018Y-125932199I-19J-499982D01*
G01*
X144970008Y-125432207D02*
G75*
G03*
X144470007Y-125932199I-8J-499993D01*
G01*
X167550015Y-77180186D02*
G75*
G03*
X166850023Y-76480185I-700015J-14D01*
G01*
X171900026Y-80107399D02*
X171900026Y-77161004D01*
X157550016Y-78625413D02*
X157550016Y-77180186D01*
X158250017Y-44920169D02*
X158850019Y-44920169D01*
X164970019Y-125432200D02*
X171529968Y-125432200D01*
X150050013Y-79200187D02*
G75*
G03*
X149550012Y-78625413I-1500013J-800013D01*
G01*
X137550012Y-42774951D02*
G75*
G03*
X138050006Y-42200167I-1000012J1374751D01*
G01*
X125567403Y-90782180D02*
X125999998Y-90782180D01*
X131970001Y-86332179D02*
X132470003Y-86332179D01*
X130970001Y-127232201D02*
X130970001Y-125432200D01*
X143050010Y-42200167D02*
X143050010Y-40600165D01*
X135970003Y-127232201D02*
X136470005Y-127232201D01*
X165550031Y-44220168D02*
G75*
G03*
X166250022Y-44920169I699969J-32D01*
G01*
X148970010Y-125432209D02*
G75*
G03*
X148470009Y-125932199I-10J-499991D01*
G01*
X143050015Y-42200163D02*
G75*
G03*
X143550009Y-42774941I1499985J799963D01*
G01*
X139550010Y-78625419D02*
G75*
G03*
X139050006Y-79200187I999990J-1374781D01*
G01*
X148470011Y-127232201D02*
X148470011Y-125932199D01*
X134050005Y-40600165D02*
G75*
G03*
X131050001Y-40600165I-1500002J-800001D01*
G01*
X145549998Y-42774925D02*
G75*
G03*
X146050011Y-42200167I-999998J1374825D01*
G01*
X157550026Y-42774954D02*
G75*
G03*
X158050018Y-42200167I-1000026J1374754D01*
G01*
X151970012Y-127232201D02*
X152470014Y-127232201D01*
X171100025Y-69400006D02*
X161400019Y-69400006D01*
X144470019Y-87632179D02*
G75*
G03*
X144970008Y-88132181I499981J-21D01*
G01*
X140470007Y-87632179D02*
X140470007Y-86332179D01*
X146050011Y-40600165D02*
G75*
G03*
X143050007Y-40600165I-1500002J-800001D01*
G01*
X155550015Y-78625413D02*
X155550015Y-77180186D01*
X151050014Y-42200167D02*
X151050014Y-40600165D01*
X147970010Y-86332179D02*
X148470011Y-86332179D01*
X135050003Y-80800189D02*
G75*
G03*
X138050007Y-80800189I1500002J800001D01*
G01*
X160470019Y-87632179D02*
G75*
G03*
X160970017Y-88132181I499981J-21D01*
G01*
X160470018Y-87632179D02*
X160470018Y-86332179D01*
X130050006Y-79200185D02*
G75*
G03*
X129550001Y-78625413I-1500006J-800015D01*
G01*
X149550031Y-44220168D02*
G75*
G03*
X150250013Y-44920169I699969J-32D01*
G01*
X151050011Y-80800189D02*
G75*
G03*
X154050015Y-80800189I1500002J800000D01*
G01*
X154970014Y-86332179D02*
X155970014Y-86332179D01*
X134970003Y-127232201D02*
X134970003Y-125432200D01*
X171507237Y-80500187D02*
X171900026Y-80107399D01*
X144470009Y-87632179D02*
X144470009Y-86332179D01*
X142050010Y-79200187D02*
G75*
G03*
X141550007Y-78625414I-1500010J-800013D01*
G01*
X131550002Y-44220168D02*
X131550002Y-42774941D01*
X155550021Y-78625421D02*
G75*
G03*
X155050015Y-79200187I999979J-1374779D01*
G01*
X153550023Y-42774953D02*
G75*
G03*
X154050015Y-42200167I-1000023J1374753D01*
G01*
X150970012Y-86332179D02*
X151970012Y-86332179D01*
X163050018Y-80800189D02*
G75*
G03*
X166050022Y-80800189I1500002J800001D01*
G01*
X134050005Y-80800189D02*
X134050005Y-79200187D01*
X125199997Y-101387574D02*
X125594609Y-101782186D01*
X162970018Y-127232201D02*
X163970019Y-127232201D01*
X151550013Y-78625413D02*
X151550013Y-77180186D01*
X167550022Y-40900167D02*
X171529389Y-40900167D01*
X166050022Y-40600165D02*
G75*
G03*
X163050018Y-40600165I-1500002J-800001D01*
G01*
X125199997Y-90414774D02*
X125567403Y-90782180D01*
X134050005Y-42200167D02*
X134050005Y-40600165D01*
X145550031Y-44220168D02*
G75*
G03*
X146250011Y-44920169I699969J-32D01*
G01*
X162050020Y-42200167D02*
X162050020Y-40600165D01*
X140970006Y-125432205D02*
G75*
G03*
X140470005Y-125932199I-6J-499995D01*
G01*
X166250022Y-76480220D02*
G75*
G03*
X165550020Y-77180186I-22J-699980D01*
G01*
X145550010Y-44220168D02*
X145550010Y-42774941D01*
X142970007Y-86332179D02*
X143970008Y-86332179D01*
X153550014Y-78625413D02*
X153550014Y-77180186D01*
X138050007Y-80800189D02*
X138050007Y-79200187D01*
X155290516Y-93930736D02*
X166290514Y-93930736D01*
X155050014Y-80800189D02*
G75*
G03*
X158050018Y-80800189I1500002J800001D01*
G01*
X155970014Y-86332179D02*
X156470016Y-86332179D01*
X155050016Y-80800189D02*
X155050016Y-79200187D01*
X140470019Y-87632179D02*
G75*
G03*
X140970006Y-88132181I499981J-21D01*
G01*
X141550031Y-44220168D02*
G75*
G03*
X142250009Y-44920169I699969J-32D01*
G01*
X149550012Y-78625413D02*
X149550012Y-77180186D01*
X155970014Y-127232201D02*
X156470016Y-127232201D01*
X155550015Y-77180186D02*
G75*
G03*
X154850016Y-76480185I-700015J-14D01*
G01*
X167550022Y-80500187D02*
X171507237Y-80500187D01*
X135550004Y-44220168D02*
X135550004Y-42774941D01*
X125199997Y-114392374D02*
X125589816Y-114782193D01*
X138050009Y-79200186D02*
G75*
G03*
X137550005Y-78625413I-1500009J-800014D01*
G01*
X125199997Y-99209971D02*
X125627784Y-98782185D01*
X163970019Y-127232201D02*
X164470020Y-127232201D01*
X166500018Y-55450001D02*
X161400019Y-55450001D01*
X146970009Y-127232201D02*
X147970010Y-127232201D01*
X148470011Y-87632179D02*
X148470011Y-86332179D01*
X135550008Y-78625418D02*
G75*
G03*
X135050003Y-79200187I999992J-1374782D01*
G01*
X159550023Y-78625421D02*
G75*
G03*
X159050016Y-79200187I999977J-1374779D01*
G01*
X171559787Y-90782180D02*
X171900023Y-90441945D01*
X153550031Y-44220168D02*
G75*
G03*
X154250015Y-44920169I699969J-32D01*
G01*
X125594609Y-101782186D02*
X129800001Y-101782186D01*
X159050016Y-80800189D02*
G75*
G03*
X162050020Y-80800189I1500002J800001D01*
G01*
X156970015Y-125432200D02*
X158970016Y-125432200D01*
X130050003Y-42200167D02*
X130050003Y-40900167D01*
X166500018Y-65950005D02*
X161400019Y-65950005D01*
X171100025Y-76700184D02*
X171100025Y-69400006D01*
X155290516Y-90930737D02*
X166290514Y-90930737D01*
X130250002Y-76480201D02*
G75*
G03*
X129550001Y-77180186I-2J-699999D01*
G01*
X144970008Y-88132178D02*
X146970009Y-88132178D01*
X160970017Y-125432215D02*
G75*
G03*
X160470015Y-125932199I-17J-499985D01*
G01*
X146050011Y-80800189D02*
X146050011Y-79200187D01*
X147050009Y-80800189D02*
G75*
G03*
X150050013Y-80800189I1500002J800001D01*
G01*
X149550020Y-42774952D02*
G75*
G03*
X150050012Y-42200167I-1000020J1374752D01*
G01*
X160970017Y-88132178D02*
X162970018Y-88132178D01*
X156470019Y-87632179D02*
G75*
G03*
X156970015Y-88132181I499981J-21D01*
G01*
X151970012Y-86332179D02*
X152470014Y-86332179D01*
X162250019Y-44920169D02*
X162850021Y-44920169D01*
X163550019Y-78625413D02*
X163550019Y-77180186D01*
X142250009Y-76480208D02*
G75*
G03*
X141550008Y-77180186I-9J-699992D01*
G01*
X134050007Y-79200186D02*
G75*
G03*
X133550003Y-78625413I-1500007J-800014D01*
G01*
X161550018Y-44220168D02*
X161550018Y-42774941D01*
X146050011Y-42200167D02*
X146050011Y-40600165D01*
X130250002Y-44920169D02*
X130850003Y-44920169D01*
X139550015Y-77180186D02*
G75*
G03*
X138850008Y-76480185I-700015J-14D01*
G01*
X163050020Y-42200167D02*
X163050020Y-40600165D01*
X158050016Y-79200188D02*
G75*
G03*
X157550015Y-78625414I-1500016J-800012D01*
G01*
X164470020Y-127232201D02*
X164470020Y-125932199D01*
X125200000Y-41450369D02*
X125750202Y-40900167D01*
X161550031Y-44220168D02*
G75*
G03*
X162250019Y-44920169I699969J-32D01*
G01*
X150970012Y-127232201D02*
X151970012Y-127232201D01*
X155050016Y-42200167D02*
X155050016Y-40600165D01*
X125199999Y-53180152D02*
X125199999Y-68318547D01*
X147550015Y-78625419D02*
G75*
G03*
X147050009Y-79200187I999985J-1374781D01*
G01*
X139050007Y-80800189D02*
X139050007Y-79200187D01*
X163049993Y-42200180D02*
G75*
G03*
X163550019Y-42774941I1500007J800080D01*
G01*
X152470019Y-87632179D02*
G75*
G03*
X152970013Y-88132181I499981J-21D01*
G01*
X151050019Y-42200163D02*
G75*
G03*
X151550013Y-42774940I1499981J799963D01*
G01*
X150970012Y-127232201D02*
X150970012Y-125432200D01*
X161400019Y-52000000D02*
X161400019Y-55450001D01*
X160470018Y-127232201D02*
X160470018Y-125932199D01*
X142970007Y-127232201D02*
X142970007Y-125432200D01*
X171900023Y-125062145D02*
X171900023Y-123160401D01*
X134970003Y-127232201D02*
X135970003Y-127232201D01*
X134850006Y-44920207D02*
G75*
G03*
X135550007Y-44220168I-6J700007D01*
G01*
X129550008Y-42774951D02*
G75*
G03*
X130050003Y-42200167I-1000008J1374751D01*
G01*
X171388231Y-114782193D02*
X171900023Y-114270401D01*
X134970003Y-86332179D02*
X135970003Y-86332179D01*
X133550003Y-44220168D02*
X133550003Y-42774941D01*
X165550020Y-78625413D02*
X165550020Y-77180186D01*
X159550017Y-44220168D02*
X159550017Y-42774941D01*
X125199997Y-123212971D02*
X125630771Y-122782198D01*
X125679981Y-52700171D02*
X125199999Y-53180152D01*
X139049984Y-42200178D02*
G75*
G03*
X139550006Y-42774940I1500016J800078D01*
G01*
X151550013Y-44220168D02*
X151550013Y-42774941D01*
X166250022Y-76480185D02*
X166850023Y-76480185D01*
X152970013Y-125432200D02*
X154970014Y-125432200D01*
X159970016Y-127232201D02*
X160470018Y-127232201D01*
X132970002Y-125432200D02*
G75*
G03*
X132470000Y-125932199I-2J-500000D01*
G01*
X131050003Y-42200167D02*
X131050003Y-40600165D01*
X171100025Y-52000000D02*
X161400019Y-52000000D01*
X125694639Y-76700184D02*
X126000000Y-76700184D01*
X151550015Y-77180186D02*
G75*
G03*
X150850014Y-76480185I-700015J-14D01*
G01*
X156470016Y-127232201D02*
X156470016Y-125932199D01*
X138250006Y-76480185D02*
X138850008Y-76480185D01*
X164970019Y-88132178D02*
X171492000Y-88132178D01*
X136470019Y-87632179D02*
G75*
G03*
X136970004Y-88132181I499981J-21D01*
G01*
X164470019Y-87632179D02*
G75*
G03*
X164970019Y-88132181I499981J-21D01*
G01*
X158970016Y-88132178D02*
X158970016Y-86332179D01*
X165550030Y-42774955D02*
G75*
G03*
X166050021Y-42200167I-1000030J1374755D01*
G01*
X138970005Y-127232201D02*
X138970005Y-125432200D01*
X143550015Y-77180186D02*
G75*
G03*
X142850010Y-76480185I-700015J-14D01*
G01*
X155049990Y-42200180D02*
G75*
G03*
X155550015Y-42774941I1500010J800080D01*
G01*
X171100025Y-44700167D02*
X171594857Y-44700167D01*
X142250009Y-44920169D02*
X142850010Y-44920169D01*
X159970016Y-86332179D02*
X160470018Y-86332179D01*
X152970013Y-125432211D02*
G75*
G03*
X152470011Y-125932199I-13J-499989D01*
G01*
X143050007Y-80800189D02*
G75*
G03*
X146050011Y-80800189I1500002J800001D01*
G01*
X125200000Y-80022778D02*
X125200000Y-77194824D01*
X132470019Y-87632179D02*
G75*
G03*
X132970002Y-88132181I499981J-21D01*
G01*
X158050018Y-40600165D02*
G75*
G03*
X155050014Y-40600165I-1500002J-800001D01*
G01*
X131049980Y-42200178D02*
G75*
G03*
X131550002Y-42774941I1500020J800078D01*
G01*
X134250004Y-76480203D02*
G75*
G03*
X133550003Y-77180186I-4J-699997D01*
G01*
X163550019Y-44220168D02*
X163550019Y-42774941D01*
X125584390Y-88132178D02*
X130970001Y-88132178D01*
X135550015Y-77180186D02*
G75*
G03*
X134850006Y-76480185I-700015J-14D01*
G01*
X171529968Y-125432200D02*
X171900023Y-125062145D01*
X154250015Y-76480185D02*
X154850016Y-76480185D01*
X163550025Y-78625421D02*
G75*
G03*
X163050018Y-79200187I999975J-1374779D01*
G01*
X137550031Y-44220168D02*
G75*
G03*
X138250006Y-44920169I699969J-32D01*
G01*
X143550009Y-44220168D02*
X143550009Y-42774941D01*
X138970005Y-86332179D02*
X139970006Y-86332179D01*
X162850021Y-44920222D02*
G75*
G03*
X163550022Y-44220168I-21J700022D01*
G01*
X130970001Y-88132178D02*
X130970001Y-86332179D01*
X125200000Y-80022778D02*
X125677408Y-80500187D01*
X130970001Y-86332179D02*
X131970001Y-86332179D01*
X125999998Y-98782185D02*
X125999998Y-90782180D01*
X130850003Y-44920205D02*
G75*
G03*
X131550005Y-44220168I-3J700005D01*
G01*
X166850023Y-44920224D02*
G75*
G03*
X167550024Y-44220168I-23J700024D01*
G01*
X158970016Y-127232201D02*
X158970016Y-125432200D01*
X140470007Y-127232201D02*
X140470007Y-125932199D01*
X146250011Y-76480185D02*
X146850012Y-76480185D01*
X144970008Y-125432200D02*
X146970009Y-125432200D01*
X171100025Y-122782198D02*
X171521820Y-122782198D01*
X166250022Y-44920169D02*
X166850023Y-44920169D01*
X171439206Y-76700184D02*
X171900026Y-77161004D01*
X154050016Y-80800189D02*
X154050016Y-79200187D01*
X125200000Y-44186777D02*
X125200000Y-41450369D01*
X125199997Y-125111174D02*
X125521023Y-125432200D01*
X142050009Y-80800189D02*
X142050009Y-79200187D01*
X158970016Y-86332179D02*
X159970016Y-86332179D01*
X157550031Y-44220168D02*
G75*
G03*
X158250017Y-44920169I699969J-32D01*
G01*
X142050009Y-42200167D02*
X142050009Y-40600165D01*
X135550004Y-78625413D02*
X135550004Y-77180186D01*
X138250006Y-44920169D02*
X138850008Y-44920169D01*
X135050005Y-42200167D02*
X135050005Y-40600165D01*
X142050009Y-40600165D02*
G75*
G03*
X139050005Y-40600165I-1500002J-800001D01*
G01*
X155290516Y-93930736D02*
X155290516Y-90930737D01*
X154250015Y-76480214D02*
G75*
G03*
X153550014Y-77180186I-15J-699986D01*
G01*
X146050012Y-79200186D02*
G75*
G03*
X145550010Y-78625413I-1500012J-800014D01*
G01*
X154050015Y-79200188D02*
G75*
G03*
X153550014Y-78625414I-1500015J-800012D01*
G01*
X161400019Y-65950005D02*
X161400019Y-69400006D01*
X171100025Y-98782185D02*
X171524807Y-98782185D01*
%TO.C,U4*%
X163234005Y-59417303D02*
X163234005Y-62317305D01*
X162934006Y-62617304D02*
X161734006Y-62617304D01*
X162934006Y-59117304D02*
X161734006Y-59117304D01*
X161434006Y-59417303D02*
X161434006Y-62317305D01*
X159834002Y-57617307D02*
X159834002Y-63717307D01*
X159534002Y-64017309D02*
X158334002Y-64017309D01*
X159534002Y-57317305D02*
X158334002Y-57317305D01*
X158034000Y-57617307D02*
X158034000Y-63717307D01*
X162934006Y-62617304D02*
G75*
G03*
X163234005Y-62317305I-1J300000D01*
G01*
X163234005Y-59417303D02*
G75*
G03*
X162934006Y-59117304I-299997J2D01*
G01*
X161434011Y-62317305D02*
G75*
G03*
X161734006Y-62617304I299996J-3D01*
G01*
X161734006Y-59117304D02*
G75*
G03*
X161434006Y-59417303I-2J-299998D01*
G01*
X159534002Y-64017303D02*
G75*
G03*
X159834002Y-63717307I5J299995D01*
G01*
X159834028Y-57617307D02*
G75*
G03*
X159534002Y-57317307I-300021J-21D01*
G01*
X158034029Y-63717307D02*
G75*
G03*
X158334002Y-64017306I299978J-21D01*
G01*
X158334002Y-57317304D02*
G75*
G03*
X158034003Y-57617307I5J-300004D01*
G01*
%TD*%
M02*
