%TF.GenerationSoftware,KiCad,Pcbnew,7.0.1*%
%TF.CreationDate,2023-06-12T22:17:34+07:00*%
%TF.ProjectId,servo_motor,73657276-6f5f-46d6-9f74-6f722e6b6963,rev?*%
%TF.SameCoordinates,Original*%
%TF.FileFunction,Copper,L2,Bot*%
%TF.FilePolarity,Positive*%
%FSLAX46Y46*%
G04 Gerber Fmt 4.6, Leading zero omitted, Abs format (unit mm)*
G04 Created by KiCad (PCBNEW 7.0.1) date 2023-06-12 22:17:34*
%MOMM*%
%LPD*%
G01*
G04 APERTURE LIST*
%TA.AperFunction,ComponentPad*%
%ADD10R,1.700000X1.700000*%
%TD*%
%TA.AperFunction,ComponentPad*%
%ADD11O,1.700000X1.700000*%
%TD*%
%TA.AperFunction,ComponentPad*%
%ADD12C,3.600000*%
%TD*%
%TA.AperFunction,ComponentPad*%
%ADD13O,1.300000X1.400000*%
%TD*%
%TA.AperFunction,ComponentPad*%
%ADD14O,7.000000X3.500000*%
%TD*%
%TA.AperFunction,ComponentPad*%
%ADD15C,2.200000*%
%TD*%
%TA.AperFunction,ComponentPad*%
%ADD16C,2.800000*%
%TD*%
%TA.AperFunction,ViaPad*%
%ADD17C,0.600000*%
%TD*%
%TA.AperFunction,Conductor*%
%ADD18C,0.250000*%
%TD*%
%TA.AperFunction,Conductor*%
%ADD19C,0.300000*%
%TD*%
%TA.AperFunction,Conductor*%
%ADD20C,1.000000*%
%TD*%
%TA.AperFunction,Conductor*%
%ADD21C,0.400000*%
%TD*%
%TA.AperFunction,Conductor*%
%ADD22C,0.500000*%
%TD*%
G04 APERTURE END LIST*
D10*
%TO.P,J2,1,Pin_1*%
%TO.N,GND*%
X128000000Y-65775000D03*
D11*
%TO.P,J2,2,Pin_2*%
%TO.N,/SWCLK*%
X128000000Y-63235000D03*
%TO.P,J2,3,Pin_3*%
%TO.N,/SWDIO*%
X128000000Y-60695000D03*
%TO.P,J2,4,Pin_4*%
%TO.N,/RESET*%
X128000000Y-58155000D03*
%TO.P,J2,5,Pin_5*%
%TO.N,+3V3*%
X128000000Y-55615000D03*
%TD*%
D12*
%TO.P,H3,1,1*%
%TO.N,GND*%
X171265018Y-48700167D03*
%TD*%
%TO.P,H5,1,1*%
%TO.N,GND*%
X125799018Y-94782178D03*
%TD*%
D13*
%TO.P,U4,1,OUT*%
%TO.N,/HALL1*%
X163234007Y-61816828D03*
%TO.P,U4,2,VCC*%
%TO.N,+3V3*%
X163234007Y-59916828D03*
%TO.P,U4,3,GND*%
%TO.N,GND*%
X161434007Y-60866828D03*
%TO.P,U4,4,OUT*%
%TO.N,/HALL2*%
X159834007Y-63166828D03*
%TO.P,U4,5,VCC*%
%TO.N,+3V3*%
X159834007Y-61266828D03*
%TO.P,U4,6,GND*%
%TO.N,GND*%
X158034007Y-62216828D03*
%TO.P,U4,7,OUT*%
%TO.N,/HALL3*%
X158034007Y-58167828D03*
%TO.P,U4,8,VCC*%
%TO.N,+3V3*%
X158034007Y-60067828D03*
%TO.P,U4,9,GND*%
%TO.N,GND*%
X159834007Y-59117828D03*
%TD*%
D12*
%TO.P,H6,1,1*%
%TO.N,GND*%
X125799018Y-118782200D03*
%TD*%
D14*
%TO.P,J3,1,Pin_1*%
%TO.N,/PHASE1*%
X129736018Y-102834178D03*
%TO.P,J3,2,Pin_2*%
%TO.N,/PHASE2*%
X129736018Y-106834178D03*
%TO.P,J3,3,Pin_3*%
%TO.N,/PHASE3*%
X129736018Y-110834178D03*
%TD*%
D10*
%TO.P,J6,1,Pin_1*%
%TO.N,GND*%
X132320000Y-74100000D03*
D11*
%TO.P,J6,2,Pin_2*%
%TO.N,+10V*%
X134860000Y-74100000D03*
%TO.P,J6,3,Pin_3*%
%TO.N,+3V3*%
X137400000Y-74100000D03*
%TO.P,J6,4,Pin_4*%
%TO.N,/ENCODER_A*%
X139940000Y-74100000D03*
%TO.P,J6,5,Pin_5*%
%TO.N,/ENCODER_B*%
X142480000Y-74100000D03*
%TD*%
D15*
%TO.P,P1,1,24V*%
%TO.N,+24V*%
X131006018Y-87403178D03*
%TO.P,P1,2,10V*%
%TO.N,+10V*%
X135006018Y-87403178D03*
%TO.P,P1,3,Switch_Disable*%
%TO.N,/SWITCH_DISABLE*%
X139006018Y-87403178D03*
%TO.P,P1,4,PWM1*%
%TO.N,/PWM1*%
X143006018Y-87403178D03*
%TO.P,P1,5,PWM2*%
%TO.N,/PWM2*%
X147006018Y-87403178D03*
%TO.P,P1,6,PWM3*%
%TO.N,/PWM3*%
X151006018Y-87403178D03*
%TO.P,P1,7,GND*%
%TO.N,GND*%
X155006018Y-87403178D03*
%TO.P,P1,8,IA*%
%TO.N,/IA*%
X159006018Y-87403178D03*
%TO.P,P1,9,GND*%
%TO.N,GND*%
X163006018Y-87403178D03*
%TD*%
D12*
%TO.P,H7,1,1*%
%TO.N,GND*%
X171265018Y-94782178D03*
%TD*%
D15*
%TO.P,P3,1,24V*%
%TO.N,unconnected-(P3-24V-Pad1)*%
X131006018Y-126011178D03*
%TO.P,P3,2,10V*%
%TO.N,unconnected-(P3-10V-Pad2)*%
X135006018Y-126011178D03*
%TO.P,P3,3,Switch_Disable*%
%TO.N,unconnected-(P3-Switch_Disable-Pad3)*%
X139006018Y-126011178D03*
%TO.P,P3,4,PWM1*%
%TO.N,unconnected-(P3-PWM1-Pad4)*%
X143006018Y-126011178D03*
%TO.P,P3,5,PWM2*%
%TO.N,unconnected-(P3-PWM2-Pad5)*%
X147006018Y-126011178D03*
%TO.P,P3,6,PWM3*%
%TO.N,unconnected-(P3-PWM3-Pad6)*%
X151006018Y-126011178D03*
%TO.P,P3,7,GND*%
%TO.N,unconnected-(P3-GND-Pad7)*%
X155006018Y-126011178D03*
%TO.P,P3,8,IA*%
%TO.N,unconnected-(P3-IA-Pad8)*%
X159006018Y-126011178D03*
%TO.P,P3,9,GND*%
%TO.N,unconnected-(P3-GND-Pad9)*%
X163006018Y-126011178D03*
%TD*%
D12*
%TO.P,H4,1,1*%
%TO.N,GND*%
X171265018Y-72700187D03*
%TD*%
%TO.P,H1,1,1*%
%TO.N,GND*%
X125799018Y-48700167D03*
%TD*%
D10*
%TO.P,J4,1,Pin_1*%
%TO.N,/B*%
X156873218Y-74144378D03*
D11*
%TO.P,J4,2,Pin_2*%
%TO.N,/A*%
X159413218Y-74144378D03*
%TO.P,J4,3,Pin_3*%
%TO.N,/B*%
X161953218Y-74144378D03*
%TO.P,J4,4,Pin_4*%
%TO.N,/A*%
X164493218Y-74144378D03*
%TD*%
D12*
%TO.P,H2,1,1*%
%TO.N,GND*%
X125799018Y-72700187D03*
%TD*%
D10*
%TO.P,J1,1,Pin_1*%
%TO.N,+3V3*%
X146246018Y-46636178D03*
D11*
%TO.P,J1,2,Pin_2*%
%TO.N,/UART2 RX*%
X143706018Y-46636178D03*
%TO.P,J1,3,Pin_3*%
%TO.N,/UART2 TX*%
X141166018Y-46636178D03*
%TO.P,J1,4,Pin_4*%
%TO.N,GND*%
X138626018Y-46636178D03*
%TD*%
D16*
%TO.P,P2,1,24V*%
%TO.N,+24V*%
X132532018Y-80037178D03*
%TO.P,P2,2,10V*%
%TO.N,+10V*%
X136532018Y-80037178D03*
%TO.P,P2,3,Switch_Disable*%
%TO.N,/SWITCH_DISABLE_B*%
X140532018Y-80037178D03*
%TO.P,P2,4,PWM1*%
%TO.N,/PWM1_B*%
X144532018Y-80037178D03*
%TO.P,P2,5,PWM2*%
%TO.N,/PWM2_B*%
X148532018Y-80037178D03*
%TO.P,P2,6,PWM3*%
%TO.N,/PWM3_B*%
X152532018Y-80037178D03*
%TO.P,P2,7,GND*%
%TO.N,GND*%
X156532018Y-80037178D03*
%TO.P,P2,8,IA*%
%TO.N,/IA_B*%
X160532018Y-80037178D03*
%TO.P,P2,9,GND*%
%TO.N,GND*%
X164532018Y-80037178D03*
%TD*%
D12*
%TO.P,H8,1,1*%
%TO.N,GND*%
X171392018Y-118782200D03*
%TD*%
D16*
%TO.P,P4,1,24V*%
%TO.N,unconnected-(P4-24V-Pad1)*%
X132532018Y-41429178D03*
%TO.P,P4,2,10V*%
%TO.N,unconnected-(P4-10V-Pad2)*%
X136532018Y-41429178D03*
%TO.P,P4,3,Switch_Disable*%
%TO.N,unconnected-(P4-Switch_Disable-Pad3)*%
X140532018Y-41429178D03*
%TO.P,P4,4,PWM1*%
%TO.N,unconnected-(P4-PWM1-Pad4)*%
X144532018Y-41429178D03*
%TO.P,P4,5,PWM2*%
%TO.N,unconnected-(P4-PWM2-Pad5)*%
X148532018Y-41429178D03*
%TO.P,P4,6,PWM3*%
%TO.N,unconnected-(P4-PWM3-Pad6)*%
X152532018Y-41429178D03*
%TO.P,P4,7,GND*%
%TO.N,unconnected-(P4-GND-Pad7)*%
X156532018Y-41429178D03*
%TO.P,P4,8,IA*%
%TO.N,unconnected-(P4-IA-Pad8)*%
X160532018Y-41429178D03*
%TO.P,P4,9,GND*%
%TO.N,unconnected-(P4-GND-Pad9)*%
X164532018Y-41429178D03*
%TD*%
D17*
%TO.N,/IA_SENSE*%
X143974020Y-63111045D03*
X144400000Y-71200000D03*
%TO.N,GND*%
X156100000Y-63800000D03*
X142400000Y-49200000D03*
X160500000Y-65900000D03*
X158900000Y-48500000D03*
X127577018Y-124741178D03*
X153400000Y-65900000D03*
X165300000Y-59300000D03*
X154932818Y-120931178D03*
X143300000Y-69700000D03*
X151326018Y-119965978D03*
X165300000Y-62600000D03*
X156500000Y-65900000D03*
X162100000Y-57300000D03*
X144600000Y-49200000D03*
X164200000Y-63700000D03*
X159700000Y-53100000D03*
X138900000Y-71100000D03*
X141148540Y-64400000D03*
X151900000Y-64200000D03*
X169968018Y-114537178D03*
X157000000Y-45600000D03*
X148900000Y-66600000D03*
X166618018Y-117787178D03*
X149400000Y-67300000D03*
X153408818Y-120016778D03*
X159200000Y-55900000D03*
X152000000Y-65900000D03*
X154900000Y-65900000D03*
X156100000Y-57700000D03*
X126688018Y-89054178D03*
X127400000Y-68900000D03*
X158600000Y-65900000D03*
X167668018Y-109437178D03*
X152100000Y-51700000D03*
X144341018Y-123598178D03*
X128720018Y-124868178D03*
X154600000Y-56100000D03*
X150462418Y-119965978D03*
X150600000Y-65900000D03*
X155600000Y-55000000D03*
X147600000Y-48800000D03*
X152200000Y-45500000D03*
X164400000Y-58300000D03*
X156018018Y-117637178D03*
X157200000Y-56000000D03*
X140900000Y-59300000D03*
X150000000Y-75300000D03*
X153739018Y-90324178D03*
X144700000Y-75200000D03*
X153500000Y-74900000D03*
X139800000Y-49100000D03*
X154300000Y-67700000D03*
X145500000Y-75100000D03*
X135600000Y-55800000D03*
X148707319Y-75249011D03*
X160800000Y-59000000D03*
X150600000Y-71700000D03*
X139400000Y-66200000D03*
X161500000Y-70500000D03*
X154100000Y-58100000D03*
X126180018Y-123725178D03*
X129300000Y-52200000D03*
X152800000Y-64400989D03*
X155100000Y-60500000D03*
X170122018Y-106326178D03*
X162500000Y-65000000D03*
X158438018Y-94515178D03*
X150400000Y-64600000D03*
X154983618Y-123318778D03*
X139000000Y-50800000D03*
X158100000Y-49500000D03*
X131500000Y-62700000D03*
X153400000Y-58800000D03*
X154932818Y-121693178D03*
X160600000Y-51700000D03*
X148525501Y-63600000D03*
X161100000Y-56300000D03*
X127200000Y-77900000D03*
X164600000Y-76200000D03*
X148500000Y-46500000D03*
X163500000Y-57400000D03*
X143400000Y-72200000D03*
X132100000Y-53700000D03*
X155600000Y-62400000D03*
X149900000Y-73900000D03*
X156100000Y-60700000D03*
X146800000Y-51700000D03*
X137600000Y-66200000D03*
X158400000Y-71700000D03*
X148400000Y-68000000D03*
X169106018Y-90451178D03*
X154932818Y-122455178D03*
X132100000Y-46500000D03*
X145100000Y-72400000D03*
X148000000Y-52800000D03*
X152342018Y-119915178D03*
%TO.N,+10V*%
X166918018Y-111187178D03*
X141674018Y-90451178D03*
X162375018Y-95404178D03*
X140000000Y-56700000D03*
X156787018Y-95404178D03*
X163598018Y-116025178D03*
X166502018Y-104230178D03*
%TO.N,+24V*%
X129101018Y-97690178D03*
X129101018Y-98706178D03*
X139515018Y-106707178D03*
X129101018Y-95658178D03*
X141293018Y-104675178D03*
X140912018Y-120296178D03*
X141928018Y-118137178D03*
X129101018Y-96674178D03*
X136594018Y-119153178D03*
X136086018Y-93372178D03*
X132149018Y-93372178D03*
X139515018Y-105691178D03*
X148836818Y-118899178D03*
X139515018Y-104675178D03*
X143071018Y-118137178D03*
X129101018Y-94769178D03*
X146601618Y-118899178D03*
X140912018Y-118137178D03*
X138626018Y-118137178D03*
X139769018Y-119153178D03*
X129101018Y-93880178D03*
X140404018Y-106707178D03*
X130371018Y-93372178D03*
X135197018Y-93372178D03*
X138626018Y-119153178D03*
X137610018Y-120296178D03*
X140404018Y-104675178D03*
X136594018Y-120296178D03*
X140912018Y-119153178D03*
X139769018Y-118137178D03*
X141928018Y-119153178D03*
X147312818Y-118899178D03*
X139769018Y-120296178D03*
X141293018Y-106707178D03*
X156787018Y-122455178D03*
X137610018Y-119153178D03*
X141293018Y-105691178D03*
X140404018Y-105691178D03*
X133038018Y-93372178D03*
X136594018Y-118137178D03*
X134181018Y-93372178D03*
X138626018Y-120296178D03*
X148024018Y-118899178D03*
X129101018Y-99595178D03*
X131260018Y-93372178D03*
X137610018Y-118137178D03*
X137229018Y-93372178D03*
%TO.N,/M_VCC*%
X160168018Y-104737178D03*
X163518018Y-107287178D03*
%TO.N,+3V3*%
X132600000Y-48300000D03*
X158700000Y-52400000D03*
X150800000Y-51800000D03*
X156958076Y-59241924D03*
X161800000Y-63600000D03*
X156300000Y-53800000D03*
X148476460Y-62553839D03*
X132100000Y-60300000D03*
X148900000Y-73424500D03*
X164500000Y-60000000D03*
X136100000Y-64000000D03*
X150800000Y-72500000D03*
%TO.N,/HALL1*%
X153300000Y-61500000D03*
X152813462Y-63496639D03*
%TO.N,/RESET*%
X148275500Y-53900000D03*
X137000000Y-52400000D03*
X148215512Y-66184487D03*
%TO.N,/PHASE1*%
X147518018Y-94087178D03*
X161768018Y-104487178D03*
%TO.N,/PHASE2*%
X158368018Y-106137178D03*
X148868018Y-103737178D03*
%TO.N,/PHASE3*%
X148668018Y-116937178D03*
X156368018Y-109137178D03*
%TO.N,/ENCODER_A*%
X140900000Y-60900000D03*
%TO.N,/ENCODER_B*%
X141200000Y-61800000D03*
%TO.N,/TEMPERATURE*%
X147500000Y-54900000D03*
X143970360Y-61034331D03*
X147000000Y-59000708D03*
X143000000Y-67700000D03*
X137600000Y-67600000D03*
X129000000Y-72900000D03*
%TO.N,/UART2 RX*%
X149700000Y-60100000D03*
%TO.N,/UART2 TX*%
X148965141Y-60414939D03*
%TO.N,/SWCLK*%
X139700000Y-55800000D03*
%TO.N,/SWDIO*%
X136650000Y-53750000D03*
%TO.N,/PWM1*%
X160308881Y-99994751D03*
%TO.N,/PWM2*%
X163968018Y-103737178D03*
%TO.N,/PWM3*%
X159245093Y-103353057D03*
X159668018Y-97587178D03*
X160851018Y-103136678D03*
%TO.N,/SWITCH_DISABLE*%
X167518018Y-106737178D03*
%TO.N,/SWITCH_DISABLE_B*%
X150300000Y-67000000D03*
X151300000Y-75400000D03*
%TO.N,/PWM1_B*%
X145776208Y-58376208D03*
%TO.N,/PWM2_B*%
X145524500Y-59227541D03*
%TO.N,/PWM3_B*%
X144542824Y-58423137D03*
X145900000Y-74149500D03*
%TO.N,/TOUCH*%
X141000000Y-53576460D03*
X141000000Y-57900000D03*
%TO.N,/LED_RED*%
X142275500Y-66300000D03*
X145600000Y-51600000D03*
%TO.N,/LED_GREEN*%
X145900000Y-52600000D03*
X142800000Y-66924500D03*
%TO.N,/RS485_EN*%
X143918324Y-57798637D03*
X145100000Y-70700000D03*
%TO.N,/PWM4*%
X137900000Y-63900000D03*
X137900000Y-53125500D03*
%TO.N,Net-(Q1-S-Pad1)*%
X154882018Y-114454178D03*
X166468018Y-102176678D03*
%TO.N,Net-(Q1-G)*%
X147368018Y-96137178D03*
X156116045Y-100663857D03*
%TO.N,Net-(Q2-G)*%
X162768018Y-104537178D03*
X146246018Y-92864178D03*
%TO.N,Net-(Q3-G)*%
X156718018Y-103587178D03*
X152215018Y-103659178D03*
%TO.N,Net-(Q4-G)*%
X144976018Y-104037178D03*
X158968018Y-105337178D03*
%TO.N,Net-(Q5-G)*%
X145103018Y-111914178D03*
X156868018Y-106237178D03*
%TO.N,Net-(Q6-G)*%
X129990018Y-114454178D03*
X157668018Y-109037178D03*
%TO.N,/REF24*%
X148200000Y-49900000D03*
X137700000Y-50700000D03*
X133100000Y-53200000D03*
X150800000Y-55149011D03*
%TO.N,/RS485_D*%
X150700000Y-70800000D03*
X146618295Y-60018295D03*
%TO.N,/RS485_R*%
X147624738Y-59524500D03*
X150600000Y-69000000D03*
%TD*%
D18*
%TO.N,/IA_SENSE*%
X144400000Y-69916807D02*
X144400000Y-71200000D01*
X143974020Y-63111045D02*
X143400000Y-63685065D01*
X143400000Y-63685065D02*
X143400000Y-65269871D01*
X143874031Y-65743903D02*
X143874031Y-69390838D01*
X143400000Y-65269871D02*
X143874031Y-65743903D01*
X143874031Y-69390838D02*
X144400000Y-69916807D01*
D19*
%TO.N,GND*%
X156100000Y-60700000D02*
X156300000Y-60500000D01*
X147826949Y-62073051D02*
X147826949Y-63526949D01*
X154000000Y-57900000D02*
X150300000Y-61600000D01*
X148300000Y-61600000D02*
X147826949Y-62073051D01*
X150099520Y-65799520D02*
X147826949Y-63526949D01*
X156300000Y-60500000D02*
X156300000Y-57100000D01*
X160500480Y-65799520D02*
X150099520Y-65799520D01*
X150300000Y-61600000D02*
X148300000Y-61600000D01*
X157299520Y-56100480D02*
X160648330Y-56100480D01*
X161926075Y-64373925D02*
X160500480Y-65799520D01*
D20*
X155470034Y-89101162D02*
X155470034Y-87403178D01*
X163010018Y-88799313D02*
X163470038Y-88339293D01*
D19*
X156300000Y-57900000D02*
X154000000Y-57900000D01*
D20*
X155390018Y-89943178D02*
X155390018Y-89181178D01*
X163010018Y-89435178D02*
X163010018Y-88799313D01*
D19*
X165149511Y-62498339D02*
X163273925Y-64373925D01*
X156300000Y-57100000D02*
X157299520Y-56100480D01*
X147900000Y-63600000D02*
X147826949Y-63526949D01*
X162047850Y-57500000D02*
X163347850Y-57500000D01*
X163273925Y-64373925D02*
X161926075Y-64373925D01*
X148525501Y-63600000D02*
X147900000Y-63600000D01*
X163347850Y-57500000D02*
X165149511Y-59301661D01*
D20*
X163470038Y-88339293D02*
X163470038Y-87403178D01*
D19*
X160648330Y-56100480D02*
X162047850Y-57500000D01*
X165149511Y-59301661D02*
X165149511Y-62498339D01*
D20*
X155390018Y-89181178D02*
X155470034Y-89101162D01*
D21*
%TO.N,+10V*%
X138054018Y-90451178D02*
X135170023Y-87567183D01*
X135170023Y-87567183D02*
X135170023Y-87403178D01*
D22*
X138500000Y-65400000D02*
X138500000Y-68400000D01*
X166918018Y-111787178D02*
X163598018Y-115107178D01*
D21*
X162375018Y-95404178D02*
X164918018Y-97947178D01*
D22*
X139399520Y-64500480D02*
X138500000Y-65400000D01*
D21*
X156787018Y-95404178D02*
X162375018Y-95404178D01*
D22*
X163598018Y-115107178D02*
X163598018Y-116025178D01*
X166918018Y-111187178D02*
X166918018Y-111787178D01*
D21*
X164918018Y-102646178D02*
X166502018Y-104230178D01*
D22*
X139399520Y-57300480D02*
X139399520Y-64500480D01*
X140000000Y-56700000D02*
X139399520Y-57300480D01*
D21*
X164918018Y-97947178D02*
X164918018Y-102646178D01*
X141674018Y-90451178D02*
X138054018Y-90451178D01*
D22*
X138500000Y-68400000D02*
X134860000Y-72040000D01*
X134860000Y-72040000D02*
X134860000Y-74100000D01*
D20*
%TO.N,+24V*%
X154882018Y-118899178D02*
X156787018Y-120804178D01*
X131260018Y-93372178D02*
X131470021Y-93162175D01*
X148836818Y-118899178D02*
X154882018Y-118899178D01*
X147312818Y-118899178D02*
X148024018Y-118899178D01*
X131470021Y-93162175D02*
X131470021Y-87403178D01*
X148024018Y-118899178D02*
X148836818Y-118899178D01*
X156787018Y-120804178D02*
X156787018Y-122455178D01*
X146601618Y-118899178D02*
X147312818Y-118899178D01*
D19*
%TO.N,/M_VCC*%
X163518018Y-107287178D02*
X162718018Y-107287178D01*
X162718018Y-107287178D02*
X160168018Y-104737178D01*
D22*
%TO.N,+3V3*%
X163300000Y-63500000D02*
X161800000Y-63500000D01*
X157300000Y-53800000D02*
X156300000Y-53800000D01*
X151650489Y-65150489D02*
X160249511Y-65150489D01*
X151149511Y-63989541D02*
X151149511Y-64649511D01*
X156934487Y-59265513D02*
X156934487Y-65100000D01*
X150800000Y-51800000D02*
X152800000Y-53800000D01*
X150800000Y-50400000D02*
X147036178Y-46636178D01*
X150800000Y-51800000D02*
X150800000Y-50400000D01*
X149884470Y-62724500D02*
X151149511Y-63989541D01*
X156958076Y-59241924D02*
X156934487Y-59265513D01*
X161800000Y-58100000D02*
X163100000Y-58100000D01*
X152800000Y-53800000D02*
X156300000Y-53800000D01*
X148647121Y-62724500D02*
X149884470Y-62724500D01*
X151149511Y-64649511D02*
X151650489Y-65150489D01*
X161800000Y-63500000D02*
X161800000Y-63600000D01*
X132100000Y-60300000D02*
X132700000Y-60300000D01*
X164500000Y-60000000D02*
X164500000Y-62300000D01*
X132600000Y-48300000D02*
X132600000Y-51015000D01*
X156934487Y-57365513D02*
X157600000Y-56700000D01*
X163100000Y-58100000D02*
X164500000Y-59500000D01*
X158700000Y-52400000D02*
X157300000Y-53800000D01*
X164500000Y-59500000D02*
X164500000Y-60000000D01*
X136100000Y-63700000D02*
X136100000Y-64000000D01*
X132600000Y-51015000D02*
X128000000Y-55615000D01*
X157600000Y-56700000D02*
X160400000Y-56700000D01*
X132700000Y-60300000D02*
X136100000Y-63700000D01*
X156934487Y-59218335D02*
X156934487Y-57365513D01*
X148476460Y-62553839D02*
X148647121Y-62724500D01*
X164500000Y-62300000D02*
X163300000Y-63500000D01*
X149315530Y-73424500D02*
X150240030Y-72500000D01*
X147036178Y-46636178D02*
X146246018Y-46636178D01*
X160249511Y-65150489D02*
X161800000Y-63600000D01*
X160400000Y-56700000D02*
X161800000Y-58100000D01*
X148900000Y-73424500D02*
X149315530Y-73424500D01*
X150240030Y-72500000D02*
X150800000Y-72500000D01*
D18*
%TO.N,/HALL1*%
X152813462Y-61986538D02*
X153300000Y-61500000D01*
X152813462Y-63496639D02*
X152813462Y-61986538D01*
X163816828Y-61816828D02*
X163359025Y-61816828D01*
%TO.N,/RESET*%
X137000000Y-52400000D02*
X135900000Y-52400000D01*
X148300000Y-53924500D02*
X148300000Y-59935718D01*
X148300000Y-59935718D02*
X147300000Y-60935718D01*
X130145000Y-58155000D02*
X128000000Y-58155000D01*
X147300000Y-60935718D02*
X147300000Y-65200000D01*
X148275500Y-53900000D02*
X148300000Y-53924500D01*
X147300000Y-65200000D02*
X148215512Y-66115512D01*
X135900000Y-52400000D02*
X130145000Y-58155000D01*
X148215512Y-66115512D02*
X148215512Y-66184487D01*
D22*
%TO.N,/PHASE1*%
X161768018Y-102537178D02*
X161368018Y-102137178D01*
X161368018Y-102137178D02*
X158649320Y-102137178D01*
X150599320Y-94087178D02*
X147518018Y-94087178D01*
X161768018Y-104487178D02*
X161768018Y-102537178D01*
X158649320Y-102137178D02*
X150599320Y-94087178D01*
%TO.N,/PHASE2*%
X157418018Y-105187178D02*
X150318018Y-105187178D01*
X158368018Y-106137178D02*
X157418018Y-105187178D01*
X150318018Y-105187178D02*
X148868018Y-103737178D01*
%TO.N,/PHASE3*%
X156368018Y-109237178D02*
X148668018Y-116937178D01*
D18*
%TO.N,/ENCODER_A*%
X140900000Y-60900000D02*
X140074520Y-61725480D01*
X140074520Y-73965480D02*
X139940000Y-74100000D01*
X140074520Y-61725480D02*
X140074520Y-73965480D01*
%TO.N,/ENCODER_B*%
X140524040Y-70224040D02*
X142480000Y-72180000D01*
X140524040Y-62475960D02*
X140524040Y-70224040D01*
X142480000Y-72180000D02*
X142480000Y-74100000D01*
X141200000Y-61800000D02*
X140524040Y-62475960D01*
%TO.N,/TEMPERATURE*%
X147500000Y-54900000D02*
X147100000Y-55300000D01*
X142800000Y-62204691D02*
X143970360Y-61034331D01*
X137500000Y-67700000D02*
X131600000Y-67700000D01*
X143424511Y-67275489D02*
X143424511Y-65930100D01*
X137600000Y-67600000D02*
X137500000Y-67700000D01*
X142800000Y-65305589D02*
X142800000Y-62204691D01*
X143000000Y-67700000D02*
X143424511Y-67275489D01*
X129000000Y-70300000D02*
X129000000Y-72900000D01*
X131600000Y-67700000D02*
X129000000Y-70300000D01*
X143424511Y-65930100D02*
X142800000Y-65305589D01*
X147100000Y-58900708D02*
X147000000Y-59000708D01*
X147100000Y-55300000D02*
X147100000Y-58900708D01*
%TO.N,/UART2 RX*%
X149700000Y-60100000D02*
X149400000Y-59800000D01*
X143936178Y-46636178D02*
X143706018Y-46636178D01*
X149400000Y-52100000D02*
X143936178Y-46636178D01*
X149400000Y-59800000D02*
X149400000Y-52100000D01*
%TO.N,/UART2 TX*%
X144664282Y-48000000D02*
X142300000Y-48000000D01*
X148965141Y-60414939D02*
X148900000Y-60349798D01*
X141166018Y-46866018D02*
X141166018Y-46636178D01*
X148900000Y-60349798D02*
X148900000Y-52235718D01*
X142300000Y-48000000D02*
X141166018Y-46866018D01*
X148900000Y-52235718D02*
X144664282Y-48000000D01*
D19*
%TO.N,/SWCLK*%
X139700000Y-55800000D02*
X138800000Y-56700000D01*
X138800000Y-64000000D02*
X138000000Y-64800000D01*
X129565000Y-64800000D02*
X128000000Y-63235000D01*
X138000000Y-64800000D02*
X129565000Y-64800000D01*
X138800000Y-56700000D02*
X138800000Y-64000000D01*
%TO.N,/SWDIO*%
X128905000Y-60695000D02*
X135850000Y-53750000D01*
X135850000Y-53750000D02*
X136650000Y-53750000D01*
X128000000Y-60695000D02*
X128905000Y-60695000D01*
%TO.N,/B*%
X156873218Y-74144378D02*
X156873218Y-75073218D01*
X160397596Y-75700000D02*
X161953218Y-74144378D01*
X157500000Y-75700000D02*
X160397596Y-75700000D01*
X156873218Y-75073218D02*
X157500000Y-75700000D01*
%TO.N,/A*%
X162848840Y-72500000D02*
X164493218Y-74144378D01*
X159413218Y-74144378D02*
X161057596Y-72500000D01*
X161057596Y-72500000D02*
X162848840Y-72500000D01*
%TO.N,/PWM1*%
X159012735Y-99994751D02*
X149151662Y-90133678D01*
X144764518Y-90133678D02*
X143120027Y-88489187D01*
X143120027Y-87403178D02*
X143579018Y-87403178D01*
X160308881Y-99994751D02*
X159012735Y-99994751D01*
X149151662Y-90133678D02*
X144764518Y-90133678D01*
X143120027Y-88489187D02*
X143120027Y-87403178D01*
%TO.N,/PWM2*%
X157961590Y-98237178D02*
X147127590Y-87403178D01*
X147127590Y-87403178D02*
X147120029Y-87403178D01*
X161018018Y-98237178D02*
X157961590Y-98237178D01*
X163968018Y-101187178D02*
X161018018Y-98237178D01*
X163968018Y-103737178D02*
X163968018Y-101187178D01*
%TO.N,/PWM3*%
X159668018Y-97587178D02*
X158018018Y-97587178D01*
X159461472Y-103136678D02*
X160851018Y-103136678D01*
X159245093Y-103353057D02*
X159461472Y-103136678D01*
X158018018Y-97587178D02*
X151120032Y-90689192D01*
X151120032Y-90689192D02*
X151120032Y-87403178D01*
%TO.N,/SWITCH_DISABLE*%
X165968018Y-106737178D02*
X163268018Y-104037178D01*
X148948734Y-90637178D02*
X144468018Y-90637178D01*
X139120025Y-87517185D02*
X139120025Y-87403178D01*
X167518018Y-106737178D02*
X165968018Y-106737178D01*
X141040018Y-89437178D02*
X139120025Y-87517185D01*
X159199214Y-100887658D02*
X148948734Y-90637178D01*
X144468018Y-90637178D02*
X143268018Y-89437178D01*
X163268018Y-104037178D02*
X163268018Y-101837178D01*
X162318498Y-100887658D02*
X159199214Y-100887658D01*
X163268018Y-101837178D02*
X162318498Y-100887658D01*
X143268018Y-89437178D02*
X141040018Y-89437178D01*
D18*
%TO.N,/SWITCH_DISABLE_B*%
X152600000Y-69300000D02*
X152600000Y-74100000D01*
X152600000Y-74100000D02*
X151300000Y-75400000D01*
X150300000Y-67000000D02*
X152600000Y-69300000D01*
%TO.N,/PWM1_B*%
X145167335Y-58632665D02*
X145167335Y-58681819D01*
X144900000Y-58949154D02*
X144900000Y-59809343D01*
X145497571Y-63742123D02*
X145222591Y-64017103D01*
X144900000Y-59809343D02*
X145497571Y-60406914D01*
X145423792Y-58376208D02*
X145167335Y-58632665D01*
X144532018Y-77167982D02*
X144532018Y-80037178D01*
X145222591Y-64017103D02*
X145222591Y-68803680D01*
X145222591Y-68803680D02*
X146624511Y-70205600D01*
X145776208Y-58376208D02*
X145423792Y-58376208D01*
X145167335Y-58681819D02*
X144900000Y-58949154D01*
X145497571Y-60406914D02*
X145497571Y-63742123D01*
X146624511Y-70205600D02*
X146624511Y-75075489D01*
X146624511Y-75075489D02*
X144532018Y-77167982D01*
%TO.N,/PWM2_B*%
X145947091Y-63928321D02*
X145672111Y-64203301D01*
X147074031Y-74774031D02*
X148800000Y-76500000D01*
X147074031Y-70019403D02*
X147074031Y-74774031D01*
X148800000Y-76500000D02*
X148800000Y-79769196D01*
X148800000Y-79769196D02*
X148532018Y-80037178D01*
X145672111Y-68617483D02*
X147074031Y-70019403D01*
X145524500Y-59227541D02*
X145947091Y-59650132D01*
X145672111Y-64203301D02*
X145672111Y-68617483D01*
X145947091Y-59650132D02*
X145947091Y-63928321D01*
%TO.N,/PWM3_B*%
X144400000Y-58565961D02*
X144542824Y-58423137D01*
X146000000Y-70216807D02*
X144773071Y-68989878D01*
X145048051Y-63555925D02*
X145048051Y-60593111D01*
X145900000Y-74149500D02*
X146000000Y-74049500D01*
X144773071Y-68989878D02*
X144773071Y-63830905D01*
X144773071Y-63830905D02*
X145048051Y-63555925D01*
X144400000Y-59945060D02*
X144400000Y-58565961D01*
X146000000Y-74049500D02*
X146000000Y-70216807D01*
X145048051Y-60593111D02*
X144400000Y-59945060D01*
D19*
%TO.N,/TOUCH*%
X141000000Y-57900000D02*
X141000000Y-53576460D01*
D18*
%TO.N,/LED_RED*%
X141800000Y-62083193D02*
X141800000Y-65824500D01*
X141800000Y-65824500D02*
X142275500Y-66300000D01*
X141800000Y-53500000D02*
X141800000Y-61516807D01*
X141824511Y-61541318D02*
X141824511Y-62058682D01*
X141800000Y-61516807D02*
X141824511Y-61541318D01*
X143700000Y-51600000D02*
X141800000Y-53500000D01*
X141824511Y-62058682D02*
X141800000Y-62083193D01*
X145600000Y-51600000D02*
X143700000Y-51600000D01*
%TO.N,/LED_GREEN*%
X145900000Y-52600000D02*
X143800000Y-52600000D01*
X142900011Y-66824489D02*
X142800000Y-66924500D01*
X142300000Y-65441307D02*
X142900011Y-66041318D01*
X143800000Y-52600000D02*
X142300000Y-54100000D01*
X142300000Y-54100000D02*
X142300000Y-65441307D01*
X142900011Y-66041318D02*
X142900011Y-66824489D01*
%TO.N,/RS485_EN*%
X144323550Y-63644708D02*
X144598531Y-63369727D01*
X144323551Y-69204640D02*
X144323550Y-63644708D01*
X145100000Y-70700000D02*
X145100000Y-69981089D01*
X144598531Y-60779309D02*
X143918324Y-60099101D01*
X144598531Y-63369727D02*
X144598531Y-60779309D01*
X143918324Y-60099101D02*
X143918324Y-57798637D01*
X145100000Y-69981089D02*
X144323551Y-69204640D01*
%TO.N,/PWM4*%
X137900000Y-53125500D02*
X137900000Y-63900000D01*
D22*
%TO.N,Net-(Q1-S-Pad1)*%
X168268018Y-103976678D02*
X168268018Y-107237178D01*
X166468018Y-102176678D02*
X168268018Y-103976678D01*
X161051018Y-114454178D02*
X154882018Y-114454178D01*
X168268018Y-107237178D02*
X161051018Y-114454178D01*
D21*
%TO.N,Net-(Q1-G)*%
X156116045Y-100663857D02*
X155076137Y-100663857D01*
X150549458Y-96137178D02*
X147368018Y-96137178D01*
X155076137Y-100663857D02*
X150549458Y-96137178D01*
%TO.N,Net-(Q2-G)*%
X162768018Y-104537178D02*
X162668018Y-104437178D01*
X162668018Y-102487178D02*
X161618018Y-101437178D01*
X150294880Y-92864178D02*
X146246018Y-92864178D01*
X158867880Y-101437178D02*
X150294880Y-92864178D01*
X161618018Y-101437178D02*
X158867880Y-101437178D01*
X162668018Y-104437178D02*
X162668018Y-102487178D01*
%TO.N,Net-(Q3-G)*%
X152215018Y-103659178D02*
X155590018Y-103659178D01*
X155590018Y-103659178D02*
X156646018Y-103659178D01*
X156646018Y-103659178D02*
X156718018Y-103587178D01*
%TO.N,Net-(Q4-G)*%
X146226018Y-102787178D02*
X144976018Y-104037178D01*
X158018018Y-104387178D02*
X151218018Y-104387178D01*
X149618018Y-102787178D02*
X146226018Y-102787178D01*
X151218018Y-104387178D02*
X149618018Y-102787178D01*
X158968018Y-105337178D02*
X158018018Y-104387178D01*
%TO.N,Net-(Q5-G)*%
X156768018Y-106237178D02*
X153868018Y-109137178D01*
X147880018Y-109137178D02*
X145103018Y-111914178D01*
X153868018Y-109137178D02*
X147880018Y-109137178D01*
X156868018Y-106237178D02*
X156768018Y-106237178D01*
%TO.N,Net-(Q6-G)*%
X157668018Y-109037178D02*
X157568018Y-109037178D01*
X129990018Y-121693178D02*
X129990018Y-114454178D01*
X140277018Y-122709178D02*
X131006018Y-122709178D01*
X157568018Y-109037178D02*
X148702518Y-117902678D01*
X145083518Y-117902678D02*
X140277018Y-122709178D01*
X131006018Y-122709178D02*
X129990018Y-121693178D01*
X148702518Y-117902678D02*
X145083518Y-117902678D01*
D19*
%TO.N,/REF24*%
X148200000Y-49900000D02*
X148200000Y-50100000D01*
X149900000Y-51800000D02*
X149900000Y-54249011D01*
X148200000Y-50100000D02*
X149900000Y-51800000D01*
X149900000Y-54249011D02*
X150800000Y-55149011D01*
X135600000Y-50700000D02*
X133100000Y-53200000D01*
X137700000Y-50700000D02*
X135600000Y-50700000D01*
D18*
%TO.N,/RS485_D*%
X146396611Y-64114519D02*
X146121631Y-64389499D01*
X146121631Y-64389499D02*
X146121631Y-68221631D01*
X146121631Y-68221631D02*
X148700000Y-70800000D01*
X146396611Y-60239979D02*
X146396611Y-64114519D01*
X146618295Y-60018295D02*
X146396611Y-60239979D01*
X148700000Y-70800000D02*
X150700000Y-70800000D01*
%TO.N,/RS485_R*%
X150600000Y-69000000D02*
X147600000Y-69000000D01*
X147600000Y-69000000D02*
X146846131Y-68246131D01*
X146846131Y-60753869D02*
X147624738Y-59975262D01*
X146846131Y-68246131D02*
X146846131Y-60753869D01*
X147624738Y-59975262D02*
X147624738Y-59524500D01*
%TD*%
%TA.AperFunction,Conductor*%
%TO.N,GND*%
G36*
X163696414Y-57308983D02*
G01*
X163736473Y-57334649D01*
X165032472Y-58565848D01*
X165660782Y-59162743D01*
X165689781Y-59204387D01*
X165700000Y-59254093D01*
X165700000Y-62547810D01*
X165690409Y-62596028D01*
X165663095Y-62636905D01*
X162428553Y-65871447D01*
X162397113Y-65894387D01*
X162360172Y-65906638D01*
X162113254Y-65947791D01*
X162092540Y-65949505D01*
X161425177Y-65949505D01*
X161424971Y-65949464D01*
X161400017Y-65949464D01*
X161399920Y-65949504D01*
X161399715Y-65949589D01*
X161399637Y-65949620D01*
X161399636Y-65949622D01*
X161399477Y-65950007D01*
X161399484Y-65959931D01*
X161385929Y-66016865D01*
X161348115Y-66061534D01*
X161294198Y-66084300D01*
X160610284Y-66198286D01*
X160589570Y-66200000D01*
X150299999Y-66200000D01*
X149400000Y-66599998D01*
X149399999Y-66600000D01*
X149308116Y-67978250D01*
X149287826Y-68038864D01*
X149240404Y-68081722D01*
X149178053Y-68095794D01*
X147493289Y-68037699D01*
X147432140Y-68019417D01*
X147387795Y-67973516D01*
X147371631Y-67911774D01*
X147371631Y-66599397D01*
X147387511Y-66538163D01*
X147431148Y-66492364D01*
X147491543Y-66473544D01*
X147553473Y-66486447D01*
X147601326Y-66527820D01*
X147687329Y-66652416D01*
X147814660Y-66765221D01*
X147965287Y-66844277D01*
X148130456Y-66884987D01*
X148300566Y-66884987D01*
X148300568Y-66884987D01*
X148465737Y-66844277D01*
X148616364Y-66765221D01*
X148743695Y-66652416D01*
X148840330Y-66512417D01*
X148900652Y-66353359D01*
X148921157Y-66184487D01*
X148900652Y-66015615D01*
X148840330Y-65856557D01*
X148743695Y-65716558D01*
X148616364Y-65603753D01*
X148465737Y-65524697D01*
X148465736Y-65524696D01*
X148465735Y-65524696D01*
X148369953Y-65501087D01*
X148311013Y-65467844D01*
X147862405Y-65019236D01*
X147835091Y-64978359D01*
X147825500Y-64930141D01*
X147825500Y-63192957D01*
X147838550Y-63137115D01*
X147874997Y-63092840D01*
X147927292Y-63069304D01*
X147984601Y-63071383D01*
X148035051Y-63098643D01*
X148053071Y-63114607D01*
X148075609Y-63134574D01*
X148188352Y-63193746D01*
X148209332Y-63209183D01*
X148209822Y-63208552D01*
X148219496Y-63216056D01*
X148228514Y-63223758D01*
X148261728Y-63254948D01*
X148280190Y-63265097D01*
X148296712Y-63275951D01*
X148313355Y-63288861D01*
X148313356Y-63288861D01*
X148313357Y-63288862D01*
X148355169Y-63306955D01*
X148365814Y-63312170D01*
X148405753Y-63334127D01*
X148426165Y-63339367D01*
X148444863Y-63345769D01*
X148464195Y-63354135D01*
X148500412Y-63359871D01*
X148509180Y-63361260D01*
X148520804Y-63363667D01*
X148536916Y-63367803D01*
X148564944Y-63375000D01*
X148586012Y-63375000D01*
X148605721Y-63376550D01*
X148626526Y-63379846D01*
X148671877Y-63375558D01*
X148683735Y-63375000D01*
X149562834Y-63375000D01*
X149611052Y-63384591D01*
X149651929Y-63411905D01*
X150462106Y-64222082D01*
X150489420Y-64262959D01*
X150499011Y-64311177D01*
X150499011Y-64563785D01*
X150496664Y-64585044D01*
X150498949Y-64657741D01*
X150499011Y-64661699D01*
X150499011Y-64690436D01*
X150499552Y-64694721D01*
X150500482Y-64706544D01*
X150501913Y-64752080D01*
X150507791Y-64772311D01*
X150511799Y-64791667D01*
X150514439Y-64812568D01*
X150531210Y-64854926D01*
X150535055Y-64866155D01*
X150547767Y-64909911D01*
X150558490Y-64928042D01*
X150567187Y-64945795D01*
X150574941Y-64965379D01*
X150601715Y-65002231D01*
X150608230Y-65012149D01*
X150625869Y-65041973D01*
X150631430Y-65051376D01*
X150646327Y-65066273D01*
X150659165Y-65081304D01*
X150671548Y-65098348D01*
X150706654Y-65127390D01*
X150715434Y-65135380D01*
X151129898Y-65549844D01*
X151143272Y-65566536D01*
X151145285Y-65568427D01*
X151145287Y-65568429D01*
X151196304Y-65616337D01*
X151199115Y-65619061D01*
X151219453Y-65639399D01*
X151219454Y-65639400D01*
X151222864Y-65642045D01*
X151231882Y-65649747D01*
X151265096Y-65680937D01*
X151276510Y-65687212D01*
X151283551Y-65691083D01*
X151300079Y-65701940D01*
X151316725Y-65714852D01*
X151358539Y-65732946D01*
X151369198Y-65738167D01*
X151409121Y-65760116D01*
X151429524Y-65765354D01*
X151448231Y-65771759D01*
X151467563Y-65780125D01*
X151512567Y-65787252D01*
X151524174Y-65789656D01*
X151568312Y-65800989D01*
X151589374Y-65800989D01*
X151609083Y-65802539D01*
X151629894Y-65805836D01*
X151675253Y-65801548D01*
X151687112Y-65800989D01*
X160163785Y-65800989D01*
X160185044Y-65803335D01*
X160187803Y-65803248D01*
X160187807Y-65803249D01*
X160257741Y-65801050D01*
X160261699Y-65800989D01*
X160290430Y-65800989D01*
X160290436Y-65800989D01*
X160294721Y-65800447D01*
X160306543Y-65799516D01*
X160352080Y-65798086D01*
X160363689Y-65794712D01*
X160372302Y-65792211D01*
X160391667Y-65788200D01*
X160412569Y-65785560D01*
X160454940Y-65768783D01*
X160466148Y-65764945D01*
X160509909Y-65752233D01*
X160528040Y-65741509D01*
X160545791Y-65732812D01*
X160565382Y-65725057D01*
X160602239Y-65698278D01*
X160612156Y-65691765D01*
X160651373Y-65668572D01*
X160651373Y-65668571D01*
X160651376Y-65668570D01*
X160666275Y-65653670D01*
X160681303Y-65640834D01*
X160698348Y-65628452D01*
X160727401Y-65593330D01*
X160735370Y-65584574D01*
X162057567Y-64262377D01*
X162088099Y-64239911D01*
X162200852Y-64180734D01*
X162200853Y-64180732D01*
X162206647Y-64177692D01*
X162238084Y-64158688D01*
X162282765Y-64150500D01*
X163214274Y-64150500D01*
X163235533Y-64152846D01*
X163238292Y-64152759D01*
X163238296Y-64152760D01*
X163308230Y-64150561D01*
X163312188Y-64150500D01*
X163340919Y-64150500D01*
X163340925Y-64150500D01*
X163345210Y-64149958D01*
X163357032Y-64149027D01*
X163402569Y-64147597D01*
X163414178Y-64144223D01*
X163422791Y-64141722D01*
X163442156Y-64137711D01*
X163463058Y-64135071D01*
X163505429Y-64118294D01*
X163516637Y-64114456D01*
X163560398Y-64101744D01*
X163578529Y-64091020D01*
X163596280Y-64082323D01*
X163615871Y-64074568D01*
X163652728Y-64047789D01*
X163662645Y-64041276D01*
X163701862Y-64018083D01*
X163701862Y-64018082D01*
X163701865Y-64018081D01*
X163716764Y-64003181D01*
X163731792Y-63990345D01*
X163748837Y-63977963D01*
X163777890Y-63942841D01*
X163785859Y-63934085D01*
X164899356Y-62820588D01*
X164916045Y-62807218D01*
X164917935Y-62805204D01*
X164917940Y-62805202D01*
X164965865Y-62754165D01*
X164968558Y-62751386D01*
X164988911Y-62731035D01*
X164991548Y-62727634D01*
X164999257Y-62718606D01*
X165030448Y-62685393D01*
X165040597Y-62666930D01*
X165051455Y-62650402D01*
X165064362Y-62633764D01*
X165082456Y-62591946D01*
X165087669Y-62581306D01*
X165109627Y-62541368D01*
X165114868Y-62520950D01*
X165121266Y-62502262D01*
X165129635Y-62482927D01*
X165136760Y-62437933D01*
X165139169Y-62426305D01*
X165143393Y-62409857D01*
X165150500Y-62382177D01*
X165150500Y-62361109D01*
X165152051Y-62341398D01*
X165154625Y-62325144D01*
X165155346Y-62320595D01*
X165151058Y-62275243D01*
X165150500Y-62263386D01*
X165150500Y-60283301D01*
X165158688Y-60238621D01*
X165180340Y-60181528D01*
X165185140Y-60168872D01*
X165205645Y-60000000D01*
X165185140Y-59831128D01*
X165177846Y-59811894D01*
X165158688Y-59761379D01*
X165150500Y-59716699D01*
X165150500Y-59585726D01*
X165152846Y-59564466D01*
X165152759Y-59561707D01*
X165152760Y-59561704D01*
X165150561Y-59491769D01*
X165150500Y-59487812D01*
X165150500Y-59459077D01*
X165149959Y-59454796D01*
X165149027Y-59442954D01*
X165148932Y-59439935D01*
X165147597Y-59397431D01*
X165141719Y-59377200D01*
X165137711Y-59357843D01*
X165137345Y-59354947D01*
X165135071Y-59336942D01*
X165118297Y-59294576D01*
X165114458Y-59283366D01*
X165101744Y-59239602D01*
X165091018Y-59221466D01*
X165082321Y-59203713D01*
X165081710Y-59202169D01*
X165074568Y-59184129D01*
X165047789Y-59147270D01*
X165041273Y-59137349D01*
X165018083Y-59098137D01*
X165015459Y-59095513D01*
X165003182Y-59083236D01*
X164990347Y-59068208D01*
X164977963Y-59051163D01*
X164969199Y-59043913D01*
X164942855Y-59022119D01*
X164934075Y-59014129D01*
X163620590Y-57700644D01*
X163607216Y-57683951D01*
X163554183Y-57634150D01*
X163551371Y-57631425D01*
X163531035Y-57611089D01*
X163531034Y-57611088D01*
X163531032Y-57611086D01*
X163527622Y-57608441D01*
X163518602Y-57600737D01*
X163485391Y-57569550D01*
X163466936Y-57559405D01*
X163450410Y-57548550D01*
X163421187Y-57525882D01*
X163423900Y-57522383D01*
X163394798Y-57498758D01*
X163371968Y-57434686D01*
X163385767Y-57368084D01*
X163432175Y-57318358D01*
X163497668Y-57300000D01*
X163649692Y-57300000D01*
X163696414Y-57308983D01*
G37*
%TD.AperFunction*%
%TA.AperFunction,Conductor*%
G36*
X156220987Y-57816881D02*
G01*
X156267106Y-57863000D01*
X156283987Y-57926000D01*
X156283987Y-59020823D01*
X156275799Y-59065503D01*
X156272935Y-59073052D01*
X156252431Y-59241923D01*
X156272935Y-59410795D01*
X156275799Y-59418345D01*
X156283987Y-59463025D01*
X156283987Y-64373989D01*
X156267106Y-64436989D01*
X156220987Y-64483108D01*
X156157987Y-64499989D01*
X151972125Y-64499989D01*
X151923907Y-64490398D01*
X151883030Y-64463084D01*
X151836916Y-64416970D01*
X151809602Y-64376093D01*
X151800011Y-64327875D01*
X151800011Y-64075266D01*
X151802357Y-64054006D01*
X151802270Y-64051247D01*
X151802271Y-64051244D01*
X151800072Y-63981309D01*
X151800011Y-63977352D01*
X151800011Y-63948618D01*
X151799470Y-63944337D01*
X151798538Y-63932495D01*
X151797108Y-63886972D01*
X151791230Y-63866741D01*
X151787222Y-63847385D01*
X151784582Y-63826483D01*
X151767804Y-63784108D01*
X151763970Y-63772909D01*
X151751255Y-63729142D01*
X151740528Y-63711005D01*
X151731831Y-63693251D01*
X151724079Y-63673670D01*
X151697299Y-63636810D01*
X151690788Y-63626898D01*
X151667592Y-63587676D01*
X151652693Y-63572777D01*
X151639858Y-63557749D01*
X151627474Y-63540704D01*
X151592366Y-63511660D01*
X151583586Y-63503670D01*
X151576555Y-63496639D01*
X152107817Y-63496639D01*
X152128321Y-63665510D01*
X152188643Y-63824568D01*
X152217759Y-63866749D01*
X152285279Y-63964568D01*
X152412610Y-64077373D01*
X152563237Y-64156429D01*
X152728406Y-64197139D01*
X152898516Y-64197139D01*
X152898518Y-64197139D01*
X153063687Y-64156429D01*
X153214314Y-64077373D01*
X153341645Y-63964568D01*
X153438280Y-63824569D01*
X153498602Y-63665511D01*
X153519107Y-63496639D01*
X153498602Y-63327767D01*
X153487930Y-63299627D01*
X153438281Y-63168711D01*
X153438280Y-63168709D01*
X153361263Y-63057132D01*
X153344667Y-63023046D01*
X153338962Y-62985560D01*
X153338962Y-62310576D01*
X153351127Y-62256561D01*
X153385274Y-62212976D01*
X153434806Y-62188237D01*
X153550225Y-62159790D01*
X153700852Y-62080734D01*
X153828183Y-61967929D01*
X153924818Y-61827930D01*
X153985140Y-61668872D01*
X154005645Y-61500000D01*
X153985140Y-61331128D01*
X153924818Y-61172070D01*
X153828183Y-61032071D01*
X153700852Y-60919266D01*
X153550225Y-60840210D01*
X153385056Y-60799500D01*
X153214944Y-60799500D01*
X153049775Y-60840210D01*
X152968498Y-60882868D01*
X152899148Y-60919266D01*
X152771816Y-61032072D01*
X152675181Y-61172070D01*
X152614859Y-61331127D01*
X152604781Y-61414128D01*
X152592985Y-61454098D01*
X152568795Y-61488034D01*
X152449765Y-61607064D01*
X152446673Y-61610053D01*
X152401994Y-61651780D01*
X152381818Y-61684959D01*
X152374561Y-61695620D01*
X152351097Y-61726562D01*
X152345052Y-61741892D01*
X152335499Y-61761126D01*
X152326935Y-61775210D01*
X152316461Y-61812592D01*
X152312350Y-61824818D01*
X152298102Y-61860949D01*
X152296417Y-61877340D01*
X152292408Y-61898437D01*
X152287962Y-61914309D01*
X152287962Y-61953144D01*
X152287301Y-61966029D01*
X152283330Y-62004647D01*
X152286130Y-62020883D01*
X152287962Y-62042290D01*
X152287962Y-62985560D01*
X152282257Y-63023046D01*
X152265660Y-63057132D01*
X152241013Y-63092840D01*
X152188642Y-63168711D01*
X152128321Y-63327767D01*
X152107817Y-63496639D01*
X151576555Y-63496639D01*
X150405060Y-62325144D01*
X150391686Y-62308451D01*
X150338653Y-62258650D01*
X150335841Y-62255925D01*
X150315505Y-62235589D01*
X150315504Y-62235588D01*
X150315502Y-62235586D01*
X150312092Y-62232941D01*
X150303072Y-62225237D01*
X150269861Y-62194050D01*
X150251406Y-62183905D01*
X150234880Y-62173050D01*
X150218232Y-62160136D01*
X150176427Y-62142045D01*
X150165769Y-62136824D01*
X150125839Y-62114873D01*
X150105425Y-62109631D01*
X150086725Y-62103228D01*
X150067395Y-62094864D01*
X150022402Y-62087737D01*
X150010782Y-62085331D01*
X149966647Y-62074000D01*
X149945585Y-62074000D01*
X149925874Y-62072449D01*
X149924558Y-62072240D01*
X149905065Y-62069153D01*
X149905064Y-62069153D01*
X149859705Y-62073441D01*
X149847847Y-62074000D01*
X149038984Y-62074000D01*
X148994304Y-62065812D01*
X148955431Y-62042312D01*
X148877314Y-61973106D01*
X148863830Y-61966029D01*
X148726685Y-61894049D01*
X148561516Y-61853339D01*
X148391404Y-61853339D01*
X148240033Y-61890648D01*
X148175312Y-61889474D01*
X148119714Y-61856321D01*
X148087915Y-61799939D01*
X148088306Y-61735208D01*
X148120783Y-61679216D01*
X148265813Y-61534186D01*
X148303643Y-61508183D01*
X148348278Y-61497459D01*
X150200000Y-61400000D01*
X153884852Y-57909088D01*
X153963552Y-57834530D01*
X154003567Y-57808950D01*
X154050208Y-57800000D01*
X156157987Y-57800000D01*
X156220987Y-57816881D01*
G37*
%TD.AperFunction*%
%TA.AperFunction,Conductor*%
G36*
X160126582Y-57360091D02*
G01*
X160167459Y-57387405D01*
X161279409Y-58499355D01*
X161292783Y-58516047D01*
X161294796Y-58517938D01*
X161294798Y-58517940D01*
X161330472Y-58551440D01*
X161345815Y-58565848D01*
X161348626Y-58568572D01*
X161368964Y-58588910D01*
X161368965Y-58588911D01*
X161372375Y-58591556D01*
X161381393Y-58599258D01*
X161414607Y-58630448D01*
X161433069Y-58640597D01*
X161449591Y-58651451D01*
X161466234Y-58664361D01*
X161466235Y-58664361D01*
X161466236Y-58664362D01*
X161508048Y-58682455D01*
X161518693Y-58687670D01*
X161558632Y-58709627D01*
X161579044Y-58714867D01*
X161597738Y-58721267D01*
X161617074Y-58729635D01*
X161662075Y-58736762D01*
X161673669Y-58739162D01*
X161717823Y-58750500D01*
X161738885Y-58750500D01*
X161758596Y-58752051D01*
X161779405Y-58755347D01*
X161824764Y-58751059D01*
X161836623Y-58750500D01*
X162591006Y-58750500D01*
X162654719Y-58767795D01*
X162700940Y-58814933D01*
X162716982Y-58878973D01*
X162698439Y-58942334D01*
X162657145Y-58981264D01*
X162657150Y-58981270D01*
X162657076Y-58981330D01*
X162650403Y-58987622D01*
X162647555Y-58989144D01*
X162607375Y-59022119D01*
X162532896Y-59083243D01*
X162526852Y-59088203D01*
X162489366Y-59109439D01*
X162446918Y-59116804D01*
X161721436Y-59116804D01*
X161721426Y-59116805D01*
X161686411Y-59116805D01*
X161641146Y-59131511D01*
X161595880Y-59146219D01*
X161518871Y-59202169D01*
X161462919Y-59279178D01*
X161433505Y-59369707D01*
X161433506Y-59417304D01*
X161433506Y-59534234D01*
X161420297Y-59590397D01*
X161383438Y-59634784D01*
X161330658Y-59658089D01*
X161115745Y-59698263D01*
X161094665Y-59706429D01*
X161025997Y-59712790D01*
X160964265Y-59682050D01*
X160927962Y-59623416D01*
X160927962Y-59554454D01*
X160977166Y-59381522D01*
X160978064Y-59371828D01*
X159960502Y-59371828D01*
X159897502Y-59354947D01*
X159851383Y-59308828D01*
X159834502Y-59245828D01*
X159834502Y-58989828D01*
X159851383Y-58926828D01*
X159897502Y-58880709D01*
X159960502Y-58863828D01*
X160978063Y-58863828D01*
X160978063Y-58863827D01*
X160977165Y-58854132D01*
X160918435Y-58647716D01*
X160822777Y-58455609D01*
X160693446Y-58284347D01*
X160534844Y-58139762D01*
X160352387Y-58026789D01*
X160152265Y-57949262D01*
X159937350Y-57909088D01*
X159884570Y-57885783D01*
X159847711Y-57841396D01*
X159834502Y-57785233D01*
X159834502Y-57592453D01*
X159834493Y-57592409D01*
X159834494Y-57569713D01*
X159816857Y-57515430D01*
X159812244Y-57456788D01*
X159834756Y-57402438D01*
X159879490Y-57364233D01*
X159936692Y-57350500D01*
X160078364Y-57350500D01*
X160126582Y-57360091D01*
G37*
%TD.AperFunction*%
%TD*%
%TA.AperFunction,Conductor*%
%TO.N,GND*%
G36*
X155135450Y-87192821D02*
G01*
X155185609Y-87223559D01*
X156311838Y-88349789D01*
X156311840Y-88349789D01*
X156443186Y-88135453D01*
X156467304Y-88077228D01*
X156501079Y-88030326D01*
X156552241Y-88003439D01*
X156610025Y-88002223D01*
X156662269Y-88026932D01*
X156702045Y-88058652D01*
X156803663Y-88107587D01*
X156854362Y-88119158D01*
X156913621Y-88132683D01*
X156913621Y-88132682D01*
X156913622Y-88132683D01*
X156970015Y-88132681D01*
X156970515Y-88132681D01*
X157022694Y-88132681D01*
X157022709Y-88132678D01*
X157622081Y-88132678D01*
X157682050Y-88147864D01*
X157727562Y-88189761D01*
X157817854Y-88327963D01*
X157986274Y-88510916D01*
X158182509Y-88663652D01*
X158401208Y-88782006D01*
X158636404Y-88862749D01*
X158881683Y-88903678D01*
X159130350Y-88903678D01*
X159130353Y-88903678D01*
X159375632Y-88862749D01*
X159610828Y-88782006D01*
X159829527Y-88663652D01*
X160025762Y-88510916D01*
X160194182Y-88327963D01*
X160330191Y-88119785D01*
X160384244Y-87996556D01*
X160424012Y-87946385D01*
X160483307Y-87922234D01*
X160546816Y-87930341D01*
X160598140Y-87968612D01*
X160607212Y-87979987D01*
X160613868Y-87988334D01*
X160702042Y-88058650D01*
X160702046Y-88058653D01*
X160803664Y-88107588D01*
X160913624Y-88132683D01*
X160913624Y-88132682D01*
X160913625Y-88132683D01*
X160941820Y-88132682D01*
X160970017Y-88132681D01*
X160970517Y-88132681D01*
X161022696Y-88132681D01*
X161022711Y-88132678D01*
X161496586Y-88132678D01*
X161558152Y-88148744D01*
X161604019Y-88192844D01*
X161700194Y-88349789D01*
X161700195Y-88349789D01*
X161880404Y-88169582D01*
X161921281Y-88142269D01*
X161969499Y-88132678D01*
X162331537Y-88132678D01*
X162388740Y-88146411D01*
X162433473Y-88184617D01*
X162455986Y-88238967D01*
X162451370Y-88297614D01*
X162420632Y-88347774D01*
X162059405Y-88708999D01*
X162273745Y-88840347D01*
X162507580Y-88937205D01*
X162753693Y-88996291D01*
X163006018Y-89016149D01*
X163258342Y-88996291D01*
X163504455Y-88937205D01*
X163738295Y-88840345D01*
X163952629Y-88709000D01*
X163952629Y-88708998D01*
X163007423Y-87763792D01*
X162980109Y-87722915D01*
X162970518Y-87674697D01*
X162970518Y-87312658D01*
X162984251Y-87255455D01*
X163022457Y-87210722D01*
X163076807Y-87188209D01*
X163135454Y-87192825D01*
X163185613Y-87223563D01*
X164311838Y-88349789D01*
X164311840Y-88349789D01*
X164443186Y-88135453D01*
X164467304Y-88077228D01*
X164501079Y-88030326D01*
X164552240Y-88003439D01*
X164610024Y-88002223D01*
X164662272Y-88026934D01*
X164702047Y-88058653D01*
X164803666Y-88107588D01*
X164803667Y-88107588D01*
X164803669Y-88107589D01*
X164913622Y-88132683D01*
X164913624Y-88132682D01*
X164913625Y-88132683D01*
X164970019Y-88132681D01*
X164970519Y-88132681D01*
X165022698Y-88132681D01*
X165022713Y-88132678D01*
X171439601Y-88132678D01*
X171487819Y-88142269D01*
X171528696Y-88169582D01*
X171862618Y-88503503D01*
X171889932Y-88544381D01*
X171899523Y-88592599D01*
X171899523Y-90389547D01*
X171889932Y-90437765D01*
X171862618Y-90478643D01*
X171596483Y-90744776D01*
X171555606Y-90772089D01*
X171507388Y-90781680D01*
X171125183Y-90781680D01*
X171124977Y-90781639D01*
X171100023Y-90781639D01*
X171099926Y-90781679D01*
X171099721Y-90781764D01*
X171099643Y-90781795D01*
X171099642Y-90781797D01*
X171099484Y-90782180D01*
X171099501Y-90807194D01*
X171099496Y-90807194D01*
X171099525Y-90807338D01*
X171099525Y-92362061D01*
X171083993Y-92422665D01*
X171041226Y-92468327D01*
X170981768Y-92487791D01*
X170963118Y-92489013D01*
X170666379Y-92548038D01*
X170379894Y-92645286D01*
X170108539Y-92779104D01*
X169856982Y-92947189D01*
X169820889Y-92978840D01*
X171062620Y-94220570D01*
X171089934Y-94261447D01*
X171099525Y-94309665D01*
X171099525Y-94671704D01*
X171085792Y-94728907D01*
X171047586Y-94773640D01*
X171026973Y-94782178D01*
X171047586Y-94790716D01*
X171085792Y-94835449D01*
X171099525Y-94892652D01*
X171099525Y-95254691D01*
X171089934Y-95302909D01*
X171062620Y-95343787D01*
X169820890Y-96585514D01*
X169820890Y-96585515D01*
X169856980Y-96617165D01*
X170108539Y-96785251D01*
X170379894Y-96919069D01*
X170666379Y-97016317D01*
X170963118Y-97075342D01*
X170981768Y-97076565D01*
X171041226Y-97096029D01*
X171083993Y-97141691D01*
X171099525Y-97202295D01*
X171099525Y-98757027D01*
X171099484Y-98757233D01*
X171099484Y-98782185D01*
X171099525Y-98782284D01*
X171099642Y-98782568D01*
X171100025Y-98782726D01*
X171100027Y-98782724D01*
X171125039Y-98782709D01*
X171125039Y-98782713D01*
X171125183Y-98782685D01*
X171472408Y-98782685D01*
X171520626Y-98792276D01*
X171561503Y-98819589D01*
X171862618Y-99120703D01*
X171889932Y-99161581D01*
X171899523Y-99209799D01*
X171899523Y-114218003D01*
X171889932Y-114266221D01*
X171862618Y-114307099D01*
X171424927Y-114744789D01*
X171384050Y-114772102D01*
X171335832Y-114781693D01*
X171125183Y-114781693D01*
X171124977Y-114781652D01*
X171100023Y-114781652D01*
X171099926Y-114781692D01*
X171099721Y-114781777D01*
X171099643Y-114781808D01*
X171099642Y-114781810D01*
X171099484Y-114782193D01*
X171099501Y-114807207D01*
X171099496Y-114807207D01*
X171099525Y-114807351D01*
X171099525Y-116383759D01*
X171086531Y-116439487D01*
X171050229Y-116483722D01*
X170998106Y-116507338D01*
X170793379Y-116548060D01*
X170506894Y-116645308D01*
X170235539Y-116779126D01*
X169983982Y-116947211D01*
X169947889Y-116978862D01*
X171062620Y-118093592D01*
X171089934Y-118134469D01*
X171099525Y-118182687D01*
X171099525Y-118544726D01*
X171085792Y-118601929D01*
X171047586Y-118646662D01*
X170993236Y-118669175D01*
X170934589Y-118664559D01*
X170884430Y-118633821D01*
X169588680Y-117338071D01*
X169557029Y-117374164D01*
X169388944Y-117625721D01*
X169255126Y-117897076D01*
X169157878Y-118183561D01*
X169098853Y-118480299D01*
X169079066Y-118782200D01*
X169098853Y-119084100D01*
X169157878Y-119380838D01*
X169255126Y-119667323D01*
X169388944Y-119938678D01*
X169557029Y-120190236D01*
X169588678Y-120226326D01*
X169588681Y-120226326D01*
X170884430Y-118930579D01*
X170934589Y-118899841D01*
X170993236Y-118895225D01*
X171047586Y-118917738D01*
X171085792Y-118962471D01*
X171099525Y-119019674D01*
X171099525Y-119381713D01*
X171089934Y-119429931D01*
X171062620Y-119470809D01*
X169947890Y-120585536D01*
X169947890Y-120585537D01*
X169983980Y-120617187D01*
X170235539Y-120785273D01*
X170506894Y-120919091D01*
X170793379Y-121016339D01*
X170998106Y-121057062D01*
X171050229Y-121080678D01*
X171086531Y-121124913D01*
X171099525Y-121180641D01*
X171099525Y-122757040D01*
X171099484Y-122757246D01*
X171099484Y-122782198D01*
X171099525Y-122782297D01*
X171099642Y-122782581D01*
X171100025Y-122782739D01*
X171100027Y-122782737D01*
X171125039Y-122782722D01*
X171125039Y-122782726D01*
X171125183Y-122782698D01*
X171469421Y-122782698D01*
X171517639Y-122792289D01*
X171558516Y-122819602D01*
X171862618Y-123123703D01*
X171889932Y-123164581D01*
X171899523Y-123212799D01*
X171899523Y-125009747D01*
X171889932Y-125057965D01*
X171862618Y-125098843D01*
X171566664Y-125394796D01*
X171525787Y-125422109D01*
X171477569Y-125431700D01*
X165022713Y-125431700D01*
X165022698Y-125431697D01*
X164970519Y-125431697D01*
X164970019Y-125431697D01*
X164917907Y-125431697D01*
X164917808Y-125431716D01*
X164913629Y-125431716D01*
X164913628Y-125431716D01*
X164803670Y-125456809D01*
X164702053Y-125505741D01*
X164702051Y-125505742D01*
X164702052Y-125505742D01*
X164623298Y-125568542D01*
X164571687Y-125593113D01*
X164514530Y-125592352D01*
X164463591Y-125566416D01*
X164429355Y-125520642D01*
X164330191Y-125294571D01*
X164210649Y-125111597D01*
X164194184Y-125086395D01*
X164025762Y-124903440D01*
X163829528Y-124750705D01*
X163829527Y-124750704D01*
X163610828Y-124632350D01*
X163610827Y-124632349D01*
X163610824Y-124632348D01*
X163454030Y-124578521D01*
X163375632Y-124551607D01*
X163130353Y-124510678D01*
X162881683Y-124510678D01*
X162636404Y-124551607D01*
X162636401Y-124551607D01*
X162636401Y-124551608D01*
X162401211Y-124632348D01*
X162182507Y-124750705D01*
X161986273Y-124903440D01*
X161817851Y-125086395D01*
X161681844Y-125294570D01*
X161654761Y-125356314D01*
X161627233Y-125396015D01*
X161586789Y-125422438D01*
X161539374Y-125431700D01*
X161022711Y-125431700D01*
X161022696Y-125431697D01*
X160970517Y-125431697D01*
X160970017Y-125431697D01*
X160917893Y-125431697D01*
X160917809Y-125431713D01*
X160913627Y-125431713D01*
X160913626Y-125431713D01*
X160869641Y-125441750D01*
X160803664Y-125456807D01*
X160702051Y-125505739D01*
X160623298Y-125568540D01*
X160571687Y-125593112D01*
X160514530Y-125592352D01*
X160463591Y-125566415D01*
X160429355Y-125520643D01*
X160330191Y-125294571D01*
X160330189Y-125294568D01*
X160330189Y-125294567D01*
X160194184Y-125086395D01*
X160025762Y-124903440D01*
X159829528Y-124750705D01*
X159829527Y-124750704D01*
X159610828Y-124632350D01*
X159610827Y-124632349D01*
X159610824Y-124632348D01*
X159454030Y-124578521D01*
X159375632Y-124551607D01*
X159130353Y-124510678D01*
X158881683Y-124510678D01*
X158636404Y-124551607D01*
X158636401Y-124551607D01*
X158636401Y-124551608D01*
X158401211Y-124632348D01*
X158182507Y-124750705D01*
X157986273Y-124903440D01*
X157817851Y-125086395D01*
X157681844Y-125294570D01*
X157654761Y-125356314D01*
X157627233Y-125396015D01*
X157586789Y-125422438D01*
X157539374Y-125431700D01*
X157022709Y-125431700D01*
X157022694Y-125431697D01*
X156970515Y-125431697D01*
X156970015Y-125431697D01*
X156917883Y-125431697D01*
X156917809Y-125431711D01*
X156913625Y-125431711D01*
X156913624Y-125431711D01*
X156803665Y-125456805D01*
X156702048Y-125505739D01*
X156702044Y-125505742D01*
X156623297Y-125568538D01*
X156571686Y-125593110D01*
X156514529Y-125592349D01*
X156463590Y-125566413D01*
X156429355Y-125520642D01*
X156330191Y-125294571D01*
X156330189Y-125294568D01*
X156330189Y-125294567D01*
X156194184Y-125086395D01*
X156025762Y-124903440D01*
X155829528Y-124750705D01*
X155829527Y-124750704D01*
X155610828Y-124632350D01*
X155610827Y-124632349D01*
X155610824Y-124632348D01*
X155454030Y-124578521D01*
X155375632Y-124551607D01*
X155130353Y-124510678D01*
X154881683Y-124510678D01*
X154636404Y-124551607D01*
X154636401Y-124551607D01*
X154636401Y-124551608D01*
X154401211Y-124632348D01*
X154182507Y-124750705D01*
X153986273Y-124903440D01*
X153817851Y-125086395D01*
X153681844Y-125294570D01*
X153654761Y-125356314D01*
X153627233Y-125396015D01*
X153586789Y-125422438D01*
X153539374Y-125431700D01*
X153022707Y-125431700D01*
X153022692Y-125431697D01*
X152970513Y-125431697D01*
X152970013Y-125431697D01*
X152917874Y-125431697D01*
X152917809Y-125431710D01*
X152913621Y-125431710D01*
X152886131Y-125437983D01*
X152803660Y-125456804D01*
X152702046Y-125505737D01*
X152623296Y-125568535D01*
X152571685Y-125593107D01*
X152514528Y-125592346D01*
X152463589Y-125566410D01*
X152429353Y-125520638D01*
X152330191Y-125294571D01*
X152330189Y-125294568D01*
X152330189Y-125294567D01*
X152194184Y-125086395D01*
X152025762Y-124903440D01*
X151829528Y-124750705D01*
X151829527Y-124750704D01*
X151610828Y-124632350D01*
X151610827Y-124632349D01*
X151610824Y-124632348D01*
X151454030Y-124578521D01*
X151375632Y-124551607D01*
X151130353Y-124510678D01*
X150881683Y-124510678D01*
X150636404Y-124551607D01*
X150636401Y-124551607D01*
X150636401Y-124551608D01*
X150401211Y-124632348D01*
X150182507Y-124750705D01*
X149986273Y-124903440D01*
X149817851Y-125086395D01*
X149681844Y-125294570D01*
X149654761Y-125356314D01*
X149627233Y-125396015D01*
X149586789Y-125422438D01*
X149539374Y-125431700D01*
X149022704Y-125431700D01*
X149022689Y-125431697D01*
X148970510Y-125431697D01*
X148970010Y-125431697D01*
X148917863Y-125431697D01*
X148917808Y-125431708D01*
X148913618Y-125431708D01*
X148876965Y-125440072D01*
X148803658Y-125456803D01*
X148705790Y-125503933D01*
X148702057Y-125505731D01*
X148702042Y-125505738D01*
X148623297Y-125568533D01*
X148571686Y-125593106D01*
X148514528Y-125592346D01*
X148463589Y-125566409D01*
X148429352Y-125520635D01*
X148330191Y-125294571D01*
X148210649Y-125111597D01*
X148194184Y-125086395D01*
X148025762Y-124903440D01*
X147829528Y-124750705D01*
X147829527Y-124750704D01*
X147610828Y-124632350D01*
X147610827Y-124632349D01*
X147610824Y-124632348D01*
X147454030Y-124578521D01*
X147375632Y-124551607D01*
X147130353Y-124510678D01*
X146881683Y-124510678D01*
X146636404Y-124551607D01*
X146636401Y-124551607D01*
X146636401Y-124551608D01*
X146401211Y-124632348D01*
X146182507Y-124750705D01*
X145986273Y-124903440D01*
X145817851Y-125086395D01*
X145681844Y-125294570D01*
X145654761Y-125356314D01*
X145627233Y-125396015D01*
X145586789Y-125422438D01*
X145539374Y-125431700D01*
X145022702Y-125431700D01*
X145022687Y-125431697D01*
X144970508Y-125431697D01*
X144970008Y-125431697D01*
X144917853Y-125431697D01*
X144917808Y-125431706D01*
X144913615Y-125431706D01*
X144803657Y-125456802D01*
X144702040Y-125505736D01*
X144623296Y-125568531D01*
X144571685Y-125593104D01*
X144514528Y-125592344D01*
X144463588Y-125566407D01*
X144429351Y-125520634D01*
X144330191Y-125294571D01*
X144210649Y-125111597D01*
X144194184Y-125086395D01*
X144025762Y-124903440D01*
X143829528Y-124750705D01*
X143829527Y-124750704D01*
X143610828Y-124632350D01*
X143610827Y-124632349D01*
X143610824Y-124632348D01*
X143454030Y-124578521D01*
X143375632Y-124551607D01*
X143130353Y-124510678D01*
X142881683Y-124510678D01*
X142636404Y-124551607D01*
X142636401Y-124551607D01*
X142636401Y-124551608D01*
X142401211Y-124632348D01*
X142182507Y-124750705D01*
X141986273Y-124903440D01*
X141817851Y-125086395D01*
X141681844Y-125294570D01*
X141654761Y-125356314D01*
X141627233Y-125396015D01*
X141586789Y-125422438D01*
X141539374Y-125431700D01*
X141022700Y-125431700D01*
X141022685Y-125431697D01*
X140970506Y-125431697D01*
X140970006Y-125431697D01*
X140917843Y-125431697D01*
X140917808Y-125431704D01*
X140913613Y-125431704D01*
X140803657Y-125456799D01*
X140702039Y-125505734D01*
X140623296Y-125568529D01*
X140571684Y-125593102D01*
X140514527Y-125592342D01*
X140463587Y-125566405D01*
X140429350Y-125520632D01*
X140330191Y-125294571D01*
X140330189Y-125294568D01*
X140330189Y-125294567D01*
X140194184Y-125086395D01*
X140025762Y-124903440D01*
X139829528Y-124750705D01*
X139829527Y-124750704D01*
X139610828Y-124632350D01*
X139610827Y-124632349D01*
X139610824Y-124632348D01*
X139454030Y-124578521D01*
X139375632Y-124551607D01*
X139130353Y-124510678D01*
X138881683Y-124510678D01*
X138636404Y-124551607D01*
X138636401Y-124551607D01*
X138636401Y-124551608D01*
X138401211Y-124632348D01*
X138182507Y-124750705D01*
X137986273Y-124903440D01*
X137817851Y-125086395D01*
X137681844Y-125294570D01*
X137654761Y-125356314D01*
X137627233Y-125396015D01*
X137586789Y-125422438D01*
X137539374Y-125431700D01*
X137022698Y-125431700D01*
X137022683Y-125431697D01*
X136970504Y-125431697D01*
X136970004Y-125431697D01*
X136917833Y-125431697D01*
X136917808Y-125431702D01*
X136913610Y-125431702D01*
X136803652Y-125456797D01*
X136702037Y-125505732D01*
X136623294Y-125568526D01*
X136571683Y-125593099D01*
X136514525Y-125592339D01*
X136463586Y-125566402D01*
X136429348Y-125520627D01*
X136422819Y-125505742D01*
X136330191Y-125294571D01*
X136210649Y-125111597D01*
X136194184Y-125086395D01*
X136025762Y-124903440D01*
X135829528Y-124750705D01*
X135829527Y-124750704D01*
X135610828Y-124632350D01*
X135610827Y-124632349D01*
X135610824Y-124632348D01*
X135454030Y-124578521D01*
X135375632Y-124551607D01*
X135130353Y-124510678D01*
X134881683Y-124510678D01*
X134636404Y-124551607D01*
X134636401Y-124551607D01*
X134636401Y-124551608D01*
X134401211Y-124632348D01*
X134182507Y-124750705D01*
X133986273Y-124903440D01*
X133817851Y-125086395D01*
X133681844Y-125294570D01*
X133654761Y-125356314D01*
X133627233Y-125396015D01*
X133586789Y-125422438D01*
X133539374Y-125431700D01*
X133022696Y-125431700D01*
X133022681Y-125431697D01*
X132970502Y-125431697D01*
X132970002Y-125431697D01*
X132917823Y-125431697D01*
X132917808Y-125431700D01*
X132913608Y-125431700D01*
X132803652Y-125456796D01*
X132702034Y-125505731D01*
X132623295Y-125568524D01*
X132571683Y-125593098D01*
X132514525Y-125592338D01*
X132463585Y-125566401D01*
X132429348Y-125520627D01*
X132330191Y-125294571D01*
X132330189Y-125294568D01*
X132330189Y-125294567D01*
X132194184Y-125086395D01*
X132025762Y-124903440D01*
X131829528Y-124750705D01*
X131829527Y-124750704D01*
X131610828Y-124632350D01*
X131610827Y-124632349D01*
X131610824Y-124632348D01*
X131454030Y-124578521D01*
X131375632Y-124551607D01*
X131130353Y-124510678D01*
X130881683Y-124510678D01*
X130636404Y-124551607D01*
X130636401Y-124551607D01*
X130636401Y-124551608D01*
X130401211Y-124632348D01*
X130182507Y-124750705D01*
X129986273Y-124903440D01*
X129817851Y-125086395D01*
X129681844Y-125294570D01*
X129654761Y-125356314D01*
X129627233Y-125396015D01*
X129586789Y-125422438D01*
X129539374Y-125431700D01*
X125573421Y-125431700D01*
X125525203Y-125422109D01*
X125484325Y-125394795D01*
X125237401Y-125147870D01*
X125210088Y-125106993D01*
X125200497Y-125058775D01*
X125200497Y-123265369D01*
X125210088Y-123217151D01*
X125237402Y-123176274D01*
X125594073Y-122819603D01*
X125634950Y-122792289D01*
X125683168Y-122782698D01*
X125974840Y-122782698D01*
X125974983Y-122782726D01*
X125974984Y-122782722D01*
X125999995Y-122782737D01*
X125999998Y-122782739D01*
X126000381Y-122782581D01*
X126000498Y-122782297D01*
X126000539Y-122782198D01*
X126000539Y-122757246D01*
X126000498Y-122757040D01*
X126000498Y-121198745D01*
X126013492Y-121143017D01*
X126049794Y-121098782D01*
X126101917Y-121075166D01*
X126397656Y-121016339D01*
X126684141Y-120919091D01*
X126955496Y-120785273D01*
X127207055Y-120617187D01*
X127243144Y-120585537D01*
X127243144Y-120585535D01*
X126037403Y-119379795D01*
X126010089Y-119338918D01*
X126000498Y-119290700D01*
X126000498Y-118928661D01*
X126014231Y-118871458D01*
X126052437Y-118826725D01*
X126106787Y-118804212D01*
X126165434Y-118808828D01*
X126215593Y-118839566D01*
X127602353Y-120226326D01*
X127602355Y-120226326D01*
X127634005Y-120190237D01*
X127802091Y-119938678D01*
X127935909Y-119667323D01*
X128033157Y-119380838D01*
X128092182Y-119084100D01*
X128111969Y-118782200D01*
X128092182Y-118480299D01*
X128033157Y-118183561D01*
X127935909Y-117897076D01*
X127802091Y-117625721D01*
X127634005Y-117374162D01*
X127602355Y-117338072D01*
X127602353Y-117338072D01*
X126215593Y-118724834D01*
X126165434Y-118755572D01*
X126106787Y-118760188D01*
X126052437Y-118737675D01*
X126014231Y-118692942D01*
X126000498Y-118635739D01*
X126000498Y-118273700D01*
X126010089Y-118225482D01*
X126037403Y-118184605D01*
X127243144Y-116978863D01*
X127243144Y-116978860D01*
X127207054Y-116947211D01*
X126955496Y-116779126D01*
X126684141Y-116645308D01*
X126397656Y-116548060D01*
X126101917Y-116489234D01*
X126049794Y-116465618D01*
X126013492Y-116421383D01*
X126000498Y-116365655D01*
X126000498Y-114807351D01*
X126000526Y-114807207D01*
X126000522Y-114807207D01*
X126000537Y-114782195D01*
X126000539Y-114782193D01*
X126000381Y-114781810D01*
X126000379Y-114781809D01*
X126000378Y-114781808D01*
X126000303Y-114781777D01*
X126000094Y-114781691D01*
X126000000Y-114781652D01*
X125975046Y-114781652D01*
X125974840Y-114781693D01*
X125642214Y-114781693D01*
X125593996Y-114772102D01*
X125553118Y-114744788D01*
X125237401Y-114429070D01*
X125210088Y-114388193D01*
X125200497Y-114339975D01*
X125200497Y-112267169D01*
X125210088Y-112218951D01*
X125237402Y-112178074D01*
X125595879Y-111819597D01*
X125636756Y-111792283D01*
X125684974Y-111782692D01*
X125975062Y-111782692D01*
X126036816Y-111798863D01*
X126082719Y-111843225D01*
X126225019Y-112077229D01*
X126410680Y-112305435D01*
X126410682Y-112305437D01*
X126410683Y-112305438D01*
X126625692Y-112506243D01*
X126866042Y-112675900D01*
X127127254Y-112811250D01*
X127404464Y-112909770D01*
X127692507Y-112969626D01*
X127818249Y-112978227D01*
X127912553Y-112984678D01*
X127912556Y-112984678D01*
X131559480Y-112984678D01*
X131559483Y-112984678D01*
X131641998Y-112979033D01*
X131779529Y-112969626D01*
X132067572Y-112909770D01*
X132344782Y-112811250D01*
X132605994Y-112675900D01*
X132846344Y-112506243D01*
X133055515Y-112310889D01*
X133105868Y-112282123D01*
X133163773Y-112278956D01*
X133216963Y-112302060D01*
X133254172Y-112346540D01*
X133267517Y-112402975D01*
X133267517Y-121059178D01*
X133281334Y-121164127D01*
X133298216Y-121227131D01*
X133338726Y-121324930D01*
X133403167Y-121408911D01*
X133449284Y-121455028D01*
X133533265Y-121519469D01*
X133533266Y-121519469D01*
X133533267Y-121519470D01*
X133631066Y-121559980D01*
X133694066Y-121576861D01*
X133799018Y-121590678D01*
X140242093Y-121590678D01*
X140299296Y-121604411D01*
X140344029Y-121642617D01*
X140366542Y-121696967D01*
X140361926Y-121755614D01*
X140331188Y-121805773D01*
X140065188Y-122071773D01*
X140024311Y-122099087D01*
X139976093Y-122108678D01*
X131306943Y-122108678D01*
X131258725Y-122099087D01*
X131217848Y-122071773D01*
X130627423Y-121481348D01*
X130600109Y-121440471D01*
X130590518Y-121392253D01*
X130590518Y-114856602D01*
X130596224Y-114819115D01*
X130612824Y-114785023D01*
X130613026Y-114784730D01*
X130614836Y-114782108D01*
X130675158Y-114623050D01*
X130695663Y-114454178D01*
X130675158Y-114285306D01*
X130614836Y-114126248D01*
X130518201Y-113986249D01*
X130390870Y-113873444D01*
X130240243Y-113794388D01*
X130075074Y-113753678D01*
X129904962Y-113753678D01*
X129739793Y-113794388D01*
X129722093Y-113803678D01*
X129589166Y-113873444D01*
X129461834Y-113986250D01*
X129365199Y-114126248D01*
X129304877Y-114285306D01*
X129284373Y-114454177D01*
X129304878Y-114623051D01*
X129365198Y-114782105D01*
X129367212Y-114785023D01*
X129383812Y-114819115D01*
X129389518Y-114856602D01*
X129389518Y-121645559D01*
X129388440Y-121662005D01*
X129384336Y-121693177D01*
X129389518Y-121732539D01*
X129404973Y-121849939D01*
X129465482Y-121996020D01*
X129561733Y-122121457D01*
X129561734Y-122121458D01*
X129561736Y-122121460D01*
X129586692Y-122140609D01*
X129599076Y-122151471D01*
X130547721Y-123100116D01*
X130558587Y-123112506D01*
X130577734Y-123137459D01*
X130703175Y-123233713D01*
X130703176Y-123233713D01*
X130703177Y-123233714D01*
X130849256Y-123294222D01*
X131006018Y-123314860D01*
X131037190Y-123310756D01*
X131053637Y-123309678D01*
X140229399Y-123309678D01*
X140245845Y-123310756D01*
X140277018Y-123314860D01*
X140433780Y-123294222D01*
X140579859Y-123233714D01*
X140579858Y-123233714D01*
X140579859Y-123233712D01*
X140618520Y-123217699D01*
X140642018Y-123186016D01*
X140705300Y-123137460D01*
X140724447Y-123112506D01*
X140735305Y-123100124D01*
X145295348Y-118540083D01*
X145336226Y-118512769D01*
X145384444Y-118503178D01*
X145609576Y-118503178D01*
X145663820Y-118515452D01*
X145707496Y-118549884D01*
X145732095Y-118599764D01*
X145732822Y-118655370D01*
X145715329Y-118737675D01*
X145701118Y-118804534D01*
X145701118Y-118993822D01*
X145740475Y-119178985D01*
X145817465Y-119351905D01*
X145928729Y-119505048D01*
X146069403Y-119631712D01*
X146233334Y-119726357D01*
X146413360Y-119784852D01*
X146483894Y-119792265D01*
X146554426Y-119799678D01*
X147265626Y-119799678D01*
X147360010Y-119799678D01*
X147976826Y-119799678D01*
X148071210Y-119799678D01*
X148789626Y-119799678D01*
X148884010Y-119799678D01*
X154456829Y-119799678D01*
X154505047Y-119809269D01*
X154545924Y-119836583D01*
X155849613Y-121140273D01*
X155876927Y-121181150D01*
X155886518Y-121229368D01*
X155886518Y-122502368D01*
X155901343Y-122643435D01*
X155959838Y-122823461D01*
X156054483Y-122987392D01*
X156167137Y-123112506D01*
X156181147Y-123128066D01*
X156334288Y-123239329D01*
X156334289Y-123239329D01*
X156334290Y-123239330D01*
X156507210Y-123316320D01*
X156507215Y-123316322D01*
X156692372Y-123355678D01*
X156881662Y-123355678D01*
X156881664Y-123355678D01*
X157066821Y-123316322D01*
X157239748Y-123239329D01*
X157392889Y-123128066D01*
X157519551Y-122987394D01*
X157614197Y-122823462D01*
X157672692Y-122643434D01*
X157687518Y-122502370D01*
X157687518Y-120884964D01*
X157689069Y-120865255D01*
X157689256Y-120864067D01*
X157691237Y-120851566D01*
X157687691Y-120783899D01*
X157687518Y-120777305D01*
X157687518Y-120756991D01*
X157687518Y-120756986D01*
X157685390Y-120736746D01*
X157684877Y-120730217D01*
X157681331Y-120662533D01*
X157677740Y-120649134D01*
X157674140Y-120629701D01*
X157672692Y-120615922D01*
X157662819Y-120585536D01*
X157651748Y-120551464D01*
X157649877Y-120545147D01*
X157632338Y-120479689D01*
X157626048Y-120467346D01*
X157618477Y-120449068D01*
X157614197Y-120435894D01*
X157580309Y-120377199D01*
X157577161Y-120371400D01*
X157546402Y-120311030D01*
X157537677Y-120300256D01*
X157526477Y-120283959D01*
X157519549Y-120271958D01*
X157474204Y-120221599D01*
X157469935Y-120216601D01*
X157457138Y-120200798D01*
X157457136Y-120200796D01*
X157457132Y-120200791D01*
X157442777Y-120186436D01*
X157438237Y-120181652D01*
X157392891Y-120131291D01*
X157381676Y-120123143D01*
X157366642Y-120110302D01*
X155575895Y-118319556D01*
X155563055Y-118304524D01*
X155554906Y-118293307D01*
X155504530Y-118247948D01*
X155499747Y-118243408D01*
X155485401Y-118229062D01*
X155485398Y-118229059D01*
X155469617Y-118216279D01*
X155464608Y-118212001D01*
X155433021Y-118183561D01*
X155414234Y-118166645D01*
X155414231Y-118166643D01*
X155402228Y-118159713D01*
X155385936Y-118148516D01*
X155375167Y-118139795D01*
X155364714Y-118134469D01*
X155314777Y-118109024D01*
X155308981Y-118105877D01*
X155250302Y-118071998D01*
X155237121Y-118067716D01*
X155218854Y-118060150D01*
X155206506Y-118053858D01*
X155206505Y-118053857D01*
X155206502Y-118053856D01*
X155141040Y-118036315D01*
X155134722Y-118034443D01*
X155126627Y-118031813D01*
X155070275Y-118013503D01*
X155056491Y-118012055D01*
X155037052Y-118008452D01*
X155023663Y-118004864D01*
X154955983Y-118001317D01*
X154949415Y-118000800D01*
X154929215Y-117998678D01*
X154929210Y-117998678D01*
X154908892Y-117998678D01*
X154902298Y-117998505D01*
X154834630Y-117994959D01*
X154820941Y-117997127D01*
X154801232Y-117998678D01*
X149759943Y-117998678D01*
X149702740Y-117984945D01*
X149658007Y-117946739D01*
X149635494Y-117892389D01*
X149640110Y-117833742D01*
X149670848Y-117783583D01*
X151429254Y-116025177D01*
X162892373Y-116025177D01*
X162912877Y-116194049D01*
X162973199Y-116353107D01*
X162994357Y-116383759D01*
X163069835Y-116493107D01*
X163197166Y-116605912D01*
X163347793Y-116684968D01*
X163512962Y-116725678D01*
X163683072Y-116725678D01*
X163683074Y-116725678D01*
X163848243Y-116684968D01*
X163998870Y-116605912D01*
X164126201Y-116493107D01*
X164222836Y-116353108D01*
X164283158Y-116194050D01*
X164303663Y-116025178D01*
X164283158Y-115856306D01*
X164256706Y-115786557D01*
X164248518Y-115741877D01*
X164248518Y-115428814D01*
X164258109Y-115380596D01*
X164285423Y-115339719D01*
X165038554Y-114586588D01*
X167317374Y-112307766D01*
X167334063Y-112294396D01*
X167335953Y-112292382D01*
X167335958Y-112292380D01*
X167383883Y-112241343D01*
X167386576Y-112238564D01*
X167406929Y-112218213D01*
X167409566Y-112214812D01*
X167417275Y-112205784D01*
X167448466Y-112172571D01*
X167458620Y-112154099D01*
X167469463Y-112137592D01*
X167482380Y-112120942D01*
X167500474Y-112079127D01*
X167505693Y-112068475D01*
X167519415Y-112043515D01*
X167527645Y-112028546D01*
X167532889Y-112008120D01*
X167539288Y-111989432D01*
X167547653Y-111970104D01*
X167554778Y-111925114D01*
X167557183Y-111913495D01*
X167568518Y-111869355D01*
X167568518Y-111848293D01*
X167570069Y-111828582D01*
X167571492Y-111819597D01*
X167573365Y-111807773D01*
X167569077Y-111762413D01*
X167568518Y-111750555D01*
X167568518Y-111470479D01*
X167576706Y-111425799D01*
X167583963Y-111406663D01*
X167603158Y-111356050D01*
X167623663Y-111187178D01*
X167603158Y-111018306D01*
X167542836Y-110859248D01*
X167446201Y-110719249D01*
X167318870Y-110606444D01*
X167168243Y-110527388D01*
X167003074Y-110486678D01*
X166832962Y-110486678D01*
X166667793Y-110527388D01*
X166517166Y-110606444D01*
X166426147Y-110687080D01*
X166389834Y-110719250D01*
X166293199Y-110859248D01*
X166232877Y-111018306D01*
X166212373Y-111187178D01*
X166232878Y-111356051D01*
X166257972Y-111422220D01*
X166266134Y-111469437D01*
X166256077Y-111516287D01*
X166229255Y-111555994D01*
X163198660Y-114586588D01*
X163181965Y-114599965D01*
X163132182Y-114652978D01*
X163129432Y-114655816D01*
X163109106Y-114676142D01*
X163106457Y-114679558D01*
X163098760Y-114688569D01*
X163067569Y-114721785D01*
X163057422Y-114740243D01*
X163046572Y-114756761D01*
X163033656Y-114773413D01*
X163015564Y-114815220D01*
X163010344Y-114825875D01*
X162988390Y-114865809D01*
X162983148Y-114886226D01*
X162976746Y-114904924D01*
X162968382Y-114924253D01*
X162961255Y-114969247D01*
X162958849Y-114980867D01*
X162947518Y-115025001D01*
X162947518Y-115046063D01*
X162945967Y-115065774D01*
X162942671Y-115086583D01*
X162946959Y-115131943D01*
X162947518Y-115143801D01*
X162947518Y-115741877D01*
X162939330Y-115786557D01*
X162912877Y-115856306D01*
X162892373Y-116025177D01*
X151429254Y-116025177D01*
X153660344Y-113794087D01*
X157680036Y-109774394D01*
X157738976Y-109741152D01*
X157753071Y-109737678D01*
X157753074Y-109737678D01*
X157918243Y-109696968D01*
X158068870Y-109617912D01*
X158196201Y-109505107D01*
X158292836Y-109365108D01*
X158353158Y-109206050D01*
X158373663Y-109037178D01*
X158353158Y-108868306D01*
X158292836Y-108709248D01*
X158196201Y-108569249D01*
X158068870Y-108456444D01*
X157918243Y-108377388D01*
X157753074Y-108336678D01*
X157582962Y-108336678D01*
X157417793Y-108377388D01*
X157267166Y-108456444D01*
X157182450Y-108531496D01*
X157139833Y-108569251D01*
X157085343Y-108648192D01*
X157031035Y-108692533D01*
X156961436Y-108700983D01*
X156898095Y-108670927D01*
X156768872Y-108556445D01*
X156731209Y-108536678D01*
X156618243Y-108477388D01*
X156453074Y-108436678D01*
X156282962Y-108436678D01*
X156117793Y-108477388D01*
X155967166Y-108556444D01*
X155903733Y-108612641D01*
X155839834Y-108669250D01*
X155743199Y-108809248D01*
X155679441Y-108977367D01*
X155671612Y-109003892D01*
X155647424Y-109037824D01*
X148410453Y-116274795D01*
X148379915Y-116297266D01*
X148267168Y-116356442D01*
X148193865Y-116421383D01*
X148173430Y-116439487D01*
X148139834Y-116469250D01*
X148043199Y-116609248D01*
X147982877Y-116768306D01*
X147962373Y-116937178D01*
X147982878Y-117106051D01*
X147992529Y-117131499D01*
X147999798Y-117191366D01*
X147978413Y-117247755D01*
X147933272Y-117287746D01*
X147874717Y-117302178D01*
X145131137Y-117302178D01*
X145114691Y-117301100D01*
X145083518Y-117296996D01*
X145044157Y-117302178D01*
X144926756Y-117317633D01*
X144818042Y-117362664D01*
X144793735Y-117372733D01*
X144733168Y-117381717D01*
X144675516Y-117361089D01*
X144634396Y-117315720D01*
X144619518Y-117256324D01*
X144619518Y-112659965D01*
X144635770Y-112598067D01*
X144680333Y-112552137D01*
X144741712Y-112534022D01*
X144804071Y-112548396D01*
X144852793Y-112573968D01*
X145017962Y-112614678D01*
X145188072Y-112614678D01*
X145188074Y-112614678D01*
X145353243Y-112573968D01*
X145503870Y-112494912D01*
X145631201Y-112382107D01*
X145727836Y-112242108D01*
X145781486Y-112100640D01*
X145810201Y-112056228D01*
X148091847Y-109774583D01*
X148132725Y-109747269D01*
X148180943Y-109737678D01*
X153820399Y-109737678D01*
X153836845Y-109738756D01*
X153868018Y-109742860D01*
X154024780Y-109722222D01*
X154170859Y-109661714D01*
X154222326Y-109622222D01*
X154296300Y-109565460D01*
X154315444Y-109540508D01*
X154326305Y-109528124D01*
X156880036Y-106974394D01*
X156938976Y-106941152D01*
X156953071Y-106937678D01*
X156953074Y-106937678D01*
X157118243Y-106896968D01*
X157268870Y-106817912D01*
X157396201Y-106705107D01*
X157492836Y-106565108D01*
X157520962Y-106490943D01*
X157561065Y-106436442D01*
X157623584Y-106410545D01*
X157690484Y-106420726D01*
X157742469Y-106464049D01*
X157743200Y-106465108D01*
X157839835Y-106605107D01*
X157967166Y-106717912D01*
X158117793Y-106796968D01*
X158282962Y-106837678D01*
X158453072Y-106837678D01*
X158453074Y-106837678D01*
X158618243Y-106796968D01*
X158768870Y-106717912D01*
X158896201Y-106605107D01*
X158992836Y-106465108D01*
X159053158Y-106306050D01*
X159073663Y-106137178D01*
X159073662Y-106137177D01*
X159075507Y-106121990D01*
X159077726Y-106122259D01*
X159082057Y-106086587D01*
X159116317Y-106036954D01*
X159169713Y-106008929D01*
X159218243Y-105996968D01*
X159368870Y-105917912D01*
X159496201Y-105805107D01*
X159592836Y-105665108D01*
X159653158Y-105506050D01*
X159659460Y-105454141D01*
X159680845Y-105397755D01*
X159725986Y-105357763D01*
X159784541Y-105343330D01*
X159843093Y-105357762D01*
X159917793Y-105396968D01*
X160058190Y-105431572D01*
X160117130Y-105464815D01*
X162320577Y-107668262D01*
X162323567Y-107671355D01*
X162367338Y-107718222D01*
X162402350Y-107739513D01*
X162413015Y-107746772D01*
X162445676Y-107771539D01*
X162462207Y-107778058D01*
X162481447Y-107787613D01*
X162496636Y-107796850D01*
X162514083Y-107801738D01*
X162536105Y-107807909D01*
X162548323Y-107812017D01*
X162586454Y-107827054D01*
X162603150Y-107828770D01*
X162604128Y-107828871D01*
X162625235Y-107832882D01*
X162642353Y-107837678D01*
X162683338Y-107837678D01*
X162696223Y-107838339D01*
X162698960Y-107838620D01*
X162736990Y-107842530D01*
X162751563Y-107840017D01*
X162754507Y-107839510D01*
X162775914Y-107837678D01*
X163035254Y-107837678D01*
X163079935Y-107845866D01*
X163111370Y-107864869D01*
X163117163Y-107867909D01*
X163117166Y-107867912D01*
X163267793Y-107946968D01*
X163432962Y-107987678D01*
X163603072Y-107987678D01*
X163603074Y-107987678D01*
X163768243Y-107946968D01*
X163918870Y-107867912D01*
X164046201Y-107755107D01*
X164142836Y-107615108D01*
X164203158Y-107456050D01*
X164223663Y-107287178D01*
X164203158Y-107118306D01*
X164142836Y-106959248D01*
X164046201Y-106819249D01*
X163918870Y-106706444D01*
X163768243Y-106627388D01*
X163603074Y-106586678D01*
X163432962Y-106586678D01*
X163267793Y-106627388D01*
X163154061Y-106687080D01*
X163111370Y-106709486D01*
X163079935Y-106728490D01*
X163035254Y-106736678D01*
X162998233Y-106736678D01*
X162950015Y-106727087D01*
X162909138Y-106699773D01*
X161612138Y-105402773D01*
X161581400Y-105352614D01*
X161576784Y-105293967D01*
X161599297Y-105239617D01*
X161644030Y-105201411D01*
X161701233Y-105187678D01*
X161853072Y-105187678D01*
X161853074Y-105187678D01*
X162018243Y-105146968D01*
X162168870Y-105067912D01*
X162168872Y-105067909D01*
X162180942Y-105061575D01*
X162229359Y-105047551D01*
X162279398Y-105053626D01*
X162323048Y-105078827D01*
X162367166Y-105117912D01*
X162517793Y-105196968D01*
X162682962Y-105237678D01*
X162853072Y-105237678D01*
X162853074Y-105237678D01*
X163018243Y-105196968D01*
X163168870Y-105117912D01*
X163292910Y-105008022D01*
X163348777Y-104979415D01*
X163411516Y-104981311D01*
X163465556Y-105013241D01*
X165570577Y-107118262D01*
X165573567Y-107121355D01*
X165617338Y-107168222D01*
X165652350Y-107189513D01*
X165663015Y-107196772D01*
X165695676Y-107221539D01*
X165712207Y-107228058D01*
X165731447Y-107237613D01*
X165746636Y-107246850D01*
X165764083Y-107251738D01*
X165786105Y-107257909D01*
X165798323Y-107262017D01*
X165836454Y-107277054D01*
X165851259Y-107278576D01*
X165854128Y-107278871D01*
X165875235Y-107282882D01*
X165892353Y-107287678D01*
X165933338Y-107287678D01*
X165946223Y-107288339D01*
X165946515Y-107288369D01*
X165986990Y-107292530D01*
X166001563Y-107290017D01*
X166004507Y-107289510D01*
X166025914Y-107287678D01*
X166993381Y-107287678D01*
X167050584Y-107301411D01*
X167095317Y-107339617D01*
X167117830Y-107393967D01*
X167113214Y-107452614D01*
X167082476Y-107502773D01*
X160818477Y-113766773D01*
X160777600Y-113794087D01*
X160729382Y-113803678D01*
X155181000Y-113803678D01*
X155147731Y-113795478D01*
X155147098Y-113798050D01*
X155132245Y-113794389D01*
X155132243Y-113794388D01*
X154967074Y-113753678D01*
X154796962Y-113753678D01*
X154631793Y-113794388D01*
X154614093Y-113803678D01*
X154481166Y-113873444D01*
X154353834Y-113986250D01*
X154257199Y-114126248D01*
X154196877Y-114285306D01*
X154176373Y-114454178D01*
X154196877Y-114623049D01*
X154257199Y-114782107D01*
X154259212Y-114785023D01*
X154353835Y-114922107D01*
X154481166Y-115034912D01*
X154631793Y-115113968D01*
X154796962Y-115154678D01*
X154967072Y-115154678D01*
X154967074Y-115154678D01*
X155132243Y-115113968D01*
X155132245Y-115113966D01*
X155147098Y-115110306D01*
X155147731Y-115112877D01*
X155181000Y-115104678D01*
X160965292Y-115104678D01*
X160986551Y-115107024D01*
X160989310Y-115106937D01*
X160989314Y-115106938D01*
X161059248Y-115104739D01*
X161063206Y-115104678D01*
X161091937Y-115104678D01*
X161091943Y-115104678D01*
X161096228Y-115104136D01*
X161108050Y-115103205D01*
X161153587Y-115101775D01*
X161165196Y-115098401D01*
X161173809Y-115095900D01*
X161193174Y-115091889D01*
X161214076Y-115089249D01*
X161256447Y-115072472D01*
X161267655Y-115068634D01*
X161311416Y-115055922D01*
X161329547Y-115045198D01*
X161347298Y-115036501D01*
X161366889Y-115028746D01*
X161403746Y-115001967D01*
X161413663Y-114995454D01*
X161452880Y-114972261D01*
X161452880Y-114972260D01*
X161452883Y-114972259D01*
X161467782Y-114957359D01*
X161482810Y-114944523D01*
X161499855Y-114932141D01*
X161528908Y-114897019D01*
X161536877Y-114888263D01*
X168667374Y-107757766D01*
X168684063Y-107744396D01*
X168685953Y-107742382D01*
X168685958Y-107742380D01*
X168733883Y-107691343D01*
X168736576Y-107688564D01*
X168756929Y-107668213D01*
X168759566Y-107664812D01*
X168767275Y-107655784D01*
X168798466Y-107622571D01*
X168808615Y-107604108D01*
X168819473Y-107587580D01*
X168832380Y-107570942D01*
X168850474Y-107529124D01*
X168855687Y-107518484D01*
X168877645Y-107478546D01*
X168882886Y-107458128D01*
X168889284Y-107439440D01*
X168897653Y-107420105D01*
X168904778Y-107375111D01*
X168907187Y-107363483D01*
X168918518Y-107319354D01*
X168918518Y-107298287D01*
X168920069Y-107278576D01*
X168920310Y-107277054D01*
X168923364Y-107257773D01*
X168919076Y-107212421D01*
X168918518Y-107200564D01*
X168918518Y-104062403D01*
X168920864Y-104041143D01*
X168920777Y-104038384D01*
X168920778Y-104038381D01*
X168918579Y-103968446D01*
X168918518Y-103964489D01*
X168918518Y-103935755D01*
X168917977Y-103931474D01*
X168917045Y-103919632D01*
X168915615Y-103874108D01*
X168909737Y-103853877D01*
X168905729Y-103834521D01*
X168904019Y-103820983D01*
X168903089Y-103813620D01*
X168903088Y-103813617D01*
X168886315Y-103771253D01*
X168882475Y-103760040D01*
X168869762Y-103716279D01*
X168861087Y-103701610D01*
X168859039Y-103698147D01*
X168850340Y-103680391D01*
X168846018Y-103669477D01*
X168842586Y-103660807D01*
X168820824Y-103630854D01*
X168815806Y-103623947D01*
X168809295Y-103614035D01*
X168786099Y-103574813D01*
X168771200Y-103559914D01*
X168758365Y-103544886D01*
X168745981Y-103527841D01*
X168738833Y-103521928D01*
X168710873Y-103498797D01*
X168702093Y-103490807D01*
X167132002Y-101920716D01*
X167103286Y-101876303D01*
X167092836Y-101848748D01*
X166996201Y-101708749D01*
X166868870Y-101595944D01*
X166718243Y-101516888D01*
X166553074Y-101476178D01*
X166382962Y-101476178D01*
X166217793Y-101516888D01*
X166076352Y-101591123D01*
X166067166Y-101595944D01*
X165939834Y-101708750D01*
X165843199Y-101848748D01*
X165782877Y-102007806D01*
X165771443Y-102101980D01*
X165770186Y-102112337D01*
X165769599Y-102117168D01*
X165746752Y-102175630D01*
X165698533Y-102215815D01*
X165636910Y-102227750D01*
X165577175Y-102208474D01*
X165534152Y-102162770D01*
X165518518Y-102101980D01*
X165518518Y-97994797D01*
X165519596Y-97978351D01*
X165519691Y-97977622D01*
X165523700Y-97947178D01*
X165503062Y-97790416D01*
X165442554Y-97644337D01*
X165398694Y-97587178D01*
X165390013Y-97575865D01*
X165346299Y-97518894D01*
X165321346Y-97499747D01*
X165308955Y-97488880D01*
X163082203Y-95262128D01*
X163053486Y-95217713D01*
X162999836Y-95076248D01*
X162905370Y-94939392D01*
X162903201Y-94936249D01*
X162775870Y-94823444D01*
X162697243Y-94782177D01*
X168952066Y-94782177D01*
X168971853Y-95084078D01*
X169030878Y-95380816D01*
X169128126Y-95667301D01*
X169261944Y-95938656D01*
X169430029Y-96190214D01*
X169461678Y-96226304D01*
X169461681Y-96226304D01*
X170884430Y-94803557D01*
X170919316Y-94782177D01*
X170884430Y-94760799D01*
X169461680Y-93338049D01*
X169430029Y-93374142D01*
X169261944Y-93625699D01*
X169128126Y-93897054D01*
X169030878Y-94183539D01*
X168971853Y-94480277D01*
X168952066Y-94782177D01*
X162697243Y-94782177D01*
X162625243Y-94744388D01*
X162460074Y-94703678D01*
X162289962Y-94703678D01*
X162124793Y-94744388D01*
X162124791Y-94744388D01*
X162124791Y-94744389D01*
X162039326Y-94789245D01*
X161980770Y-94803678D01*
X157181266Y-94803678D01*
X157122710Y-94789245D01*
X157058510Y-94755550D01*
X157037243Y-94744388D01*
X156872074Y-94703678D01*
X156701962Y-94703678D01*
X156536793Y-94744388D01*
X156424057Y-94803557D01*
X156386166Y-94823444D01*
X156287579Y-94910784D01*
X156231710Y-94939392D01*
X156168970Y-94937496D01*
X156114931Y-94905566D01*
X155355696Y-94146331D01*
X155324958Y-94096172D01*
X155320342Y-94037525D01*
X155342855Y-93983175D01*
X155387588Y-93944969D01*
X155444791Y-93931236D01*
X166265356Y-93931236D01*
X166265499Y-93931264D01*
X166265500Y-93931260D01*
X166290511Y-93931275D01*
X166290514Y-93931277D01*
X166290897Y-93931119D01*
X166291014Y-93930835D01*
X166291055Y-93930736D01*
X166291055Y-93905784D01*
X166291014Y-93905578D01*
X166291014Y-90955895D01*
X166291042Y-90955751D01*
X166291038Y-90955751D01*
X166291053Y-90930739D01*
X166291055Y-90930737D01*
X166290897Y-90930354D01*
X166290895Y-90930353D01*
X166290894Y-90930352D01*
X166290819Y-90930321D01*
X166290610Y-90930235D01*
X166290516Y-90930196D01*
X166265562Y-90930196D01*
X166265356Y-90930237D01*
X155315674Y-90930237D01*
X155315468Y-90930196D01*
X155290514Y-90930196D01*
X155290417Y-90930236D01*
X155290212Y-90930321D01*
X155290134Y-90930352D01*
X155290133Y-90930354D01*
X155289975Y-90930737D01*
X155289992Y-90955751D01*
X155289987Y-90955751D01*
X155290016Y-90955895D01*
X155290016Y-93776461D01*
X155276283Y-93833664D01*
X155238077Y-93878397D01*
X155183727Y-93900910D01*
X155125080Y-93896294D01*
X155074921Y-93865556D01*
X151707437Y-90498072D01*
X151680123Y-90457195D01*
X151670532Y-90408977D01*
X151670532Y-88824776D01*
X151688291Y-88760279D01*
X151736562Y-88713963D01*
X151772552Y-88694485D01*
X151829527Y-88663652D01*
X152025762Y-88510916D01*
X152194182Y-88327963D01*
X152330191Y-88119785D01*
X152384243Y-87996558D01*
X152424013Y-87946386D01*
X152483308Y-87922235D01*
X152546817Y-87930342D01*
X152598141Y-87968614D01*
X152613864Y-87988330D01*
X152702044Y-88058651D01*
X152803661Y-88107587D01*
X152913620Y-88132682D01*
X152970013Y-88132681D01*
X152970513Y-88132681D01*
X153022692Y-88132681D01*
X153022707Y-88132678D01*
X153496586Y-88132678D01*
X153558152Y-88148744D01*
X153604019Y-88192844D01*
X153700194Y-88349789D01*
X153700195Y-88349789D01*
X153880404Y-88169582D01*
X153921281Y-88142269D01*
X153969499Y-88132678D01*
X154331537Y-88132678D01*
X154388740Y-88146411D01*
X154433473Y-88184617D01*
X154455986Y-88238967D01*
X154451370Y-88297614D01*
X154420632Y-88347774D01*
X154059405Y-88708999D01*
X154273745Y-88840347D01*
X154507580Y-88937205D01*
X154753693Y-88996291D01*
X155006018Y-89016149D01*
X155258342Y-88996291D01*
X155504455Y-88937205D01*
X155738295Y-88840345D01*
X155952629Y-88709000D01*
X155952629Y-88708998D01*
X155007419Y-87763788D01*
X154980105Y-87722911D01*
X154970514Y-87674693D01*
X154970514Y-87312654D01*
X154984247Y-87255451D01*
X155022453Y-87210718D01*
X155076803Y-87188205D01*
X155135450Y-87192821D01*
G37*
%TD.AperFunction*%
%TA.AperFunction,Conductor*%
G36*
X126165434Y-94808806D02*
G01*
X126215593Y-94839544D01*
X127602353Y-96226304D01*
X127602355Y-96226304D01*
X127634005Y-96190215D01*
X127802091Y-95938656D01*
X127821512Y-95899275D01*
X127865894Y-95849331D01*
X127929572Y-95829101D01*
X127994640Y-95844273D01*
X128042803Y-95890581D01*
X128060518Y-95955004D01*
X128060518Y-97160553D01*
X128046281Y-97218733D01*
X128006789Y-97263766D01*
X127950964Y-97285475D01*
X127852068Y-97298494D01*
X127789064Y-97315376D01*
X127691265Y-97355886D01*
X127607284Y-97420327D01*
X127561167Y-97466444D01*
X127496726Y-97550425D01*
X127456216Y-97648224D01*
X127439334Y-97711228D01*
X127426840Y-97806134D01*
X127425518Y-97816178D01*
X127425518Y-100106888D01*
X127432883Y-100163623D01*
X127438958Y-100210423D01*
X127455383Y-100272625D01*
X127494810Y-100369294D01*
X127557616Y-100452696D01*
X127602612Y-100498681D01*
X127609902Y-100504424D01*
X127650881Y-100561834D01*
X127654585Y-100632271D01*
X127619854Y-100693663D01*
X127557572Y-100726769D01*
X127404464Y-100758586D01*
X127404461Y-100758586D01*
X127404461Y-100758587D01*
X127127252Y-100857106D01*
X126866042Y-100992455D01*
X126625691Y-101162113D01*
X126410680Y-101362920D01*
X126225022Y-101591123D01*
X126204519Y-101624839D01*
X126153493Y-101708749D01*
X126145949Y-101721154D01*
X126100046Y-101765515D01*
X126038292Y-101781686D01*
X125647007Y-101781686D01*
X125598789Y-101772095D01*
X125557911Y-101744781D01*
X125237401Y-101424270D01*
X125210088Y-101383393D01*
X125200497Y-101335175D01*
X125200497Y-99262369D01*
X125210088Y-99214151D01*
X125237402Y-99173274D01*
X125591086Y-98819590D01*
X125631963Y-98792276D01*
X125680181Y-98782685D01*
X125974840Y-98782685D01*
X125974983Y-98782713D01*
X125974984Y-98782709D01*
X125999995Y-98782724D01*
X125999998Y-98782726D01*
X126000381Y-98782568D01*
X126000498Y-98782284D01*
X126000539Y-98782185D01*
X126000539Y-98757233D01*
X126000498Y-98757027D01*
X126000498Y-97198723D01*
X126013492Y-97142995D01*
X126049794Y-97098760D01*
X126101917Y-97075144D01*
X126397656Y-97016317D01*
X126684141Y-96919069D01*
X126955496Y-96785251D01*
X127207055Y-96617165D01*
X127243144Y-96585515D01*
X127243144Y-96585513D01*
X126037403Y-95379773D01*
X126010089Y-95338896D01*
X126000498Y-95290678D01*
X126000498Y-94928639D01*
X126014231Y-94871436D01*
X126052437Y-94826703D01*
X126106787Y-94804190D01*
X126165434Y-94808806D01*
G37*
%TD.AperFunction*%
%TA.AperFunction,Conductor*%
G36*
X129267518Y-88149559D02*
G01*
X129313637Y-88195678D01*
X129330518Y-88258678D01*
X129330518Y-90808678D01*
X129313637Y-90871678D01*
X129267518Y-90917797D01*
X129204518Y-90934678D01*
X128592018Y-90934678D01*
X128487068Y-90948494D01*
X128424064Y-90965376D01*
X128326265Y-91005886D01*
X128242284Y-91070327D01*
X128196167Y-91116444D01*
X128131726Y-91200425D01*
X128091216Y-91298224D01*
X128074334Y-91361228D01*
X128060518Y-91466178D01*
X128060518Y-93609352D01*
X128042803Y-93673775D01*
X127994640Y-93720083D01*
X127929572Y-93735255D01*
X127865894Y-93715025D01*
X127821512Y-93665081D01*
X127802091Y-93625699D01*
X127634005Y-93374140D01*
X127602355Y-93338050D01*
X127602353Y-93338050D01*
X126215593Y-94724812D01*
X126165434Y-94755550D01*
X126106787Y-94760166D01*
X126052437Y-94737653D01*
X126014231Y-94692920D01*
X126000498Y-94635717D01*
X126000498Y-94273678D01*
X126010089Y-94225460D01*
X126037403Y-94184583D01*
X127243144Y-92978841D01*
X127243144Y-92978838D01*
X127207054Y-92947189D01*
X126955496Y-92779104D01*
X126684141Y-92645286D01*
X126397656Y-92548038D01*
X126101917Y-92489212D01*
X126049794Y-92465596D01*
X126013492Y-92421361D01*
X126000498Y-92365633D01*
X126000498Y-90807338D01*
X126000526Y-90807194D01*
X126000522Y-90807194D01*
X126000537Y-90782182D01*
X126000539Y-90782180D01*
X126000381Y-90781797D01*
X126000379Y-90781796D01*
X126000378Y-90781795D01*
X126000303Y-90781764D01*
X126000094Y-90781678D01*
X126000000Y-90781639D01*
X125975046Y-90781639D01*
X125974840Y-90781680D01*
X125619801Y-90781680D01*
X125571583Y-90772089D01*
X125530705Y-90744775D01*
X125237401Y-90451470D01*
X125210088Y-90410593D01*
X125200497Y-90362375D01*
X125200497Y-88568970D01*
X125210088Y-88520752D01*
X125237401Y-88479875D01*
X125547692Y-88169583D01*
X125588570Y-88142269D01*
X125636788Y-88132678D01*
X129204518Y-88132678D01*
X129267518Y-88149559D01*
G37*
%TD.AperFunction*%
%TD*%
%TA.AperFunction,Conductor*%
%TO.N,GND*%
G36*
X161336519Y-67316881D02*
G01*
X161382638Y-67363000D01*
X161399519Y-67426000D01*
X161399519Y-69374848D01*
X161399478Y-69375054D01*
X161399478Y-69400006D01*
X161399519Y-69400105D01*
X161399636Y-69400389D01*
X161400019Y-69400547D01*
X161400021Y-69400545D01*
X161425033Y-69400530D01*
X161425033Y-69400534D01*
X161425177Y-69400506D01*
X170973525Y-69400506D01*
X171036525Y-69417387D01*
X171082644Y-69463506D01*
X171099525Y-69526506D01*
X171099525Y-70280070D01*
X171083993Y-70340674D01*
X171041226Y-70386336D01*
X170981768Y-70405800D01*
X170963118Y-70407022D01*
X170666379Y-70466047D01*
X170379894Y-70563295D01*
X170108539Y-70697113D01*
X169856982Y-70865198D01*
X169820889Y-70896849D01*
X171062620Y-72138579D01*
X171089934Y-72179456D01*
X171099525Y-72227674D01*
X171099525Y-72589713D01*
X171085792Y-72646916D01*
X171047586Y-72691649D01*
X171026973Y-72700187D01*
X171047586Y-72708725D01*
X171085792Y-72753458D01*
X171099525Y-72810661D01*
X171099525Y-73172700D01*
X171089934Y-73220918D01*
X171062620Y-73261796D01*
X169820890Y-74503523D01*
X169820890Y-74503524D01*
X169856980Y-74535174D01*
X170108539Y-74703260D01*
X170379894Y-74837078D01*
X170666379Y-74934326D01*
X170963118Y-74993351D01*
X170981768Y-74994574D01*
X171041226Y-75014038D01*
X171083993Y-75059700D01*
X171099525Y-75120304D01*
X171099525Y-76675026D01*
X171099484Y-76675232D01*
X171099484Y-76700184D01*
X171099525Y-76700283D01*
X171099642Y-76700567D01*
X171100025Y-76700725D01*
X171100027Y-76700723D01*
X171125039Y-76700708D01*
X171125039Y-76700712D01*
X171125183Y-76700684D01*
X171386807Y-76700684D01*
X171435025Y-76710275D01*
X171475902Y-76737588D01*
X171862621Y-77124306D01*
X171889935Y-77165184D01*
X171899526Y-77213402D01*
X171899526Y-80055001D01*
X171889935Y-80103219D01*
X171862621Y-80144097D01*
X171543933Y-80462783D01*
X171503056Y-80490096D01*
X171454838Y-80499687D01*
X167676522Y-80499687D01*
X167613522Y-80482806D01*
X167567403Y-80436687D01*
X167550522Y-80373687D01*
X167550522Y-77232879D01*
X167550524Y-77232869D01*
X167550524Y-77128039D01*
X167550513Y-77127984D01*
X167550513Y-77111194D01*
X167523592Y-76975861D01*
X167497349Y-76912506D01*
X167470787Y-76848380D01*
X167394127Y-76733650D01*
X167296557Y-76636079D01*
X167296556Y-76636078D01*
X167296555Y-76636077D01*
X167181829Y-76559418D01*
X167054346Y-76506610D01*
X166919016Y-76479688D01*
X166884568Y-76479686D01*
X166850122Y-76479685D01*
X166249923Y-76479685D01*
X166225749Y-76479685D01*
X166225573Y-76479718D01*
X166181032Y-76479718D01*
X166181031Y-76479718D01*
X166078657Y-76500078D01*
X166045697Y-76506633D01*
X165918216Y-76559434D01*
X165803483Y-76636090D01*
X165705913Y-76733656D01*
X165629251Y-76848383D01*
X165576442Y-76975866D01*
X165549521Y-77111191D01*
X165549520Y-77180085D01*
X165549520Y-78206499D01*
X165533012Y-78268849D01*
X165487814Y-78314861D01*
X165425769Y-78332479D01*
X165363135Y-78317087D01*
X165326656Y-78297168D01*
X165070929Y-78201786D01*
X164804251Y-78143774D01*
X164532018Y-78124303D01*
X164259784Y-78143774D01*
X163993103Y-78201787D01*
X163737377Y-78297167D01*
X163736903Y-78297427D01*
X163736257Y-78297585D01*
X163728937Y-78300316D01*
X163728618Y-78299462D01*
X163674269Y-78312819D01*
X163612224Y-78295200D01*
X163567027Y-78249188D01*
X163550519Y-78186839D01*
X163550519Y-77232880D01*
X163550522Y-77232865D01*
X163550522Y-77128031D01*
X163550513Y-77127986D01*
X163550513Y-77111194D01*
X163523592Y-76975859D01*
X163497347Y-76912501D01*
X163470786Y-76848379D01*
X163432831Y-76791575D01*
X163394128Y-76733651D01*
X163296554Y-76636076D01*
X163181828Y-76559417D01*
X163054344Y-76506609D01*
X162919013Y-76479686D01*
X162850121Y-76479685D01*
X162850120Y-76479685D01*
X162249920Y-76479685D01*
X162226020Y-76479685D01*
X162225852Y-76479716D01*
X162181030Y-76479716D01*
X162181029Y-76479716D01*
X162181027Y-76479716D01*
X162079527Y-76499903D01*
X162045693Y-76506632D01*
X161979726Y-76533955D01*
X161918216Y-76559432D01*
X161918211Y-76559434D01*
X161803482Y-76636089D01*
X161705909Y-76733656D01*
X161629251Y-76848380D01*
X161576440Y-76975866D01*
X161549519Y-77111191D01*
X161549518Y-77180085D01*
X161549518Y-78328248D01*
X161533796Y-78389197D01*
X161490554Y-78434935D01*
X161430583Y-78454050D01*
X161368849Y-78441770D01*
X161191659Y-78356439D01*
X160999504Y-78297168D01*
X160933790Y-78276898D01*
X160666947Y-78236678D01*
X160397089Y-78236678D01*
X160130246Y-78276898D01*
X160130242Y-78276899D01*
X160130243Y-78276899D01*
X159872379Y-78356438D01*
X159762442Y-78409381D01*
X159731185Y-78424434D01*
X159669452Y-78436714D01*
X159609481Y-78417599D01*
X159566239Y-78371861D01*
X159550517Y-78310912D01*
X159550517Y-77232880D01*
X159550520Y-77232865D01*
X159550520Y-77128023D01*
X159550513Y-77127988D01*
X159550513Y-77111194D01*
X159550513Y-77111192D01*
X159523592Y-76975860D01*
X159470786Y-76848379D01*
X159394125Y-76733648D01*
X159296556Y-76636078D01*
X159296555Y-76636077D01*
X159296554Y-76636076D01*
X159181826Y-76559415D01*
X159054345Y-76506610D01*
X159021512Y-76500078D01*
X158966161Y-76473897D01*
X158929687Y-76424716D01*
X158920704Y-76364148D01*
X158941333Y-76306497D01*
X158986702Y-76265378D01*
X159046097Y-76250500D01*
X160386035Y-76250500D01*
X160390336Y-76250573D01*
X160454422Y-76252762D01*
X160494238Y-76243058D01*
X160506891Y-76240652D01*
X160547516Y-76235070D01*
X160563821Y-76227986D01*
X160584182Y-76221139D01*
X160601448Y-76216933D01*
X160637180Y-76196841D01*
X160648718Y-76191110D01*
X160686316Y-76174780D01*
X160700097Y-76163567D01*
X160717860Y-76151477D01*
X160733355Y-76142766D01*
X160762338Y-76113781D01*
X160771907Y-76105145D01*
X160803704Y-76079278D01*
X160813955Y-76064754D01*
X160827793Y-76048326D01*
X161494753Y-75381366D01*
X161551235Y-75348756D01*
X161616458Y-75348757D01*
X161735236Y-75380584D01*
X161735237Y-75380584D01*
X161735241Y-75380585D01*
X161953218Y-75399655D01*
X162171195Y-75380585D01*
X162382548Y-75323953D01*
X162580857Y-75231480D01*
X162760095Y-75105976D01*
X162914816Y-74951255D01*
X163040320Y-74772017D01*
X163109022Y-74624683D01*
X163155518Y-74571666D01*
X163223218Y-74551933D01*
X163290918Y-74571666D01*
X163337413Y-74624683D01*
X163406116Y-74772017D01*
X163531622Y-74951258D01*
X163686337Y-75105973D01*
X163686340Y-75105975D01*
X163686341Y-75105976D01*
X163865579Y-75231480D01*
X164063888Y-75323953D01*
X164275241Y-75380585D01*
X164493218Y-75399655D01*
X164711195Y-75380585D01*
X164922548Y-75323953D01*
X165120857Y-75231480D01*
X165300095Y-75105976D01*
X165454816Y-74951255D01*
X165580320Y-74772017D01*
X165672793Y-74573708D01*
X165729425Y-74362355D01*
X165748495Y-74144378D01*
X165729425Y-73926401D01*
X165672793Y-73715048D01*
X165580320Y-73516740D01*
X165555108Y-73480734D01*
X165454813Y-73337497D01*
X165300098Y-73182782D01*
X165120857Y-73057276D01*
X164922547Y-72964802D01*
X164711195Y-72908171D01*
X164702222Y-72907386D01*
X164493218Y-72889101D01*
X164493217Y-72889101D01*
X164275238Y-72908171D01*
X164156456Y-72939998D01*
X164091234Y-72939998D01*
X164034751Y-72907386D01*
X163827552Y-72700187D01*
X168952066Y-72700187D01*
X168971853Y-73002087D01*
X169030878Y-73298825D01*
X169128126Y-73585310D01*
X169261944Y-73856665D01*
X169430029Y-74108223D01*
X169461678Y-74144313D01*
X169461681Y-74144313D01*
X170884430Y-72721566D01*
X170919316Y-72700187D01*
X170884430Y-72678808D01*
X169461680Y-71256058D01*
X169430029Y-71292151D01*
X169261944Y-71543708D01*
X169128126Y-71815063D01*
X169030878Y-72101548D01*
X168971853Y-72398286D01*
X168952066Y-72700187D01*
X163827552Y-72700187D01*
X163246279Y-72118914D01*
X163243289Y-72115821D01*
X163211477Y-72081759D01*
X163199520Y-72068956D01*
X163199519Y-72068955D01*
X163199518Y-72068954D01*
X163164508Y-72047664D01*
X163153844Y-72040406D01*
X163121183Y-72015639D01*
X163104647Y-72009118D01*
X163085408Y-71999562D01*
X163070222Y-71990328D01*
X163030758Y-71979270D01*
X163018532Y-71975159D01*
X162980403Y-71960123D01*
X162962719Y-71958305D01*
X162941617Y-71954294D01*
X162924506Y-71949500D01*
X162924505Y-71949500D01*
X162883520Y-71949500D01*
X162870635Y-71948839D01*
X162829868Y-71944648D01*
X162812351Y-71947668D01*
X162790944Y-71949500D01*
X161069175Y-71949500D01*
X161064873Y-71949427D01*
X161047662Y-71948839D01*
X161000770Y-71947237D01*
X161000769Y-71947237D01*
X160960949Y-71956941D01*
X160948276Y-71959349D01*
X160907676Y-71964930D01*
X160891365Y-71972014D01*
X160871008Y-71978859D01*
X160853743Y-71983066D01*
X160818012Y-72003156D01*
X160806469Y-72008889D01*
X160799579Y-72011883D01*
X160768873Y-72025221D01*
X160755089Y-72036435D01*
X160737334Y-72048519D01*
X160721838Y-72057232D01*
X160692851Y-72086218D01*
X160683279Y-72094857D01*
X160651485Y-72120724D01*
X160641233Y-72135247D01*
X160627394Y-72151675D01*
X159871683Y-72907386D01*
X159815199Y-72939998D01*
X159749977Y-72939998D01*
X159631195Y-72908171D01*
X159622222Y-72907386D01*
X159413218Y-72889101D01*
X159413217Y-72889101D01*
X159304229Y-72898636D01*
X159195241Y-72908171D01*
X158983888Y-72964803D01*
X158977189Y-72967927D01*
X158785578Y-73057276D01*
X158606337Y-73182782D01*
X158451622Y-73337497D01*
X158352930Y-73478445D01*
X158304952Y-73519422D01*
X158243123Y-73532001D01*
X158182947Y-73513028D01*
X158139515Y-73467260D01*
X158123717Y-73406174D01*
X158123717Y-73262860D01*
X158118185Y-73227929D01*
X158108864Y-73169074D01*
X158051268Y-73056036D01*
X158051267Y-73056035D01*
X158051266Y-73056033D01*
X157961562Y-72966329D01*
X157848522Y-72908732D01*
X157844980Y-72908171D01*
X157754737Y-72893878D01*
X157754735Y-72893878D01*
X155991699Y-72893878D01*
X155897914Y-72908732D01*
X155784873Y-72966329D01*
X155695169Y-73056033D01*
X155637572Y-73169073D01*
X155637571Y-73169074D01*
X155637572Y-73169074D01*
X155622887Y-73261796D01*
X155622718Y-73262860D01*
X155622718Y-75025896D01*
X155632317Y-75086501D01*
X155637572Y-75119682D01*
X155676439Y-75195962D01*
X155695169Y-75232722D01*
X155784873Y-75322426D01*
X155784875Y-75322427D01*
X155784876Y-75322428D01*
X155897914Y-75380024D01*
X155991699Y-75394878D01*
X156364162Y-75394877D01*
X156412380Y-75404468D01*
X156453257Y-75431782D01*
X156459427Y-75437952D01*
X156468071Y-75447529D01*
X156493940Y-75479326D01*
X156508460Y-75489575D01*
X156524893Y-75503418D01*
X157102559Y-76081084D01*
X157105549Y-76084177D01*
X157149320Y-76131044D01*
X157183840Y-76152036D01*
X157184332Y-76152335D01*
X157194997Y-76159594D01*
X157227658Y-76184361D01*
X157244189Y-76190880D01*
X157263429Y-76200435D01*
X157278618Y-76209672D01*
X157285528Y-76211608D01*
X157318087Y-76220731D01*
X157330305Y-76224839D01*
X157368436Y-76239876D01*
X157384525Y-76241530D01*
X157386110Y-76241693D01*
X157407217Y-76245704D01*
X157424335Y-76250500D01*
X157465320Y-76250500D01*
X157478205Y-76251161D01*
X157480942Y-76251442D01*
X157518972Y-76255352D01*
X157533994Y-76252762D01*
X157536489Y-76252332D01*
X157557896Y-76250500D01*
X158054053Y-76250500D01*
X158113449Y-76265378D01*
X158158819Y-76306499D01*
X158179446Y-76364151D01*
X158170461Y-76424720D01*
X158133985Y-76473901D01*
X158078631Y-76500079D01*
X158064734Y-76502843D01*
X158045691Y-76506631D01*
X157918212Y-76559431D01*
X157803478Y-76636090D01*
X157705909Y-76733655D01*
X157629247Y-76848382D01*
X157576438Y-76975866D01*
X157549517Y-77111191D01*
X157549516Y-77180085D01*
X157549516Y-78206497D01*
X157533008Y-78268847D01*
X157487810Y-78314859D01*
X157425765Y-78332477D01*
X157363131Y-78317085D01*
X157326656Y-78297168D01*
X157070929Y-78201786D01*
X156804251Y-78143774D01*
X156532018Y-78124303D01*
X156259784Y-78143774D01*
X155993106Y-78201786D01*
X155737374Y-78297170D01*
X155736897Y-78297431D01*
X155736248Y-78297590D01*
X155728938Y-78300317D01*
X155728620Y-78299464D01*
X155674264Y-78312822D01*
X155612220Y-78295203D01*
X155567022Y-78249191D01*
X155550515Y-78186842D01*
X155550515Y-77232880D01*
X155550518Y-77232865D01*
X155550518Y-77128015D01*
X155550513Y-77127990D01*
X155550513Y-77111193D01*
X155523592Y-76975858D01*
X155505990Y-76933365D01*
X155470786Y-76848378D01*
X155394125Y-76733647D01*
X155296554Y-76636077D01*
X155296553Y-76636076D01*
X155296552Y-76636075D01*
X155181824Y-76559414D01*
X155054343Y-76506608D01*
X154919011Y-76479686D01*
X154850116Y-76479685D01*
X154850115Y-76479685D01*
X154249916Y-76479685D01*
X154226044Y-76479685D01*
X154225897Y-76479713D01*
X154181023Y-76479713D01*
X154108424Y-76494152D01*
X154045689Y-76506629D01*
X153918207Y-76559431D01*
X153803478Y-76636087D01*
X153705906Y-76733653D01*
X153629243Y-76848384D01*
X153576437Y-76975863D01*
X153549515Y-77111191D01*
X153549514Y-77180085D01*
X153549514Y-78328246D01*
X153533792Y-78389195D01*
X153490550Y-78434933D01*
X153430579Y-78454048D01*
X153368845Y-78441768D01*
X153191659Y-78356439D01*
X152999504Y-78297168D01*
X152933790Y-78276898D01*
X152666947Y-78236678D01*
X152397089Y-78236678D01*
X152130246Y-78276898D01*
X152130242Y-78276899D01*
X152130243Y-78276899D01*
X151872379Y-78356438D01*
X151768204Y-78406606D01*
X151731181Y-78424436D01*
X151669448Y-78436716D01*
X151609477Y-78417601D01*
X151566235Y-78371863D01*
X151550513Y-78310914D01*
X151550513Y-77232879D01*
X151550515Y-77232869D01*
X151550515Y-77180185D01*
X151550513Y-77111195D01*
X151550513Y-77111193D01*
X151523592Y-76975859D01*
X151470785Y-76848377D01*
X151394124Y-76733647D01*
X151394122Y-76733645D01*
X151394121Y-76733643D01*
X151296556Y-76636078D01*
X151240456Y-76598593D01*
X151181823Y-76559415D01*
X151054341Y-76506608D01*
X150964318Y-76488700D01*
X150919004Y-76479686D01*
X150850114Y-76479685D01*
X150850113Y-76479685D01*
X150249914Y-76479685D01*
X150226062Y-76479685D01*
X150225925Y-76479711D01*
X150181019Y-76479711D01*
X150045691Y-76506626D01*
X149918203Y-76559431D01*
X149803477Y-76636085D01*
X149705904Y-76733654D01*
X149629241Y-76848384D01*
X149576435Y-76975863D01*
X149575078Y-76982687D01*
X149548898Y-77038038D01*
X149499716Y-77074513D01*
X149439148Y-77083496D01*
X149381497Y-77062868D01*
X149340378Y-77017499D01*
X149325500Y-76958103D01*
X149325500Y-76511149D01*
X149325573Y-76506848D01*
X149325804Y-76500078D01*
X149327660Y-76445755D01*
X149318465Y-76408026D01*
X149316059Y-76395362D01*
X149311769Y-76364151D01*
X149310771Y-76356889D01*
X149304200Y-76341762D01*
X149297357Y-76321412D01*
X149293457Y-76305406D01*
X149274420Y-76271549D01*
X149268697Y-76260026D01*
X149253219Y-76224391D01*
X149253216Y-76224387D01*
X149242820Y-76211608D01*
X149230730Y-76193844D01*
X149222659Y-76179489D01*
X149217949Y-76174779D01*
X149195195Y-76152025D01*
X149186560Y-76142457D01*
X149162052Y-76112333D01*
X149148592Y-76102832D01*
X149132160Y-76088990D01*
X148391926Y-75348756D01*
X147636435Y-74593266D01*
X147609122Y-74552390D01*
X147599531Y-74504172D01*
X147599531Y-73424499D01*
X148194355Y-73424499D01*
X148214859Y-73593371D01*
X148275181Y-73752429D01*
X148275182Y-73752430D01*
X148371817Y-73892429D01*
X148499148Y-74005234D01*
X148649775Y-74084290D01*
X148814944Y-74125000D01*
X148985054Y-74125000D01*
X148985056Y-74125000D01*
X149150225Y-74084290D01*
X149150227Y-74084288D01*
X149165080Y-74080628D01*
X149165713Y-74083199D01*
X149198982Y-74075000D01*
X149229804Y-74075000D01*
X149251063Y-74077346D01*
X149253822Y-74077259D01*
X149253826Y-74077260D01*
X149323760Y-74075061D01*
X149327718Y-74075000D01*
X149356449Y-74075000D01*
X149356455Y-74075000D01*
X149360740Y-74074458D01*
X149372562Y-74073527D01*
X149418099Y-74072097D01*
X149429708Y-74068723D01*
X149438321Y-74066222D01*
X149457686Y-74062211D01*
X149478588Y-74059571D01*
X149520959Y-74042794D01*
X149532167Y-74038956D01*
X149575928Y-74026244D01*
X149594059Y-74015520D01*
X149611810Y-74006823D01*
X149631401Y-73999068D01*
X149668258Y-73972289D01*
X149678175Y-73965776D01*
X149717392Y-73942583D01*
X149717392Y-73942582D01*
X149717395Y-73942581D01*
X149732294Y-73927681D01*
X149747322Y-73914845D01*
X149764367Y-73902463D01*
X149793415Y-73867348D01*
X149801385Y-73858589D01*
X150459744Y-73200231D01*
X150515002Y-73167957D01*
X150578987Y-73166990D01*
X150714944Y-73200500D01*
X150885054Y-73200500D01*
X150885056Y-73200500D01*
X151050225Y-73159790D01*
X151200852Y-73080734D01*
X151328183Y-72967929D01*
X151424818Y-72827930D01*
X151485140Y-72668872D01*
X151505645Y-72500000D01*
X151485140Y-72331128D01*
X151424818Y-72172070D01*
X151328183Y-72032071D01*
X151200852Y-71919266D01*
X151050225Y-71840210D01*
X150885056Y-71799500D01*
X150714944Y-71799500D01*
X150549775Y-71840210D01*
X150549772Y-71840211D01*
X150534920Y-71843872D01*
X150534286Y-71841300D01*
X150501018Y-71849500D01*
X150325755Y-71849500D01*
X150304495Y-71847153D01*
X150231799Y-71849438D01*
X150227841Y-71849500D01*
X150199104Y-71849500D01*
X150194819Y-71850041D01*
X150182997Y-71850971D01*
X150137458Y-71852402D01*
X150117225Y-71858280D01*
X150097877Y-71862287D01*
X150076970Y-71864929D01*
X150034618Y-71881697D01*
X150023392Y-71885541D01*
X149979628Y-71898256D01*
X149961489Y-71908983D01*
X149943743Y-71917677D01*
X149924159Y-71925431D01*
X149887293Y-71952214D01*
X149877379Y-71958726D01*
X149838165Y-71981918D01*
X149823270Y-71996813D01*
X149808240Y-72009650D01*
X149791193Y-72022035D01*
X149762144Y-72057149D01*
X149754156Y-72065926D01*
X149124379Y-72695703D01*
X149069121Y-72727980D01*
X149005134Y-72728948D01*
X148985056Y-72724000D01*
X148814944Y-72724000D01*
X148649775Y-72764710D01*
X148499148Y-72843766D01*
X148412617Y-72920426D01*
X148371816Y-72956572D01*
X148275181Y-73096570D01*
X148214859Y-73255628D01*
X148194355Y-73424499D01*
X147599531Y-73424499D01*
X147599531Y-70746890D01*
X147613264Y-70689687D01*
X147651470Y-70644954D01*
X147705820Y-70622441D01*
X147764467Y-70627057D01*
X147814626Y-70657795D01*
X148320525Y-71163694D01*
X148323515Y-71166787D01*
X148365245Y-71211469D01*
X148398427Y-71231647D01*
X148409079Y-71238897D01*
X148440025Y-71262364D01*
X148455356Y-71268409D01*
X148474591Y-71277963D01*
X148488672Y-71286526D01*
X148526065Y-71297003D01*
X148538278Y-71301110D01*
X148574410Y-71315359D01*
X148590801Y-71317043D01*
X148611912Y-71321056D01*
X148627772Y-71325500D01*
X148666605Y-71325500D01*
X148679490Y-71326161D01*
X148718108Y-71330131D01*
X148718108Y-71330130D01*
X148718109Y-71330131D01*
X148727777Y-71328464D01*
X148734344Y-71327332D01*
X148755751Y-71325500D01*
X150189015Y-71325500D01*
X150233695Y-71333688D01*
X150272568Y-71357187D01*
X150299146Y-71380733D01*
X150299148Y-71380734D01*
X150449775Y-71459790D01*
X150614944Y-71500500D01*
X150785054Y-71500500D01*
X150785056Y-71500500D01*
X150950225Y-71459790D01*
X151100852Y-71380734D01*
X151228183Y-71267929D01*
X151324818Y-71127930D01*
X151385140Y-70968872D01*
X151405645Y-70800000D01*
X151385140Y-70631128D01*
X151324818Y-70472070D01*
X151228183Y-70332071D01*
X151100852Y-70219266D01*
X150950225Y-70140210D01*
X150785056Y-70099500D01*
X150614944Y-70099500D01*
X150456920Y-70138449D01*
X150449775Y-70140210D01*
X150299146Y-70219266D01*
X150272568Y-70242813D01*
X150233695Y-70266312D01*
X150189015Y-70274500D01*
X148969859Y-70274500D01*
X148921641Y-70264909D01*
X148880764Y-70237595D01*
X148383764Y-69740595D01*
X148353026Y-69690436D01*
X148348410Y-69631789D01*
X148370923Y-69577439D01*
X148415656Y-69539233D01*
X148472859Y-69525500D01*
X150089015Y-69525500D01*
X150133695Y-69533688D01*
X150172568Y-69557187D01*
X150199146Y-69580733D01*
X150199148Y-69580734D01*
X150349775Y-69659790D01*
X150514944Y-69700500D01*
X150685054Y-69700500D01*
X150685056Y-69700500D01*
X150850225Y-69659790D01*
X151000852Y-69580734D01*
X151128183Y-69467929D01*
X151224818Y-69327930D01*
X151285140Y-69168872D01*
X151301650Y-69032898D01*
X151328729Y-68968894D01*
X151385628Y-68928981D01*
X151455032Y-68925309D01*
X151515825Y-68958994D01*
X152037595Y-69480764D01*
X152064909Y-69521641D01*
X152074500Y-69569859D01*
X152074500Y-73830141D01*
X152064909Y-73878359D01*
X152037595Y-73919236D01*
X151294236Y-74662595D01*
X151253359Y-74689909D01*
X151229506Y-74694653D01*
X151229799Y-74695839D01*
X151214946Y-74699500D01*
X151214944Y-74699500D01*
X151049775Y-74740210D01*
X150899148Y-74819266D01*
X150776520Y-74927905D01*
X150771816Y-74932072D01*
X150675181Y-75072070D01*
X150614859Y-75231128D01*
X150594355Y-75400000D01*
X150614859Y-75568871D01*
X150675181Y-75727929D01*
X150675182Y-75727930D01*
X150771817Y-75867929D01*
X150899148Y-75980734D01*
X151049775Y-76059790D01*
X151214944Y-76100500D01*
X151385054Y-76100500D01*
X151385056Y-76100500D01*
X151550225Y-76059790D01*
X151700852Y-75980734D01*
X151828183Y-75867929D01*
X151924818Y-75727930D01*
X151985140Y-75568872D01*
X151995217Y-75485872D01*
X152007013Y-75445902D01*
X152031200Y-75411968D01*
X152963737Y-74479431D01*
X152966769Y-74476500D01*
X153011469Y-74434755D01*
X153031643Y-74401578D01*
X153038892Y-74390926D01*
X153062365Y-74359975D01*
X153068413Y-74344636D01*
X153077964Y-74325406D01*
X153086526Y-74311328D01*
X153096999Y-74273944D01*
X153101106Y-74261729D01*
X153115359Y-74225589D01*
X153117043Y-74209199D01*
X153121056Y-74188087D01*
X153125500Y-74172228D01*
X153125500Y-74133402D01*
X153126161Y-74120517D01*
X153126400Y-74118190D01*
X153130132Y-74081890D01*
X153127332Y-74065649D01*
X153125500Y-74044242D01*
X153125500Y-69311149D01*
X153125573Y-69306848D01*
X153125631Y-69305127D01*
X153127660Y-69245755D01*
X153118466Y-69208029D01*
X153116060Y-69195372D01*
X153110771Y-69156889D01*
X153104205Y-69141775D01*
X153097356Y-69121408D01*
X153093457Y-69105405D01*
X153093456Y-69105404D01*
X153093456Y-69105402D01*
X153074431Y-69071567D01*
X153068692Y-69060012D01*
X153053219Y-69024390D01*
X153042819Y-69011607D01*
X153030729Y-68993844D01*
X153022657Y-68979488D01*
X153012063Y-68968894D01*
X152995195Y-68952026D01*
X152986559Y-68942456D01*
X152975596Y-68928981D01*
X152962054Y-68912335D01*
X152948583Y-68902826D01*
X152932157Y-68888988D01*
X151558264Y-67515095D01*
X151527526Y-67464936D01*
X151522910Y-67406289D01*
X151545423Y-67351939D01*
X151590156Y-67313733D01*
X151647359Y-67300000D01*
X161273519Y-67300000D01*
X161336519Y-67316881D01*
G37*
%TD.AperFunction*%
%TA.AperFunction,Conductor*%
G36*
X141248207Y-65919203D02*
G01*
X141291112Y-65971946D01*
X141295797Y-65982734D01*
X141302642Y-66003089D01*
X141306542Y-66019094D01*
X141325568Y-66052931D01*
X141331306Y-66064484D01*
X141346780Y-66100107D01*
X141346781Y-66100109D01*
X141357177Y-66112887D01*
X141369265Y-66130648D01*
X141375821Y-66142307D01*
X141377342Y-66145012D01*
X141404803Y-66172473D01*
X141413439Y-66182042D01*
X141437946Y-66212165D01*
X141451406Y-66221666D01*
X141467839Y-66235509D01*
X141544295Y-66311965D01*
X141568485Y-66345901D01*
X141580281Y-66385871D01*
X141590359Y-66468871D01*
X141650681Y-66627929D01*
X141681150Y-66672070D01*
X141747317Y-66767929D01*
X141863618Y-66870962D01*
X141874648Y-66880734D01*
X142038823Y-66966901D01*
X142038264Y-66967964D01*
X142061995Y-66979224D01*
X142095423Y-67016953D01*
X142111386Y-67064766D01*
X142114859Y-67093371D01*
X142175181Y-67252429D01*
X142175182Y-67252430D01*
X142271817Y-67392429D01*
X142278309Y-67398180D01*
X142308587Y-67438471D01*
X142320652Y-67487406D01*
X142316031Y-67515860D01*
X142316704Y-67515942D01*
X142294355Y-67700000D01*
X142314859Y-67868871D01*
X142375181Y-68027929D01*
X142375182Y-68027930D01*
X142471817Y-68167929D01*
X142599148Y-68280734D01*
X142749775Y-68359790D01*
X142914944Y-68400500D01*
X143085056Y-68400500D01*
X143192378Y-68374048D01*
X143248977Y-68373194D01*
X143300238Y-68397202D01*
X143335816Y-68441228D01*
X143348531Y-68496387D01*
X143348531Y-69379689D01*
X143348458Y-69383990D01*
X143346371Y-69445083D01*
X143355564Y-69482809D01*
X143357972Y-69495481D01*
X143363260Y-69533950D01*
X143369826Y-69549068D01*
X143376673Y-69569427D01*
X143380573Y-69585432D01*
X143399599Y-69619269D01*
X143405337Y-69630822D01*
X143417920Y-69659789D01*
X143420812Y-69666447D01*
X143431208Y-69679225D01*
X143443296Y-69696986D01*
X143445272Y-69700500D01*
X143451373Y-69711350D01*
X143478833Y-69738810D01*
X143487469Y-69748379D01*
X143511976Y-69778502D01*
X143525433Y-69788001D01*
X143541866Y-69801843D01*
X143694204Y-69954181D01*
X143837595Y-70097571D01*
X143864909Y-70138449D01*
X143874500Y-70186667D01*
X143874500Y-70688921D01*
X143868795Y-70726407D01*
X143852198Y-70760493D01*
X143824929Y-70800000D01*
X143775180Y-70872072D01*
X143714859Y-71031128D01*
X143694355Y-71200000D01*
X143714859Y-71368871D01*
X143775181Y-71527929D01*
X143786073Y-71543708D01*
X143871817Y-71667929D01*
X143999148Y-71780734D01*
X144149775Y-71859790D01*
X144314944Y-71900500D01*
X144485054Y-71900500D01*
X144485056Y-71900500D01*
X144650225Y-71859790D01*
X144800852Y-71780734D01*
X144928183Y-71667929D01*
X145024818Y-71527930D01*
X145042304Y-71481820D01*
X145069245Y-71439217D01*
X145110729Y-71410583D01*
X145160117Y-71400500D01*
X145185055Y-71400500D01*
X145185056Y-71400500D01*
X145318347Y-71367646D01*
X145374945Y-71366792D01*
X145426207Y-71390801D01*
X145461785Y-71434827D01*
X145474500Y-71489986D01*
X145474500Y-73533894D01*
X145463399Y-73585606D01*
X145432053Y-73628206D01*
X145371818Y-73681569D01*
X145275181Y-73821570D01*
X145214859Y-73980628D01*
X145194355Y-74149499D01*
X145214859Y-74318371D01*
X145275181Y-74477429D01*
X145311006Y-74529330D01*
X145371817Y-74617429D01*
X145499148Y-74730234D01*
X145649775Y-74809290D01*
X145814944Y-74850000D01*
X145814946Y-74850000D01*
X145829799Y-74853661D01*
X145829133Y-74856360D01*
X145859843Y-74863733D01*
X145904576Y-74901939D01*
X145927089Y-74956289D01*
X145922473Y-75014936D01*
X145891735Y-75065095D01*
X144168321Y-76788508D01*
X144165229Y-76791497D01*
X144120550Y-76833224D01*
X144100374Y-76866403D01*
X144093117Y-76877064D01*
X144069653Y-76908006D01*
X144063608Y-76923336D01*
X144054055Y-76942570D01*
X144045491Y-76956654D01*
X144035017Y-76994036D01*
X144030906Y-77006262D01*
X144016658Y-77042393D01*
X144014973Y-77058784D01*
X144010964Y-77079881D01*
X144006518Y-77095753D01*
X144006518Y-77134588D01*
X144005857Y-77147473D01*
X144001886Y-77186091D01*
X144004686Y-77202327D01*
X144006518Y-77223734D01*
X144006518Y-78222071D01*
X143995368Y-78273893D01*
X143963890Y-78316544D01*
X143917657Y-78342473D01*
X143872379Y-78356439D01*
X143872376Y-78356440D01*
X143872377Y-78356440D01*
X143731177Y-78424438D01*
X143669444Y-78436718D01*
X143609473Y-78417603D01*
X143566231Y-78371865D01*
X143550509Y-78310916D01*
X143550509Y-77232879D01*
X143550511Y-77232869D01*
X143550511Y-77232380D01*
X143550516Y-77232349D01*
X143550514Y-77165184D01*
X143550513Y-77111193D01*
X143550513Y-77111191D01*
X143550513Y-77111190D01*
X143523591Y-76975858D01*
X143497347Y-76912501D01*
X143470785Y-76848376D01*
X143394123Y-76733645D01*
X143296552Y-76636075D01*
X143296549Y-76636073D01*
X143181820Y-76559413D01*
X143054338Y-76506606D01*
X142919002Y-76479685D01*
X142850109Y-76479685D01*
X142249910Y-76479685D01*
X142226108Y-76479685D01*
X142225992Y-76479707D01*
X142181016Y-76479707D01*
X142045686Y-76506624D01*
X141918199Y-76559428D01*
X141803472Y-76636083D01*
X141705900Y-76733652D01*
X141629237Y-76848383D01*
X141576431Y-76975863D01*
X141549509Y-77111192D01*
X141549508Y-77159639D01*
X141549507Y-77159649D01*
X141549507Y-78328243D01*
X141533785Y-78389192D01*
X141490543Y-78434930D01*
X141430572Y-78454045D01*
X141368839Y-78441765D01*
X141259676Y-78389195D01*
X141191656Y-78356438D01*
X140999504Y-78297168D01*
X140933790Y-78276898D01*
X140666947Y-78236678D01*
X140397089Y-78236678D01*
X140130246Y-78276898D01*
X140130242Y-78276899D01*
X140130243Y-78276899D01*
X139872376Y-78356439D01*
X139731175Y-78424439D01*
X139669441Y-78436719D01*
X139609470Y-78417604D01*
X139566228Y-78371866D01*
X139550506Y-78310917D01*
X139550506Y-77232880D01*
X139550509Y-77232865D01*
X139550509Y-77232382D01*
X139550516Y-77232341D01*
X139550514Y-77165184D01*
X139550513Y-77111193D01*
X139550513Y-77111191D01*
X139550513Y-77111190D01*
X139523592Y-76975862D01*
X139523591Y-76975859D01*
X139523591Y-76975858D01*
X139470785Y-76848376D01*
X139460662Y-76833227D01*
X139394121Y-76733643D01*
X139296553Y-76636075D01*
X139181821Y-76559414D01*
X139181816Y-76559412D01*
X139118077Y-76533009D01*
X139054334Y-76506606D01*
X138919000Y-76479685D01*
X138850107Y-76479685D01*
X138249907Y-76479685D01*
X138225236Y-76479685D01*
X138225134Y-76479705D01*
X138181013Y-76479705D01*
X138045679Y-76506623D01*
X137918202Y-76559424D01*
X137803466Y-76636085D01*
X137705897Y-76733652D01*
X137629234Y-76848382D01*
X137576428Y-76975862D01*
X137549506Y-77111191D01*
X137549505Y-77180085D01*
X137549505Y-78328242D01*
X137533783Y-78389191D01*
X137490541Y-78434929D01*
X137430570Y-78454044D01*
X137368836Y-78441764D01*
X137354651Y-78434933D01*
X137332861Y-78424439D01*
X137191659Y-78356439D01*
X136999504Y-78297168D01*
X136933790Y-78276898D01*
X136666947Y-78236678D01*
X136397089Y-78236678D01*
X136130246Y-78276898D01*
X136130242Y-78276899D01*
X136130243Y-78276899D01*
X135872376Y-78356439D01*
X135731173Y-78424440D01*
X135669439Y-78436720D01*
X135609468Y-78417605D01*
X135566226Y-78371867D01*
X135550504Y-78310918D01*
X135550504Y-77232880D01*
X135550507Y-77232865D01*
X135550507Y-77232384D01*
X135550516Y-77232333D01*
X135550514Y-77165184D01*
X135550513Y-77111193D01*
X135550513Y-77111191D01*
X135550513Y-77111190D01*
X135524949Y-76982687D01*
X135523591Y-76975858D01*
X135470784Y-76848375D01*
X135394122Y-76733644D01*
X135296550Y-76636073D01*
X135296549Y-76636072D01*
X135296547Y-76636070D01*
X135181821Y-76559413D01*
X135054335Y-76506606D01*
X134918998Y-76479685D01*
X134850105Y-76479685D01*
X134249905Y-76479685D01*
X134225177Y-76479685D01*
X134225085Y-76479703D01*
X134181011Y-76479703D01*
X134045679Y-76506620D01*
X133918198Y-76559424D01*
X133803464Y-76636084D01*
X133705893Y-76733653D01*
X133629233Y-76848379D01*
X133576426Y-76975862D01*
X133549504Y-77111191D01*
X133549503Y-77180085D01*
X133549503Y-78328241D01*
X133533781Y-78389190D01*
X133490539Y-78434928D01*
X133430568Y-78454043D01*
X133368834Y-78441763D01*
X133191659Y-78356439D01*
X132999504Y-78297168D01*
X132933790Y-78276898D01*
X132666947Y-78236678D01*
X132397089Y-78236678D01*
X132130246Y-78276898D01*
X132130242Y-78276899D01*
X132130243Y-78276899D01*
X131872376Y-78356439D01*
X131731171Y-78424441D01*
X131669437Y-78436721D01*
X131609466Y-78417606D01*
X131566224Y-78371868D01*
X131550502Y-78310919D01*
X131550502Y-77232880D01*
X131550505Y-77232865D01*
X131550505Y-77232386D01*
X131550516Y-77232325D01*
X131550514Y-77165184D01*
X131550513Y-77111192D01*
X131550513Y-77111190D01*
X131550513Y-77111189D01*
X131523591Y-76975856D01*
X131470784Y-76848373D01*
X131394122Y-76733644D01*
X131296549Y-76636072D01*
X131181815Y-76559410D01*
X131054332Y-76506606D01*
X130918996Y-76479685D01*
X130850102Y-76479685D01*
X130249903Y-76479685D01*
X130225103Y-76479685D01*
X130225022Y-76479701D01*
X130181010Y-76479701D01*
X130045674Y-76506620D01*
X129918195Y-76559422D01*
X129803464Y-76636082D01*
X129705893Y-76733650D01*
X129629229Y-76848382D01*
X129576424Y-76975860D01*
X129549502Y-77111191D01*
X129549501Y-77180085D01*
X129549501Y-78584248D01*
X129546135Y-78605462D01*
X129549482Y-78626660D01*
X129556410Y-78632569D01*
X129557617Y-78633772D01*
X129564313Y-78637758D01*
X129569349Y-78641876D01*
X129571014Y-78643264D01*
X129682165Y-78737688D01*
X129716914Y-78767208D01*
X129725579Y-78775301D01*
X129776315Y-78827369D01*
X129781136Y-78832605D01*
X129876817Y-78942593D01*
X129881335Y-78948093D01*
X129925868Y-79005538D01*
X129932685Y-79015243D01*
X130029901Y-79168497D01*
X130049503Y-79235990D01*
X130049503Y-80373687D01*
X130032622Y-80436687D01*
X129986503Y-80482806D01*
X129923503Y-80499687D01*
X125729806Y-80499687D01*
X125681588Y-80490096D01*
X125640710Y-80462782D01*
X125551615Y-80373687D01*
X125439054Y-80261125D01*
X125237404Y-80059474D01*
X125210091Y-80018597D01*
X125200500Y-79970379D01*
X125200500Y-77247223D01*
X125210091Y-77199005D01*
X125237404Y-77158128D01*
X125547160Y-76848371D01*
X125657941Y-76737588D01*
X125698819Y-76710275D01*
X125747037Y-76700684D01*
X125974842Y-76700684D01*
X125974985Y-76700712D01*
X125974986Y-76700708D01*
X125999997Y-76700723D01*
X126000000Y-76700725D01*
X126000383Y-76700567D01*
X126000500Y-76700283D01*
X126000541Y-76700184D01*
X126000541Y-76675232D01*
X126000500Y-76675026D01*
X126000500Y-75116731D01*
X126013494Y-75061003D01*
X126049796Y-75016768D01*
X126101919Y-74993152D01*
X126397656Y-74934326D01*
X126684141Y-74837078D01*
X126955496Y-74703260D01*
X127207055Y-74535174D01*
X127243144Y-74503524D01*
X127243144Y-74503522D01*
X127093622Y-74354000D01*
X130962000Y-74354000D01*
X130962000Y-74998589D01*
X130968505Y-75059093D01*
X131019554Y-75195962D01*
X131107095Y-75312904D01*
X131224037Y-75400445D01*
X131360906Y-75451494D01*
X131421411Y-75458000D01*
X132066000Y-75458000D01*
X132066000Y-74354000D01*
X130962000Y-74354000D01*
X127093622Y-74354000D01*
X126037405Y-73297784D01*
X126010091Y-73256907D01*
X126000500Y-73208689D01*
X126000500Y-72846650D01*
X126014233Y-72789447D01*
X126052439Y-72744714D01*
X126106789Y-72722201D01*
X126165436Y-72726817D01*
X126215595Y-72757555D01*
X127602353Y-74144313D01*
X127602355Y-74144313D01*
X127634005Y-74108224D01*
X127802091Y-73856665D01*
X127807350Y-73846000D01*
X130962000Y-73846000D01*
X132066000Y-73846000D01*
X132066000Y-72742000D01*
X131421411Y-72742000D01*
X131360906Y-72748505D01*
X131224037Y-72799554D01*
X131107095Y-72887095D01*
X131019554Y-73004037D01*
X130968505Y-73140906D01*
X130962000Y-73201411D01*
X130962000Y-73846000D01*
X127807350Y-73846000D01*
X127935909Y-73585310D01*
X128033157Y-73298825D01*
X128074407Y-73091446D01*
X128102671Y-73033620D01*
X128155806Y-72997297D01*
X128219949Y-72991956D01*
X128278360Y-73018991D01*
X128315798Y-73071347D01*
X128375181Y-73227929D01*
X128401831Y-73266537D01*
X128471817Y-73367929D01*
X128599148Y-73480734D01*
X128749775Y-73559790D01*
X128914944Y-73600500D01*
X129085054Y-73600500D01*
X129085056Y-73600500D01*
X129250225Y-73559790D01*
X129400852Y-73480734D01*
X129528183Y-73367929D01*
X129624818Y-73227930D01*
X129685140Y-73068872D01*
X129705645Y-72900000D01*
X129685140Y-72731128D01*
X129665057Y-72678173D01*
X129624819Y-72572072D01*
X129624818Y-72572070D01*
X129547801Y-72460493D01*
X129531205Y-72426407D01*
X129525500Y-72388921D01*
X129525500Y-70569860D01*
X129535091Y-70521642D01*
X129562405Y-70480765D01*
X131780764Y-68262405D01*
X131821641Y-68235091D01*
X131869859Y-68225500D01*
X137253385Y-68225500D01*
X137311940Y-68239933D01*
X137349771Y-68259788D01*
X137349775Y-68259790D01*
X137430095Y-68279587D01*
X137487678Y-68311492D01*
X137521311Y-68368088D01*
X137521808Y-68433922D01*
X137489034Y-68491019D01*
X134460642Y-71519410D01*
X134443947Y-71532787D01*
X134394164Y-71585800D01*
X134391414Y-71588638D01*
X134371088Y-71608964D01*
X134368439Y-71612380D01*
X134360742Y-71621391D01*
X134329551Y-71654607D01*
X134319404Y-71673065D01*
X134308554Y-71689583D01*
X134295638Y-71706235D01*
X134277546Y-71748042D01*
X134272326Y-71758697D01*
X134250372Y-71798631D01*
X134245130Y-71819048D01*
X134238728Y-71837746D01*
X134230364Y-71857075D01*
X134223237Y-71902069D01*
X134220831Y-71913689D01*
X134209500Y-71957823D01*
X134209500Y-71978885D01*
X134207949Y-71998596D01*
X134204653Y-72019405D01*
X134208941Y-72064765D01*
X134209500Y-72076623D01*
X134209500Y-72963315D01*
X134195263Y-73021496D01*
X134155770Y-73066528D01*
X134053121Y-73138402D01*
X133893095Y-73298429D01*
X133842936Y-73329167D01*
X133784289Y-73333783D01*
X133729939Y-73311270D01*
X133691733Y-73266537D01*
X133678000Y-73209334D01*
X133678000Y-73201411D01*
X133671494Y-73140906D01*
X133620445Y-73004037D01*
X133532904Y-72887095D01*
X133415962Y-72799554D01*
X133279093Y-72748505D01*
X133218589Y-72742000D01*
X132574000Y-72742000D01*
X132574000Y-75458000D01*
X133218589Y-75458000D01*
X133279093Y-75451494D01*
X133415962Y-75400445D01*
X133532904Y-75312904D01*
X133620445Y-75195962D01*
X133671494Y-75059093D01*
X133678000Y-74998589D01*
X133678000Y-74990666D01*
X133691733Y-74933463D01*
X133729939Y-74888730D01*
X133784289Y-74866217D01*
X133842936Y-74870833D01*
X133893095Y-74901571D01*
X134053119Y-75061595D01*
X134053122Y-75061597D01*
X134053123Y-75061598D01*
X134232361Y-75187102D01*
X134430670Y-75279575D01*
X134642023Y-75336207D01*
X134860000Y-75355277D01*
X135077977Y-75336207D01*
X135289330Y-75279575D01*
X135487639Y-75187102D01*
X135666877Y-75061598D01*
X135821598Y-74906877D01*
X135947102Y-74727639D01*
X136015804Y-74580305D01*
X136062300Y-74527288D01*
X136130000Y-74507555D01*
X136197700Y-74527288D01*
X136244195Y-74580305D01*
X136312898Y-74727639D01*
X136438404Y-74906880D01*
X136593119Y-75061595D01*
X136593122Y-75061597D01*
X136593123Y-75061598D01*
X136772361Y-75187102D01*
X136970670Y-75279575D01*
X137182023Y-75336207D01*
X137400000Y-75355277D01*
X137617977Y-75336207D01*
X137829330Y-75279575D01*
X138027639Y-75187102D01*
X138206877Y-75061598D01*
X138361598Y-74906877D01*
X138487102Y-74727639D01*
X138555804Y-74580305D01*
X138602300Y-74527288D01*
X138670000Y-74507555D01*
X138737700Y-74527288D01*
X138784195Y-74580305D01*
X138852898Y-74727639D01*
X138978404Y-74906880D01*
X139133119Y-75061595D01*
X139133122Y-75061597D01*
X139133123Y-75061598D01*
X139312361Y-75187102D01*
X139510670Y-75279575D01*
X139722023Y-75336207D01*
X139940000Y-75355277D01*
X140157977Y-75336207D01*
X140369330Y-75279575D01*
X140567639Y-75187102D01*
X140746877Y-75061598D01*
X140901598Y-74906877D01*
X141027102Y-74727639D01*
X141095804Y-74580305D01*
X141142300Y-74527288D01*
X141210000Y-74507555D01*
X141277700Y-74527288D01*
X141324195Y-74580305D01*
X141392898Y-74727639D01*
X141518404Y-74906880D01*
X141673119Y-75061595D01*
X141673122Y-75061597D01*
X141673123Y-75061598D01*
X141852361Y-75187102D01*
X142050670Y-75279575D01*
X142262023Y-75336207D01*
X142480000Y-75355277D01*
X142697977Y-75336207D01*
X142909330Y-75279575D01*
X143107639Y-75187102D01*
X143286877Y-75061598D01*
X143441598Y-74906877D01*
X143567102Y-74727639D01*
X143659575Y-74529330D01*
X143716207Y-74317977D01*
X143735277Y-74100000D01*
X143716207Y-73882023D01*
X143659575Y-73670670D01*
X143567102Y-73472362D01*
X143441598Y-73293123D01*
X143441597Y-73293122D01*
X143441595Y-73293119D01*
X143286880Y-73138404D01*
X143107638Y-73012897D01*
X143078251Y-72999194D01*
X143025233Y-72952699D01*
X143005500Y-72884999D01*
X143005500Y-72191149D01*
X143005573Y-72186848D01*
X143006078Y-72172070D01*
X143007660Y-72125755D01*
X142998465Y-72088026D01*
X142996059Y-72075362D01*
X142993567Y-72057232D01*
X142990771Y-72036889D01*
X142984200Y-72021762D01*
X142977357Y-72001412D01*
X142973457Y-71985406D01*
X142954425Y-71951558D01*
X142948692Y-71940014D01*
X142933219Y-71904391D01*
X142922819Y-71891608D01*
X142910727Y-71873842D01*
X142902657Y-71859488D01*
X142875205Y-71832036D01*
X142866570Y-71822469D01*
X142842054Y-71792335D01*
X142828583Y-71782826D01*
X142812157Y-71768988D01*
X141086445Y-70043276D01*
X141059131Y-70002399D01*
X141049540Y-69954181D01*
X141049540Y-66022137D01*
X141067884Y-65956668D01*
X141117575Y-65910262D01*
X141184144Y-65896431D01*
X141248207Y-65919203D01*
G37*
%TD.AperFunction*%
%TA.AperFunction,Conductor*%
G36*
X139497081Y-65473180D02*
G01*
X139535287Y-65517913D01*
X139549020Y-65575116D01*
X139549020Y-72822272D01*
X139529287Y-72889972D01*
X139476272Y-72936464D01*
X139394140Y-72974763D01*
X139312360Y-73012898D01*
X139133119Y-73138404D01*
X138978404Y-73293119D01*
X138852898Y-73472360D01*
X138784195Y-73619696D01*
X138737700Y-73672713D01*
X138670000Y-73692446D01*
X138602300Y-73672713D01*
X138555805Y-73619696D01*
X138543529Y-73593371D01*
X138487102Y-73472362D01*
X138361598Y-73293123D01*
X138361597Y-73293122D01*
X138361595Y-73293119D01*
X138206880Y-73138404D01*
X138027639Y-73012898D01*
X137829329Y-72920424D01*
X137617977Y-72863793D01*
X137400000Y-72844723D01*
X137182023Y-72863793D01*
X136970670Y-72920425D01*
X136970667Y-72920426D01*
X136970668Y-72920426D01*
X136772360Y-73012898D01*
X136593119Y-73138404D01*
X136438404Y-73293119D01*
X136312898Y-73472360D01*
X136244195Y-73619696D01*
X136197700Y-73672713D01*
X136130000Y-73692446D01*
X136062300Y-73672713D01*
X136015805Y-73619696D01*
X136003529Y-73593371D01*
X135947102Y-73472362D01*
X135821598Y-73293123D01*
X135821597Y-73293122D01*
X135821595Y-73293119D01*
X135666880Y-73138404D01*
X135584519Y-73080734D01*
X135564228Y-73066526D01*
X135524737Y-73021494D01*
X135510500Y-72963314D01*
X135510500Y-72361636D01*
X135520091Y-72313418D01*
X135547405Y-72272541D01*
X136385119Y-71434827D01*
X138899356Y-68920588D01*
X138916045Y-68907218D01*
X138917935Y-68905204D01*
X138917940Y-68905202D01*
X138965865Y-68854165D01*
X138968558Y-68851386D01*
X138988911Y-68831035D01*
X138991548Y-68827634D01*
X138999257Y-68818606D01*
X139030448Y-68785393D01*
X139040597Y-68766930D01*
X139051455Y-68750402D01*
X139064362Y-68733764D01*
X139082456Y-68691946D01*
X139087669Y-68681306D01*
X139109627Y-68641368D01*
X139114868Y-68620950D01*
X139121266Y-68602262D01*
X139129635Y-68582927D01*
X139136760Y-68537933D01*
X139139169Y-68526305D01*
X139148230Y-68491019D01*
X139150500Y-68482177D01*
X139150500Y-68461109D01*
X139152051Y-68441398D01*
X139153235Y-68433922D01*
X139155346Y-68420595D01*
X139151058Y-68375243D01*
X139150500Y-68363386D01*
X139150500Y-65721636D01*
X139160091Y-65673418D01*
X139187405Y-65632541D01*
X139333925Y-65486021D01*
X139384084Y-65455283D01*
X139442731Y-65450667D01*
X139497081Y-65473180D01*
G37*
%TD.AperFunction*%
%TA.AperFunction,Conductor*%
G36*
X129986503Y-40917548D02*
G01*
X130032622Y-40963667D01*
X130049503Y-41026667D01*
X130049503Y-42164358D01*
X130029900Y-42231854D01*
X129932631Y-42385183D01*
X129925817Y-42394883D01*
X129881433Y-42452139D01*
X129876915Y-42457639D01*
X129781027Y-42567870D01*
X129776205Y-42573107D01*
X129725656Y-42624984D01*
X129716990Y-42633078D01*
X129570648Y-42757399D01*
X129568834Y-42758911D01*
X129564148Y-42762743D01*
X129557462Y-42766744D01*
X129556287Y-42767915D01*
X129549475Y-42773734D01*
X129546147Y-42794966D01*
X129549501Y-42816106D01*
X129549501Y-44244616D01*
X129549529Y-44244761D01*
X129549528Y-44289160D01*
X129576442Y-44424494D01*
X129576442Y-44424495D01*
X129602685Y-44487857D01*
X129629243Y-44551977D01*
X129705899Y-44666709D01*
X129803467Y-44764281D01*
X129918196Y-44840943D01*
X130045677Y-44893749D01*
X130181010Y-44920669D01*
X130249903Y-44920669D01*
X130250002Y-44920669D01*
X130250502Y-44920669D01*
X130797776Y-44920669D01*
X130797962Y-44920705D01*
X130850003Y-44920705D01*
X130918998Y-44920704D01*
X131054338Y-44893782D01*
X131181824Y-44840973D01*
X131296558Y-44764307D01*
X131394130Y-44666731D01*
X131470790Y-44551993D01*
X131523592Y-44424504D01*
X131550508Y-44289163D01*
X131550505Y-44220168D01*
X131550505Y-44219668D01*
X131550505Y-44167489D01*
X131550502Y-44167474D01*
X131550502Y-43155437D01*
X131566224Y-43094488D01*
X131609466Y-43048750D01*
X131669437Y-43029635D01*
X131731171Y-43041915D01*
X131872376Y-43109916D01*
X131929886Y-43127655D01*
X132130246Y-43189458D01*
X132397089Y-43229678D01*
X132666945Y-43229678D01*
X132666947Y-43229678D01*
X132933790Y-43189458D01*
X133191659Y-43109916D01*
X133368834Y-43024592D01*
X133430568Y-43012313D01*
X133490539Y-43031428D01*
X133533781Y-43077166D01*
X133549503Y-43138115D01*
X133549503Y-44244632D01*
X133549529Y-44244767D01*
X133549528Y-44289160D01*
X133576443Y-44424495D01*
X133602691Y-44487869D01*
X133629244Y-44551980D01*
X133667215Y-44608811D01*
X133705900Y-44666710D01*
X133803468Y-44764282D01*
X133918197Y-44840944D01*
X134045678Y-44893749D01*
X134181012Y-44920669D01*
X134249905Y-44920669D01*
X134250004Y-44920669D01*
X134250504Y-44920669D01*
X134797777Y-44920669D01*
X134797973Y-44920707D01*
X134850006Y-44920707D01*
X134918999Y-44920706D01*
X134919004Y-44920706D01*
X134991781Y-44906228D01*
X135054341Y-44893783D01*
X135181827Y-44840974D01*
X135296560Y-44764308D01*
X135394132Y-44666731D01*
X135470792Y-44551993D01*
X135523594Y-44424504D01*
X135550510Y-44289163D01*
X135550507Y-44220168D01*
X135550507Y-44219668D01*
X135550507Y-44167489D01*
X135550504Y-44167474D01*
X135550504Y-43155438D01*
X135566226Y-43094489D01*
X135609468Y-43048751D01*
X135669439Y-43029636D01*
X135731173Y-43041916D01*
X135872376Y-43109916D01*
X135929886Y-43127655D01*
X136130246Y-43189458D01*
X136397089Y-43229678D01*
X136666945Y-43229678D01*
X136666947Y-43229678D01*
X136933790Y-43189458D01*
X137191659Y-43109916D01*
X137368836Y-43024591D01*
X137430570Y-43012312D01*
X137490541Y-43031427D01*
X137533783Y-43077165D01*
X137549505Y-43138114D01*
X137549505Y-44244289D01*
X137549529Y-44244416D01*
X137549528Y-44289161D01*
X137576443Y-44424495D01*
X137576448Y-44424506D01*
X137629244Y-44551982D01*
X137705899Y-44666709D01*
X137803470Y-44764284D01*
X137803518Y-44764316D01*
X137918198Y-44840945D01*
X138045680Y-44893750D01*
X138181013Y-44920669D01*
X138249907Y-44920669D01*
X138250006Y-44920669D01*
X138250506Y-44920669D01*
X138797777Y-44920669D01*
X138797983Y-44920709D01*
X138850008Y-44920709D01*
X138919001Y-44920708D01*
X138919006Y-44920708D01*
X139054338Y-44893786D01*
X139054338Y-44893785D01*
X139054343Y-44893785D01*
X139181829Y-44840975D01*
X139296563Y-44764309D01*
X139394134Y-44666731D01*
X139470794Y-44551993D01*
X139523596Y-44424504D01*
X139550512Y-44289164D01*
X139550509Y-44220168D01*
X139550509Y-44219668D01*
X139550509Y-44167489D01*
X139550506Y-44167474D01*
X139550506Y-43155439D01*
X139566228Y-43094490D01*
X139609470Y-43048752D01*
X139669441Y-43029637D01*
X139731175Y-43041917D01*
X139872376Y-43109916D01*
X139929886Y-43127655D01*
X140130246Y-43189458D01*
X140397089Y-43229678D01*
X140666945Y-43229678D01*
X140666947Y-43229678D01*
X140933790Y-43189458D01*
X141191659Y-43109916D01*
X141368839Y-43024590D01*
X141430572Y-43012311D01*
X141490543Y-43031426D01*
X141533785Y-43077164D01*
X141549507Y-43138113D01*
X141549507Y-44244280D01*
X141549529Y-44244396D01*
X141549528Y-44289161D01*
X141562947Y-44356633D01*
X141576443Y-44424497D01*
X141602690Y-44487867D01*
X141629244Y-44551979D01*
X141703262Y-44662762D01*
X141705901Y-44666712D01*
X141803471Y-44764285D01*
X141918199Y-44840946D01*
X142008339Y-44878282D01*
X142045682Y-44893750D01*
X142181016Y-44920669D01*
X142249910Y-44920669D01*
X142250009Y-44920669D01*
X142250509Y-44920669D01*
X142797778Y-44920669D01*
X142797999Y-44920712D01*
X142850010Y-44920711D01*
X142918994Y-44920709D01*
X142919008Y-44920709D01*
X143054340Y-44893787D01*
X143054340Y-44893786D01*
X143054345Y-44893786D01*
X143181831Y-44840976D01*
X143296565Y-44764310D01*
X143394136Y-44666732D01*
X143470796Y-44551994D01*
X143523598Y-44424505D01*
X143550514Y-44289164D01*
X143550511Y-44220168D01*
X143550511Y-44219668D01*
X143550511Y-44167485D01*
X143550509Y-44167475D01*
X143550509Y-43155440D01*
X143566231Y-43094491D01*
X143609473Y-43048753D01*
X143669444Y-43029638D01*
X143731177Y-43041917D01*
X143840341Y-43094488D01*
X143872379Y-43109917D01*
X143940145Y-43130819D01*
X144130246Y-43189458D01*
X144397089Y-43229678D01*
X144666945Y-43229678D01*
X144666947Y-43229678D01*
X144933790Y-43189458D01*
X145191659Y-43109916D01*
X145223689Y-43094491D01*
X145368841Y-43024590D01*
X145430575Y-43012310D01*
X145490546Y-43031425D01*
X145533788Y-43077163D01*
X145549510Y-43138112D01*
X145549510Y-44244482D01*
X145549529Y-44244582D01*
X145549528Y-44289161D01*
X145562947Y-44356633D01*
X145576443Y-44424497D01*
X145576447Y-44424506D01*
X145629244Y-44551980D01*
X145667200Y-44608788D01*
X145705900Y-44666711D01*
X145705902Y-44666713D01*
X145803471Y-44764285D01*
X145918201Y-44840946D01*
X146045684Y-44893751D01*
X146181018Y-44920670D01*
X146250011Y-44920669D01*
X146250511Y-44920669D01*
X146797778Y-44920669D01*
X146798009Y-44920714D01*
X146850012Y-44920713D01*
X146918996Y-44920711D01*
X146919010Y-44920711D01*
X147009233Y-44902762D01*
X147054347Y-44893788D01*
X147181833Y-44840977D01*
X147296567Y-44764310D01*
X147394138Y-44666733D01*
X147470798Y-44551994D01*
X147523600Y-44424505D01*
X147550516Y-44289164D01*
X147550513Y-44220168D01*
X147550513Y-44219668D01*
X147550513Y-44167485D01*
X147550511Y-44167475D01*
X147550511Y-43155441D01*
X147566233Y-43094492D01*
X147609475Y-43048754D01*
X147669446Y-43029639D01*
X147731179Y-43041918D01*
X147804357Y-43077159D01*
X147872379Y-43109917D01*
X147940145Y-43130819D01*
X148130246Y-43189458D01*
X148397089Y-43229678D01*
X148666945Y-43229678D01*
X148666947Y-43229678D01*
X148933790Y-43189458D01*
X149191659Y-43109916D01*
X149223689Y-43094491D01*
X149368843Y-43024589D01*
X149430577Y-43012309D01*
X149490548Y-43031424D01*
X149533790Y-43077162D01*
X149549512Y-43138111D01*
X149549512Y-44243996D01*
X149549529Y-44244087D01*
X149549528Y-44289161D01*
X149549529Y-44289164D01*
X149576443Y-44424498D01*
X149629242Y-44551977D01*
X149629243Y-44551979D01*
X149629244Y-44551980D01*
X149705902Y-44666712D01*
X149705904Y-44666714D01*
X149803473Y-44764286D01*
X149918202Y-44840947D01*
X149979812Y-44866466D01*
X150045685Y-44893751D01*
X150181020Y-44920670D01*
X150250013Y-44920669D01*
X150250513Y-44920669D01*
X150797778Y-44920669D01*
X150798019Y-44920716D01*
X150850014Y-44920715D01*
X150919010Y-44920713D01*
X151054349Y-44893789D01*
X151181835Y-44840979D01*
X151296569Y-44764311D01*
X151394141Y-44666733D01*
X151470800Y-44551995D01*
X151523602Y-44424505D01*
X151550518Y-44289164D01*
X151550515Y-44220168D01*
X151550515Y-44219668D01*
X151550515Y-44167485D01*
X151550513Y-44167475D01*
X151550513Y-43155442D01*
X151566235Y-43094493D01*
X151609477Y-43048755D01*
X151669448Y-43029640D01*
X151731181Y-43041919D01*
X151804357Y-43077159D01*
X151872379Y-43109917D01*
X151940145Y-43130819D01*
X152130246Y-43189458D01*
X152397089Y-43229678D01*
X152666945Y-43229678D01*
X152666947Y-43229678D01*
X152933790Y-43189458D01*
X153191659Y-43109916D01*
X153223689Y-43094491D01*
X153368845Y-43024588D01*
X153430579Y-43012308D01*
X153490550Y-43031423D01*
X153533792Y-43077161D01*
X153549514Y-43138110D01*
X153549514Y-44243941D01*
X153549529Y-44244022D01*
X153549528Y-44289161D01*
X153549529Y-44289164D01*
X153576443Y-44424498D01*
X153579425Y-44431697D01*
X153629244Y-44551981D01*
X153705903Y-44666714D01*
X153803473Y-44764286D01*
X153918204Y-44840947D01*
X154045687Y-44893752D01*
X154181022Y-44920670D01*
X154250015Y-44920669D01*
X154250515Y-44920669D01*
X154797776Y-44920669D01*
X154798027Y-44920718D01*
X154850016Y-44920718D01*
X154919010Y-44920717D01*
X154919013Y-44920717D01*
X154946079Y-44915332D01*
X155054352Y-44893792D01*
X155181839Y-44840981D01*
X155296572Y-44764314D01*
X155394144Y-44666735D01*
X155470804Y-44551996D01*
X155523606Y-44424506D01*
X155550522Y-44289164D01*
X155550518Y-44220168D01*
X155550518Y-44219668D01*
X155550518Y-44167489D01*
X155550515Y-44167474D01*
X155550515Y-43155443D01*
X155566237Y-43094494D01*
X155609479Y-43048756D01*
X155669450Y-43029641D01*
X155731183Y-43041920D01*
X155804357Y-43077159D01*
X155872379Y-43109917D01*
X155940145Y-43130819D01*
X156130246Y-43189458D01*
X156397089Y-43229678D01*
X156666945Y-43229678D01*
X156666947Y-43229678D01*
X156933790Y-43189458D01*
X157191659Y-43109916D01*
X157223689Y-43094491D01*
X157368847Y-43024587D01*
X157430581Y-43012307D01*
X157490552Y-43031422D01*
X157533794Y-43077160D01*
X157549516Y-43138109D01*
X157549516Y-44243871D01*
X157549529Y-44243941D01*
X157549528Y-44289161D01*
X157549529Y-44289164D01*
X157576443Y-44424498D01*
X157629243Y-44551979D01*
X157629244Y-44551981D01*
X157629245Y-44551982D01*
X157705904Y-44666715D01*
X157803474Y-44764287D01*
X157918205Y-44840948D01*
X158045688Y-44893752D01*
X158181024Y-44920670D01*
X158250017Y-44920669D01*
X158250517Y-44920669D01*
X158797777Y-44920669D01*
X158798038Y-44920720D01*
X158850019Y-44920720D01*
X158919013Y-44920719D01*
X158919016Y-44920719D01*
X158991603Y-44906278D01*
X159054355Y-44893794D01*
X159181841Y-44840982D01*
X159296575Y-44764314D01*
X159394147Y-44666735D01*
X159470806Y-44551996D01*
X159523609Y-44424506D01*
X159550524Y-44289164D01*
X159550520Y-44220168D01*
X159550520Y-44219668D01*
X159550520Y-44167489D01*
X159550517Y-44167474D01*
X159550517Y-43155444D01*
X159566239Y-43094495D01*
X159609481Y-43048757D01*
X159669452Y-43029642D01*
X159731185Y-43041921D01*
X159804357Y-43077159D01*
X159872379Y-43109917D01*
X159940145Y-43130819D01*
X160130246Y-43189458D01*
X160397089Y-43229678D01*
X160666945Y-43229678D01*
X160666947Y-43229678D01*
X160933790Y-43189458D01*
X161191659Y-43109916D01*
X161259671Y-43077163D01*
X161368849Y-43024586D01*
X161430583Y-43012306D01*
X161490554Y-43031421D01*
X161533796Y-43077159D01*
X161549518Y-43138108D01*
X161549518Y-44243774D01*
X161549529Y-44243834D01*
X161549528Y-44289161D01*
X161562947Y-44356634D01*
X161576443Y-44424499D01*
X161629243Y-44551979D01*
X161629244Y-44551981D01*
X161629245Y-44551982D01*
X161705904Y-44666715D01*
X161803475Y-44764287D01*
X161918206Y-44840949D01*
X161918291Y-44840984D01*
X162045686Y-44893752D01*
X162045689Y-44893752D01*
X162045690Y-44893753D01*
X162181026Y-44920670D01*
X162250019Y-44920669D01*
X162250519Y-44920669D01*
X162797778Y-44920669D01*
X162798054Y-44920723D01*
X162850021Y-44920722D01*
X162919011Y-44920720D01*
X162919018Y-44920720D01*
X162964130Y-44911745D01*
X163054357Y-44893795D01*
X163181843Y-44840983D01*
X163296577Y-44764315D01*
X163394149Y-44666736D01*
X163470808Y-44551996D01*
X163523611Y-44424506D01*
X163550526Y-44289164D01*
X163550522Y-44220168D01*
X163550522Y-44219668D01*
X163550522Y-44167489D01*
X163550519Y-44167474D01*
X163550519Y-43155445D01*
X163566241Y-43094496D01*
X163609483Y-43048758D01*
X163669454Y-43029643D01*
X163731188Y-43041923D01*
X163872376Y-43109916D01*
X163929886Y-43127655D01*
X164130246Y-43189458D01*
X164397089Y-43229678D01*
X164666945Y-43229678D01*
X164666947Y-43229678D01*
X164933790Y-43189458D01*
X165191659Y-43109916D01*
X165259671Y-43077163D01*
X165368851Y-43024585D01*
X165430585Y-43012305D01*
X165490556Y-43031420D01*
X165533798Y-43077158D01*
X165549520Y-43138107D01*
X165549520Y-44243638D01*
X165549529Y-44243688D01*
X165549528Y-44289162D01*
X165576444Y-44424496D01*
X165576445Y-44424502D01*
X165629244Y-44551982D01*
X165705903Y-44666714D01*
X165803476Y-44764289D01*
X165918208Y-44840950D01*
X166045688Y-44893753D01*
X166045691Y-44893753D01*
X166045692Y-44893754D01*
X166181028Y-44920671D01*
X166250021Y-44920669D01*
X166250023Y-44920669D01*
X166250522Y-44920669D01*
X166797778Y-44920669D01*
X166798064Y-44920725D01*
X166850023Y-44920724D01*
X166919019Y-44920722D01*
X167054359Y-44893796D01*
X167181846Y-44840984D01*
X167296579Y-44764316D01*
X167394151Y-44666737D01*
X167394153Y-44666735D01*
X167432853Y-44608810D01*
X167470811Y-44551997D01*
X167523613Y-44424506D01*
X167550528Y-44289164D01*
X167550524Y-44220168D01*
X167550524Y-44219668D01*
X167550524Y-44167485D01*
X167550522Y-44167475D01*
X167550522Y-41026667D01*
X167567403Y-40963667D01*
X167613522Y-40917548D01*
X167676522Y-40900667D01*
X171476990Y-40900667D01*
X171525208Y-40910258D01*
X171566085Y-40937571D01*
X171862621Y-41234106D01*
X171889935Y-41274984D01*
X171899526Y-41323202D01*
X171899526Y-44342601D01*
X171889935Y-44390819D01*
X171862621Y-44431696D01*
X171747085Y-44547231D01*
X171631553Y-44662763D01*
X171590676Y-44690076D01*
X171542458Y-44699667D01*
X171125183Y-44699667D01*
X171124977Y-44699626D01*
X171100023Y-44699626D01*
X171099926Y-44699666D01*
X171099721Y-44699751D01*
X171099643Y-44699782D01*
X171099642Y-44699784D01*
X171099484Y-44700167D01*
X171099501Y-44725181D01*
X171099496Y-44725181D01*
X171099525Y-44725325D01*
X171099525Y-46280050D01*
X171083993Y-46340654D01*
X171041226Y-46386316D01*
X170981768Y-46405780D01*
X170963118Y-46407002D01*
X170666379Y-46466027D01*
X170379894Y-46563275D01*
X170108539Y-46697093D01*
X169856982Y-46865178D01*
X169820889Y-46896829D01*
X171062620Y-48138559D01*
X171089934Y-48179436D01*
X171099525Y-48227654D01*
X171099525Y-48589693D01*
X171085792Y-48646896D01*
X171047586Y-48691629D01*
X171026973Y-48700166D01*
X171047586Y-48708705D01*
X171085792Y-48753438D01*
X171099525Y-48810641D01*
X171099525Y-49172680D01*
X171089934Y-49220898D01*
X171062620Y-49261776D01*
X169820890Y-50503503D01*
X169820890Y-50503504D01*
X169856980Y-50535154D01*
X170108539Y-50703240D01*
X170379894Y-50837058D01*
X170666379Y-50934306D01*
X170963118Y-50993331D01*
X170981768Y-50994554D01*
X171041226Y-51014018D01*
X171083993Y-51059680D01*
X171099525Y-51120284D01*
X171099525Y-51873500D01*
X171082644Y-51936500D01*
X171036525Y-51982619D01*
X170973525Y-51999500D01*
X161425177Y-51999500D01*
X161424971Y-51999459D01*
X161400017Y-51999459D01*
X161399920Y-51999499D01*
X161399715Y-51999584D01*
X161399637Y-51999615D01*
X161399636Y-51999617D01*
X161399478Y-52000000D01*
X161399495Y-52025014D01*
X161399490Y-52025014D01*
X161399519Y-52025158D01*
X161399519Y-54974000D01*
X161382638Y-55037000D01*
X161336519Y-55083119D01*
X161273519Y-55100000D01*
X156799999Y-55100000D01*
X155037273Y-56960656D01*
X154995589Y-56989747D01*
X154945803Y-57000000D01*
X153599998Y-57000000D01*
X150598844Y-60001154D01*
X150538049Y-60034840D01*
X150468643Y-60031165D01*
X150411745Y-59991250D01*
X150392115Y-59944845D01*
X150390565Y-59945433D01*
X150368830Y-59888123D01*
X150324818Y-59772070D01*
X150228183Y-59632071D01*
X150100852Y-59519266D01*
X149992943Y-59462630D01*
X149943671Y-59416248D01*
X149925500Y-59351064D01*
X149925500Y-55506143D01*
X149944467Y-55439660D01*
X149995658Y-55393193D01*
X150063661Y-55380731D01*
X150128003Y-55406027D01*
X150169312Y-55461463D01*
X150175181Y-55476940D01*
X150175182Y-55476941D01*
X150271817Y-55616940D01*
X150399148Y-55729745D01*
X150549775Y-55808801D01*
X150714944Y-55849511D01*
X150885054Y-55849511D01*
X150885056Y-55849511D01*
X151050225Y-55808801D01*
X151200852Y-55729745D01*
X151328183Y-55616940D01*
X151424818Y-55476941D01*
X151485140Y-55317883D01*
X151505645Y-55149011D01*
X151485140Y-54980139D01*
X151424818Y-54821081D01*
X151328183Y-54681082D01*
X151200852Y-54568277D01*
X151050225Y-54489221D01*
X150909826Y-54454616D01*
X150850886Y-54421373D01*
X150487404Y-54057890D01*
X150460091Y-54017013D01*
X150450500Y-53968795D01*
X150450500Y-52674636D01*
X150464233Y-52617433D01*
X150502439Y-52572700D01*
X150556789Y-52550187D01*
X150615436Y-52554803D01*
X150665595Y-52585541D01*
X152279409Y-54199355D01*
X152292783Y-54216047D01*
X152294796Y-54217938D01*
X152294798Y-54217940D01*
X152321331Y-54242856D01*
X152345815Y-54265848D01*
X152348626Y-54268572D01*
X152360819Y-54280765D01*
X152368965Y-54288911D01*
X152372375Y-54291556D01*
X152381393Y-54299258D01*
X152414607Y-54330448D01*
X152433069Y-54340597D01*
X152449591Y-54351451D01*
X152466234Y-54364361D01*
X152466235Y-54364361D01*
X152466236Y-54364362D01*
X152508048Y-54382455D01*
X152518693Y-54387670D01*
X152558632Y-54409627D01*
X152579044Y-54414867D01*
X152597742Y-54421269D01*
X152617074Y-54429635D01*
X152632461Y-54432072D01*
X152662059Y-54436760D01*
X152673683Y-54439167D01*
X152689795Y-54443303D01*
X152717823Y-54450500D01*
X152738891Y-54450500D01*
X152758600Y-54452050D01*
X152779405Y-54455346D01*
X152824756Y-54451058D01*
X152836614Y-54450500D01*
X156001018Y-54450500D01*
X156034286Y-54458699D01*
X156034920Y-54456128D01*
X156049772Y-54459788D01*
X156049775Y-54459790D01*
X156214944Y-54500500D01*
X156385054Y-54500500D01*
X156385056Y-54500500D01*
X156550225Y-54459790D01*
X156550227Y-54459788D01*
X156565080Y-54456128D01*
X156565713Y-54458699D01*
X156598982Y-54450500D01*
X157214274Y-54450500D01*
X157235533Y-54452846D01*
X157238292Y-54452759D01*
X157238296Y-54452760D01*
X157308230Y-54450561D01*
X157312188Y-54450500D01*
X157340919Y-54450500D01*
X157340925Y-54450500D01*
X157345210Y-54449958D01*
X157357032Y-54449027D01*
X157402569Y-54447597D01*
X157414178Y-54444223D01*
X157422791Y-54441722D01*
X157442156Y-54437711D01*
X157463058Y-54435071D01*
X157505429Y-54418294D01*
X157516637Y-54414456D01*
X157560398Y-54401744D01*
X157578529Y-54391020D01*
X157596280Y-54382323D01*
X157615871Y-54374568D01*
X157652728Y-54347789D01*
X157662645Y-54341276D01*
X157701862Y-54318083D01*
X157701862Y-54318082D01*
X157701865Y-54318081D01*
X157716764Y-54303181D01*
X157731792Y-54290345D01*
X157748837Y-54277963D01*
X157777890Y-54242841D01*
X157785859Y-54234085D01*
X158957567Y-53062377D01*
X158988099Y-53039911D01*
X159100852Y-52980734D01*
X159228183Y-52867929D01*
X159324818Y-52727930D01*
X159385140Y-52568872D01*
X159405645Y-52400000D01*
X159385140Y-52231128D01*
X159324818Y-52072070D01*
X159228183Y-51932071D01*
X159100852Y-51819266D01*
X158950225Y-51740210D01*
X158785056Y-51699500D01*
X158614944Y-51699500D01*
X158449775Y-51740210D01*
X158299148Y-51819266D01*
X158179158Y-51925568D01*
X158171816Y-51932072D01*
X158075180Y-52072071D01*
X158064729Y-52099628D01*
X158036014Y-52144038D01*
X157067456Y-53112597D01*
X157026582Y-53139909D01*
X156978364Y-53149500D01*
X156598982Y-53149500D01*
X156565713Y-53141300D01*
X156565080Y-53143872D01*
X156550227Y-53140211D01*
X156550225Y-53140210D01*
X156385056Y-53099500D01*
X156214944Y-53099500D01*
X156049775Y-53140210D01*
X156049772Y-53140211D01*
X156034920Y-53143872D01*
X156034286Y-53141300D01*
X156001018Y-53149500D01*
X153121636Y-53149500D01*
X153073418Y-53139909D01*
X153032541Y-53112595D01*
X151487405Y-51567459D01*
X151460091Y-51526582D01*
X151450500Y-51478364D01*
X151450500Y-50485725D01*
X151452846Y-50464465D01*
X151452759Y-50461706D01*
X151452760Y-50461703D01*
X151450561Y-50391768D01*
X151450500Y-50387811D01*
X151450500Y-50359077D01*
X151449959Y-50354796D01*
X151449027Y-50342954D01*
X151448785Y-50335247D01*
X151447597Y-50297431D01*
X151441719Y-50277200D01*
X151437711Y-50257844D01*
X151435866Y-50243238D01*
X151435071Y-50236942D01*
X151418293Y-50194567D01*
X151414459Y-50183368D01*
X151401744Y-50139601D01*
X151391017Y-50121464D01*
X151382320Y-50103710D01*
X151374568Y-50084129D01*
X151347788Y-50047269D01*
X151341277Y-50037357D01*
X151318081Y-49998135D01*
X151303182Y-49983236D01*
X151290347Y-49968208D01*
X151277963Y-49951163D01*
X151242855Y-49922119D01*
X151234075Y-49914129D01*
X150020112Y-48700166D01*
X168952066Y-48700166D01*
X168971853Y-49002067D01*
X169030878Y-49298805D01*
X169128126Y-49585290D01*
X169261944Y-49856645D01*
X169430029Y-50108203D01*
X169461678Y-50144293D01*
X169461681Y-50144293D01*
X170884430Y-48721546D01*
X170919316Y-48700167D01*
X170884430Y-48678788D01*
X169461680Y-47256038D01*
X169430029Y-47292131D01*
X169261944Y-47543688D01*
X169128126Y-47815043D01*
X169030878Y-48101528D01*
X168971853Y-48398266D01*
X168952066Y-48700166D01*
X150020112Y-48700166D01*
X147556768Y-46236822D01*
X147543394Y-46220130D01*
X147541380Y-46218239D01*
X147541380Y-46218238D01*
X147536264Y-46213434D01*
X147506880Y-46171625D01*
X147496517Y-46121584D01*
X147496517Y-45754660D01*
X147496517Y-45754659D01*
X147481664Y-45660874D01*
X147424068Y-45547836D01*
X147424067Y-45547835D01*
X147424066Y-45547833D01*
X147334362Y-45458129D01*
X147221322Y-45400532D01*
X147217780Y-45399971D01*
X147127537Y-45385678D01*
X147127535Y-45385678D01*
X145364499Y-45385678D01*
X145270714Y-45400532D01*
X145157673Y-45458129D01*
X145067969Y-45547833D01*
X145010372Y-45660873D01*
X144995518Y-45754660D01*
X144995518Y-45897973D01*
X144979720Y-45959059D01*
X144936288Y-46004827D01*
X144876112Y-46023800D01*
X144814283Y-46011221D01*
X144766305Y-45970244D01*
X144667613Y-45829297D01*
X144512898Y-45674582D01*
X144333657Y-45549076D01*
X144135347Y-45456602D01*
X143923995Y-45399971D01*
X143706018Y-45380901D01*
X143488041Y-45399971D01*
X143276688Y-45456603D01*
X143263323Y-45462834D01*
X143078378Y-45549076D01*
X142899137Y-45674582D01*
X142744422Y-45829297D01*
X142618916Y-46008538D01*
X142550213Y-46155874D01*
X142503718Y-46208891D01*
X142436018Y-46228624D01*
X142368318Y-46208891D01*
X142321823Y-46155874D01*
X142305833Y-46121584D01*
X142253120Y-46008540D01*
X142250520Y-46004827D01*
X142127613Y-45829297D01*
X141972898Y-45674582D01*
X141793657Y-45549076D01*
X141595347Y-45456602D01*
X141383995Y-45399971D01*
X141166018Y-45380901D01*
X140948041Y-45399971D01*
X140736688Y-45456603D01*
X140723323Y-45462834D01*
X140538378Y-45549076D01*
X140359137Y-45674582D01*
X140204422Y-45829297D01*
X140078913Y-46008543D01*
X140070215Y-46027196D01*
X140034863Y-46072229D01*
X139983234Y-46096969D01*
X139925987Y-46096311D01*
X139874941Y-46070389D01*
X139840634Y-46024556D01*
X139824435Y-45987626D01*
X139701339Y-45799215D01*
X139548921Y-45633644D01*
X139371320Y-45495411D01*
X139173386Y-45388294D01*
X138960532Y-45315222D01*
X138880018Y-45301787D01*
X138880018Y-47970569D01*
X138960532Y-47957133D01*
X139173386Y-47884061D01*
X139371320Y-47776944D01*
X139548921Y-47638711D01*
X139701339Y-47473140D01*
X139824436Y-47284728D01*
X139840634Y-47247800D01*
X139874941Y-47201966D01*
X139925988Y-47176044D01*
X139983236Y-47175386D01*
X140034865Y-47200128D01*
X140070217Y-47245162D01*
X140078916Y-47263817D01*
X140204422Y-47443058D01*
X140359137Y-47597773D01*
X140359140Y-47597775D01*
X140359141Y-47597776D01*
X140538379Y-47723280D01*
X140736688Y-47815753D01*
X140948041Y-47872385D01*
X141166018Y-47891455D01*
X141367050Y-47873867D01*
X141421123Y-47880987D01*
X141467123Y-47910293D01*
X141920538Y-48363708D01*
X141923529Y-48366802D01*
X141965243Y-48411468D01*
X141965245Y-48411469D01*
X141998419Y-48431642D01*
X142009074Y-48438894D01*
X142040025Y-48462365D01*
X142055355Y-48468410D01*
X142074599Y-48477968D01*
X142088672Y-48486526D01*
X142109540Y-48492372D01*
X142126052Y-48496999D01*
X142138276Y-48501109D01*
X142174411Y-48515359D01*
X142190801Y-48517043D01*
X142211912Y-48521056D01*
X142227772Y-48525500D01*
X142266598Y-48525500D01*
X142279483Y-48526161D01*
X142282058Y-48526425D01*
X142318110Y-48530132D01*
X142331639Y-48527799D01*
X142334351Y-48527332D01*
X142355758Y-48525500D01*
X144394422Y-48525500D01*
X144442640Y-48535091D01*
X144483517Y-48562405D01*
X148337595Y-52416483D01*
X148364909Y-52457360D01*
X148374500Y-52505578D01*
X148374500Y-53073500D01*
X148357619Y-53136500D01*
X148311500Y-53182619D01*
X148248500Y-53199500D01*
X148190444Y-53199500D01*
X148025275Y-53240210D01*
X147943838Y-53282952D01*
X147874648Y-53319266D01*
X147747316Y-53432072D01*
X147650681Y-53572070D01*
X147590359Y-53731128D01*
X147574737Y-53859790D01*
X147569855Y-53900000D01*
X147583461Y-54012057D01*
X147589078Y-54058312D01*
X147577832Y-54127515D01*
X147531340Y-54179994D01*
X147463997Y-54199500D01*
X147414944Y-54199500D01*
X147249775Y-54240210D01*
X147099148Y-54319266D01*
X146996970Y-54409788D01*
X146971816Y-54432072D01*
X146875181Y-54572070D01*
X146814859Y-54731127D01*
X146804781Y-54814128D01*
X146792985Y-54854098D01*
X146768795Y-54888034D01*
X146736303Y-54920526D01*
X146733211Y-54923515D01*
X146688532Y-54965242D01*
X146668356Y-54998421D01*
X146661099Y-55009082D01*
X146637635Y-55040024D01*
X146631590Y-55055354D01*
X146622037Y-55074588D01*
X146613473Y-55088672D01*
X146602999Y-55126054D01*
X146598888Y-55138280D01*
X146584640Y-55174411D01*
X146582955Y-55190802D01*
X146578946Y-55211899D01*
X146574500Y-55227771D01*
X146574500Y-55266606D01*
X146573839Y-55279491D01*
X146569868Y-55318109D01*
X146572668Y-55334345D01*
X146574500Y-55355752D01*
X146574500Y-57895251D01*
X146558620Y-57956485D01*
X146514983Y-58002284D01*
X146454588Y-58021104D01*
X146392658Y-58008201D01*
X146344804Y-57966827D01*
X146336784Y-57955208D01*
X146304391Y-57908279D01*
X146177060Y-57795474D01*
X146026433Y-57716418D01*
X145861264Y-57675708D01*
X145691152Y-57675708D01*
X145536305Y-57713874D01*
X145525983Y-57716418D01*
X145375351Y-57795476D01*
X145326473Y-57838778D01*
X145293118Y-57860034D01*
X145265564Y-57872002D01*
X145245203Y-57878850D01*
X145229197Y-57882750D01*
X145195359Y-57901777D01*
X145183804Y-57907516D01*
X145145642Y-57924092D01*
X145075668Y-57932961D01*
X145011891Y-57902836D01*
X144997453Y-57890045D01*
X144943676Y-57842403D01*
X144793049Y-57763347D01*
X144698778Y-57740111D01*
X144653239Y-57718503D01*
X144619814Y-57680772D01*
X144603852Y-57632960D01*
X144603464Y-57629765D01*
X144543142Y-57470707D01*
X144512697Y-57426600D01*
X144446507Y-57330708D01*
X144319176Y-57217903D01*
X144168549Y-57138847D01*
X144003380Y-57098137D01*
X143833268Y-57098137D01*
X143668099Y-57138847D01*
X143517472Y-57217902D01*
X143517472Y-57217903D01*
X143390140Y-57330709D01*
X143293505Y-57470707D01*
X143233183Y-57629765D01*
X143212679Y-57798636D01*
X143233183Y-57967508D01*
X143293504Y-58126564D01*
X143293505Y-58126566D01*
X143293506Y-58126567D01*
X143370522Y-58238143D01*
X143387119Y-58272230D01*
X143392824Y-58309716D01*
X143392824Y-60087952D01*
X143392751Y-60092253D01*
X143390664Y-60153346D01*
X143399857Y-60191072D01*
X143402265Y-60203744D01*
X143407553Y-60242213D01*
X143414119Y-60257331D01*
X143420965Y-60277689D01*
X143424865Y-60293691D01*
X143424866Y-60293694D01*
X143424867Y-60293695D01*
X143443896Y-60327540D01*
X143449626Y-60339075D01*
X143465105Y-60374710D01*
X143469887Y-60380588D01*
X143496260Y-60438369D01*
X143491095Y-60501674D01*
X143455705Y-60554416D01*
X143442177Y-60566400D01*
X143345541Y-60706401D01*
X143285219Y-60865459D01*
X143275142Y-60948457D01*
X143263346Y-60988428D01*
X143239156Y-61022364D01*
X143066228Y-61195294D01*
X143040596Y-61220926D01*
X142990436Y-61251664D01*
X142931789Y-61256280D01*
X142877439Y-61233767D01*
X142839233Y-61189034D01*
X142825500Y-61131831D01*
X142825500Y-54369860D01*
X142835091Y-54321642D01*
X142862405Y-54280765D01*
X143980764Y-53162405D01*
X144021641Y-53135091D01*
X144069859Y-53125500D01*
X145389015Y-53125500D01*
X145433695Y-53133688D01*
X145472568Y-53157187D01*
X145499146Y-53180733D01*
X145506003Y-53184332D01*
X145649775Y-53259790D01*
X145814944Y-53300500D01*
X145985054Y-53300500D01*
X145985056Y-53300500D01*
X146150225Y-53259790D01*
X146300852Y-53180734D01*
X146428183Y-53067929D01*
X146524818Y-52927930D01*
X146585140Y-52768872D01*
X146605645Y-52600000D01*
X146585140Y-52431128D01*
X146524818Y-52272070D01*
X146428183Y-52132071D01*
X146300852Y-52019266D01*
X146300850Y-52019264D01*
X146289401Y-52009122D01*
X146290572Y-52007799D01*
X146262247Y-51982703D01*
X146240863Y-51926316D01*
X146248132Y-51866454D01*
X146285140Y-51768872D01*
X146305645Y-51600000D01*
X146285140Y-51431128D01*
X146224818Y-51272070D01*
X146128183Y-51132071D01*
X146000852Y-51019266D01*
X145850225Y-50940210D01*
X145685056Y-50899500D01*
X145514944Y-50899500D01*
X145373729Y-50934306D01*
X145349775Y-50940210D01*
X145199146Y-51019266D01*
X145172568Y-51042813D01*
X145133695Y-51066312D01*
X145089015Y-51074500D01*
X143711149Y-51074500D01*
X143706848Y-51074427D01*
X143695564Y-51074041D01*
X143645754Y-51072340D01*
X143645751Y-51072340D01*
X143608027Y-51081532D01*
X143595359Y-51083940D01*
X143556887Y-51089228D01*
X143541770Y-51095795D01*
X143521411Y-51102642D01*
X143505405Y-51106542D01*
X143471567Y-51125569D01*
X143460015Y-51131307D01*
X143424389Y-51146782D01*
X143411608Y-51157180D01*
X143393852Y-51169265D01*
X143379487Y-51177342D01*
X143352025Y-51204803D01*
X143342454Y-51213440D01*
X143312335Y-51237945D01*
X143302830Y-51251410D01*
X143288991Y-51267837D01*
X141569693Y-52987136D01*
X141515653Y-53019066D01*
X141452914Y-53020962D01*
X141415058Y-53001577D01*
X141414398Y-53002836D01*
X141400853Y-52995727D01*
X141400852Y-52995726D01*
X141250225Y-52916670D01*
X141085056Y-52875960D01*
X140914944Y-52875960D01*
X140749775Y-52916670D01*
X140599148Y-52995726D01*
X140538450Y-53049500D01*
X140471816Y-53108532D01*
X140375181Y-53248530D01*
X140314859Y-53407588D01*
X140294355Y-53576460D01*
X140314859Y-53745331D01*
X140375181Y-53904389D01*
X140427196Y-53979745D01*
X140443795Y-54013835D01*
X140449500Y-54051321D01*
X140449500Y-55248356D01*
X140433620Y-55309590D01*
X140389983Y-55355389D01*
X140329588Y-55374209D01*
X140267659Y-55361306D01*
X140242213Y-55339306D01*
X140239635Y-55342217D01*
X140228183Y-55332072D01*
X140228183Y-55332071D01*
X140100852Y-55219266D01*
X139950225Y-55140210D01*
X139785056Y-55099500D01*
X139614944Y-55099500D01*
X139449775Y-55140210D01*
X139299148Y-55219265D01*
X139299148Y-55219266D01*
X139171816Y-55332072D01*
X139075181Y-55472070D01*
X139014859Y-55631128D01*
X139009667Y-55673888D01*
X138997871Y-55713858D01*
X138973682Y-55747792D01*
X138640593Y-56080881D01*
X138590436Y-56111618D01*
X138531789Y-56116234D01*
X138477439Y-56093721D01*
X138439233Y-56048988D01*
X138425500Y-55991785D01*
X138425500Y-53636579D01*
X138431205Y-53599093D01*
X138447801Y-53565006D01*
X138524818Y-53453430D01*
X138585140Y-53294372D01*
X138605645Y-53125500D01*
X138585140Y-52956628D01*
X138524818Y-52797570D01*
X138428183Y-52657571D01*
X138300852Y-52544766D01*
X138150225Y-52465710D01*
X137985056Y-52425000D01*
X137820307Y-52425000D01*
X137761752Y-52410568D01*
X137716611Y-52370577D01*
X137695226Y-52314188D01*
X137685140Y-52231128D01*
X137624818Y-52072070D01*
X137588370Y-52019266D01*
X137528183Y-51932071D01*
X137400852Y-51819266D01*
X137250225Y-51740210D01*
X137085056Y-51699500D01*
X136914944Y-51699500D01*
X136749774Y-51740210D01*
X136749775Y-51740210D01*
X136599146Y-51819266D01*
X136572568Y-51842813D01*
X136533695Y-51866312D01*
X136489015Y-51874500D01*
X135911149Y-51874500D01*
X135906848Y-51874427D01*
X135895564Y-51874041D01*
X135845754Y-51872340D01*
X135845751Y-51872340D01*
X135808027Y-51881532D01*
X135795359Y-51883940D01*
X135756887Y-51889229D01*
X135741767Y-51895796D01*
X135721414Y-51902640D01*
X135705409Y-51906541D01*
X135671568Y-51925568D01*
X135660018Y-51931304D01*
X135624391Y-51946779D01*
X135611602Y-51957184D01*
X135593849Y-51969267D01*
X135579488Y-51977342D01*
X135552031Y-52004798D01*
X135542459Y-52013436D01*
X135512335Y-52037944D01*
X135502831Y-52051409D01*
X135488990Y-52067839D01*
X133954085Y-53602744D01*
X133895144Y-53635988D01*
X133827505Y-53633944D01*
X133770678Y-53597202D01*
X133741054Y-53536361D01*
X133747177Y-53468971D01*
X133785140Y-53368872D01*
X133790332Y-53326107D01*
X133802126Y-53286143D01*
X133826314Y-53252209D01*
X135791119Y-51287405D01*
X135831997Y-51260091D01*
X135880215Y-51250500D01*
X137217236Y-51250500D01*
X137261917Y-51258688D01*
X137293352Y-51277691D01*
X137299145Y-51280731D01*
X137299148Y-51280734D01*
X137449775Y-51359790D01*
X137614944Y-51400500D01*
X137785054Y-51400500D01*
X137785056Y-51400500D01*
X137950225Y-51359790D01*
X138100852Y-51280734D01*
X138228183Y-51167929D01*
X138324818Y-51027930D01*
X138385140Y-50868872D01*
X138405645Y-50700000D01*
X138385140Y-50531128D01*
X138324818Y-50372070D01*
X138228183Y-50232071D01*
X138100852Y-50119266D01*
X137950225Y-50040210D01*
X137785056Y-49999500D01*
X137614944Y-49999500D01*
X137449775Y-50040210D01*
X137328787Y-50103710D01*
X137293352Y-50122308D01*
X137261917Y-50141312D01*
X137217236Y-50149500D01*
X135611561Y-50149500D01*
X135607260Y-50149427D01*
X135602233Y-50149255D01*
X135543174Y-50147238D01*
X135543173Y-50147238D01*
X135503353Y-50156941D01*
X135490681Y-50159349D01*
X135450079Y-50164929D01*
X135433771Y-50172013D01*
X135413411Y-50178860D01*
X135396149Y-50183066D01*
X135360416Y-50203157D01*
X135348873Y-50208889D01*
X135328036Y-50217941D01*
X135311277Y-50225221D01*
X135297493Y-50236435D01*
X135279738Y-50248519D01*
X135264242Y-50257232D01*
X135235255Y-50286218D01*
X135225683Y-50294857D01*
X135193889Y-50320724D01*
X135183637Y-50335247D01*
X135169798Y-50351675D01*
X133049112Y-52472362D01*
X132990171Y-52505606D01*
X132849774Y-52540210D01*
X132735858Y-52599999D01*
X132699148Y-52619266D01*
X132607393Y-52700554D01*
X132571816Y-52732072D01*
X132475181Y-52872070D01*
X132414859Y-53031128D01*
X132394355Y-53199999D01*
X132414859Y-53368871D01*
X132475181Y-53527929D01*
X132500771Y-53565002D01*
X132571817Y-53667929D01*
X132699148Y-53780734D01*
X132849775Y-53859790D01*
X133014944Y-53900500D01*
X133185054Y-53900500D01*
X133185056Y-53900500D01*
X133350225Y-53859790D01*
X133350227Y-53859788D01*
X133365079Y-53856128D01*
X133365472Y-53857726D01*
X133416265Y-53847459D01*
X133482127Y-53872888D01*
X133523972Y-53929751D01*
X133528662Y-54000195D01*
X133494725Y-54062104D01*
X129964236Y-57592595D01*
X129923359Y-57619909D01*
X129875141Y-57629500D01*
X129215001Y-57629500D01*
X129147302Y-57609768D01*
X129100807Y-57556751D01*
X129087103Y-57527363D01*
X128961595Y-57348119D01*
X128806880Y-57193404D01*
X128627639Y-57067898D01*
X128480305Y-56999195D01*
X128427288Y-56952700D01*
X128407555Y-56885000D01*
X128427288Y-56817300D01*
X128480305Y-56770805D01*
X128484803Y-56768707D01*
X128627639Y-56702102D01*
X128806877Y-56576598D01*
X128961598Y-56421877D01*
X129087102Y-56242639D01*
X129179575Y-56044330D01*
X129236207Y-55832977D01*
X129255277Y-55615000D01*
X129236207Y-55397023D01*
X129234264Y-55389775D01*
X129234264Y-55324553D01*
X129266874Y-55268070D01*
X132999356Y-51535588D01*
X133016045Y-51522218D01*
X133017935Y-51520204D01*
X133017940Y-51520202D01*
X133065865Y-51469165D01*
X133068558Y-51466386D01*
X133088911Y-51446035D01*
X133091548Y-51442634D01*
X133099257Y-51433606D01*
X133130448Y-51400393D01*
X133140597Y-51381930D01*
X133151455Y-51365402D01*
X133164362Y-51348764D01*
X133182456Y-51306946D01*
X133187669Y-51296306D01*
X133209627Y-51256368D01*
X133214868Y-51235950D01*
X133221266Y-51217262D01*
X133229635Y-51197927D01*
X133236760Y-51152933D01*
X133239169Y-51141305D01*
X133241737Y-51131307D01*
X133250500Y-51097177D01*
X133250500Y-51076109D01*
X133252051Y-51056398D01*
X133252133Y-51055881D01*
X133255346Y-51035595D01*
X133251058Y-50990243D01*
X133250500Y-50978386D01*
X133250500Y-48583301D01*
X133258688Y-48538621D01*
X133285140Y-48468871D01*
X133285930Y-48462364D01*
X133305645Y-48300000D01*
X133285140Y-48131128D01*
X133224818Y-47972070D01*
X133128183Y-47832071D01*
X133000852Y-47719266D01*
X132850225Y-47640210D01*
X132685056Y-47599500D01*
X132514944Y-47599500D01*
X132349775Y-47640210D01*
X132199147Y-47719266D01*
X132199148Y-47719266D01*
X132071816Y-47832072D01*
X131975181Y-47972070D01*
X131914859Y-48131128D01*
X131894355Y-48300000D01*
X131914859Y-48468871D01*
X131941312Y-48538621D01*
X131949500Y-48583301D01*
X131949500Y-50693364D01*
X131939909Y-50741582D01*
X131912595Y-50782459D01*
X128346929Y-54348123D01*
X128290445Y-54380735D01*
X128225225Y-54380735D01*
X128217977Y-54378793D01*
X128000000Y-54359723D01*
X127999999Y-54359723D01*
X127891011Y-54369258D01*
X127782023Y-54378793D01*
X127570670Y-54435425D01*
X127570667Y-54435426D01*
X127570668Y-54435426D01*
X127372360Y-54527898D01*
X127193119Y-54653404D01*
X127038404Y-54808119D01*
X126912898Y-54987360D01*
X126842523Y-55138280D01*
X126820425Y-55185670D01*
X126763793Y-55397023D01*
X126750668Y-55547049D01*
X126744723Y-55615000D01*
X126763793Y-55832977D01*
X126820424Y-56044329D01*
X126912898Y-56242639D01*
X127038404Y-56421880D01*
X127193119Y-56576595D01*
X127193122Y-56576597D01*
X127193123Y-56576598D01*
X127372361Y-56702102D01*
X127511485Y-56766976D01*
X127519695Y-56770805D01*
X127572712Y-56817300D01*
X127592445Y-56885000D01*
X127572712Y-56952700D01*
X127519695Y-56999195D01*
X127372361Y-57067898D01*
X127193119Y-57193404D01*
X127038404Y-57348119D01*
X126912898Y-57527360D01*
X126843723Y-57675708D01*
X126820425Y-57725670D01*
X126763793Y-57937023D01*
X126744723Y-58154999D01*
X126744723Y-58155000D01*
X126763793Y-58372977D01*
X126820424Y-58584329D01*
X126912898Y-58782639D01*
X127038404Y-58961880D01*
X127193119Y-59116595D01*
X127193122Y-59116597D01*
X127193123Y-59116598D01*
X127372361Y-59242102D01*
X127473052Y-59289055D01*
X127519695Y-59310805D01*
X127572712Y-59357300D01*
X127592445Y-59425000D01*
X127572712Y-59492700D01*
X127519695Y-59539195D01*
X127372361Y-59607898D01*
X127193119Y-59733404D01*
X127038404Y-59888119D01*
X126912898Y-60067360D01*
X126846758Y-60209199D01*
X126820425Y-60265670D01*
X126763793Y-60477023D01*
X126744723Y-60695000D01*
X126746319Y-60713238D01*
X126763793Y-60912977D01*
X126820424Y-61124329D01*
X126912898Y-61322639D01*
X127038404Y-61501880D01*
X127193119Y-61656595D01*
X127193122Y-61656597D01*
X127193123Y-61656598D01*
X127372361Y-61782102D01*
X127511485Y-61846976D01*
X127519695Y-61850805D01*
X127572712Y-61897300D01*
X127592445Y-61965000D01*
X127572712Y-62032700D01*
X127519695Y-62079195D01*
X127372361Y-62147898D01*
X127193119Y-62273404D01*
X127038404Y-62428119D01*
X126912898Y-62607360D01*
X126859006Y-62722933D01*
X126820425Y-62805670D01*
X126788335Y-62925432D01*
X126763793Y-63017024D01*
X126744723Y-63235000D01*
X126763793Y-63452977D01*
X126820424Y-63664329D01*
X126912898Y-63862639D01*
X127038404Y-64041880D01*
X127198429Y-64201905D01*
X127229167Y-64252064D01*
X127233783Y-64310711D01*
X127211270Y-64365061D01*
X127166537Y-64403267D01*
X127109334Y-64417000D01*
X127101411Y-64417000D01*
X127040906Y-64423505D01*
X126904037Y-64474554D01*
X126787095Y-64562095D01*
X126699554Y-64679037D01*
X126648505Y-64815906D01*
X126642000Y-64876411D01*
X126642000Y-65521000D01*
X129358000Y-65521000D01*
X129358000Y-65476500D01*
X129374881Y-65413500D01*
X129421000Y-65367381D01*
X129484000Y-65350500D01*
X129489335Y-65350500D01*
X129530320Y-65350500D01*
X129543205Y-65351161D01*
X129545942Y-65351442D01*
X129583972Y-65355352D01*
X129598545Y-65352839D01*
X129601489Y-65352332D01*
X129622896Y-65350500D01*
X137723500Y-65350500D01*
X137786500Y-65367381D01*
X137832619Y-65413500D01*
X137849500Y-65476500D01*
X137849500Y-66779205D01*
X137836785Y-66834364D01*
X137801206Y-66878391D01*
X137749944Y-66902399D01*
X137693345Y-66901543D01*
X137685057Y-66899500D01*
X137685056Y-66899500D01*
X137514944Y-66899500D01*
X137349775Y-66940210D01*
X137199148Y-67019266D01*
X137078113Y-67126494D01*
X137060365Y-67142217D01*
X137058049Y-67139603D01*
X137034981Y-67160055D01*
X136976401Y-67174500D01*
X131611149Y-67174500D01*
X131606848Y-67174427D01*
X131592676Y-67173942D01*
X131545754Y-67172340D01*
X131545752Y-67172340D01*
X131508029Y-67181532D01*
X131495360Y-67183940D01*
X131456887Y-67189228D01*
X131441770Y-67195795D01*
X131421407Y-67202643D01*
X131405405Y-67206542D01*
X131371567Y-67225568D01*
X131360019Y-67231304D01*
X131324390Y-67246781D01*
X131311601Y-67257185D01*
X131293852Y-67269264D01*
X131279490Y-67277340D01*
X131252031Y-67304798D01*
X131242459Y-67313436D01*
X131212335Y-67337944D01*
X131202831Y-67351409D01*
X131188990Y-67367839D01*
X128636303Y-69920526D01*
X128633211Y-69923515D01*
X128588532Y-69965242D01*
X128568356Y-69998421D01*
X128561099Y-70009082D01*
X128537635Y-70040024D01*
X128531590Y-70055354D01*
X128522037Y-70074588D01*
X128513473Y-70088672D01*
X128502999Y-70126054D01*
X128498888Y-70138280D01*
X128484640Y-70174411D01*
X128482955Y-70190802D01*
X128478946Y-70211899D01*
X128474500Y-70227771D01*
X128474500Y-70266606D01*
X128473839Y-70279491D01*
X128469868Y-70318109D01*
X128472668Y-70334345D01*
X128474500Y-70355752D01*
X128474500Y-72388921D01*
X128468795Y-72426407D01*
X128452198Y-72460493D01*
X128424929Y-72500000D01*
X128375180Y-72572072D01*
X128349214Y-72640542D01*
X128309209Y-72694969D01*
X128246842Y-72720912D01*
X128180037Y-72710917D01*
X128127995Y-72667855D01*
X128105672Y-72604103D01*
X128092182Y-72398286D01*
X128033157Y-72101548D01*
X127935909Y-71815063D01*
X127802091Y-71543708D01*
X127634005Y-71292149D01*
X127602355Y-71256059D01*
X127602353Y-71256059D01*
X126215595Y-72642819D01*
X126165436Y-72673557D01*
X126106789Y-72678173D01*
X126052439Y-72655660D01*
X126014233Y-72610927D01*
X126000500Y-72553724D01*
X126000500Y-72191685D01*
X126010091Y-72143467D01*
X126037405Y-72102590D01*
X127243144Y-70896850D01*
X127243144Y-70896847D01*
X127207054Y-70865198D01*
X126955496Y-70697113D01*
X126684141Y-70563295D01*
X126397656Y-70466047D01*
X126101919Y-70407222D01*
X126049796Y-70383606D01*
X126013494Y-70339371D01*
X126000500Y-70283643D01*
X126000500Y-68725338D01*
X126000528Y-68725194D01*
X126000524Y-68725194D01*
X126000539Y-68700182D01*
X126000541Y-68700180D01*
X126000383Y-68699797D01*
X126000381Y-68699796D01*
X126000380Y-68699795D01*
X126000305Y-68699764D01*
X126000096Y-68699678D01*
X126000002Y-68699639D01*
X125975048Y-68699639D01*
X125974842Y-68699680D01*
X125634030Y-68699680D01*
X125585812Y-68690089D01*
X125544934Y-68662775D01*
X125237403Y-68355243D01*
X125210090Y-68314366D01*
X125200499Y-68266148D01*
X125200499Y-66029000D01*
X126642000Y-66029000D01*
X126642000Y-66673589D01*
X126648505Y-66734093D01*
X126699554Y-66870962D01*
X126787095Y-66987904D01*
X126904037Y-67075445D01*
X127040906Y-67126494D01*
X127101411Y-67133000D01*
X127746000Y-67133000D01*
X127746000Y-66029000D01*
X128254000Y-66029000D01*
X128254000Y-67133000D01*
X128898589Y-67133000D01*
X128959093Y-67126494D01*
X129095962Y-67075445D01*
X129212904Y-66987904D01*
X129300445Y-66870962D01*
X129351494Y-66734093D01*
X129358000Y-66673589D01*
X129358000Y-66029000D01*
X128254000Y-66029000D01*
X127746000Y-66029000D01*
X126642000Y-66029000D01*
X125200499Y-66029000D01*
X125200499Y-53232550D01*
X125210090Y-53184332D01*
X125237404Y-53143455D01*
X125643283Y-52737576D01*
X125684160Y-52710262D01*
X125732378Y-52700671D01*
X125974842Y-52700671D01*
X125974985Y-52700699D01*
X125974986Y-52700695D01*
X125999997Y-52700710D01*
X126000000Y-52700712D01*
X126000383Y-52700554D01*
X126000500Y-52700270D01*
X126000541Y-52700171D01*
X126000541Y-52675219D01*
X126000500Y-52675013D01*
X126000500Y-51116711D01*
X126013494Y-51060983D01*
X126049796Y-51016748D01*
X126101919Y-50993132D01*
X126397656Y-50934306D01*
X126684141Y-50837058D01*
X126955496Y-50703240D01*
X127207055Y-50535154D01*
X127243144Y-50503504D01*
X127243144Y-50503502D01*
X126037405Y-49297764D01*
X126010091Y-49256887D01*
X126000500Y-49208669D01*
X126000500Y-48846630D01*
X126014233Y-48789427D01*
X126052439Y-48744694D01*
X126106789Y-48722181D01*
X126165436Y-48726797D01*
X126215595Y-48757535D01*
X127602353Y-50144293D01*
X127602355Y-50144293D01*
X127634005Y-50108204D01*
X127802091Y-49856645D01*
X127935909Y-49585290D01*
X128033157Y-49298805D01*
X128092182Y-49002067D01*
X128111969Y-48700166D01*
X128092182Y-48398266D01*
X128033157Y-48101528D01*
X127935909Y-47815043D01*
X127802091Y-47543688D01*
X127634005Y-47292129D01*
X127602355Y-47256039D01*
X127602353Y-47256039D01*
X126215595Y-48642799D01*
X126165436Y-48673537D01*
X126106789Y-48678153D01*
X126052439Y-48655640D01*
X126014233Y-48610907D01*
X126000500Y-48553704D01*
X126000500Y-48191665D01*
X126010091Y-48143447D01*
X126037405Y-48102570D01*
X127243144Y-46896830D01*
X127243144Y-46896827D01*
X127235562Y-46890178D01*
X137289473Y-46890178D01*
X137337195Y-47078629D01*
X137427598Y-47284726D01*
X137550696Y-47473140D01*
X137703114Y-47638711D01*
X137880715Y-47776944D01*
X138078649Y-47884061D01*
X138291503Y-47957133D01*
X138372018Y-47970569D01*
X138372018Y-46890178D01*
X137289473Y-46890178D01*
X127235562Y-46890178D01*
X127207054Y-46865178D01*
X126955496Y-46697093D01*
X126684141Y-46563275D01*
X126397656Y-46466027D01*
X126101919Y-46407202D01*
X126049796Y-46383586D01*
X126048640Y-46382177D01*
X137289473Y-46382177D01*
X137289474Y-46382178D01*
X138372018Y-46382178D01*
X138372018Y-45301787D01*
X138291503Y-45315222D01*
X138078649Y-45388294D01*
X137880715Y-45495411D01*
X137703114Y-45633644D01*
X137550696Y-45799215D01*
X137427598Y-45987629D01*
X137337195Y-46193726D01*
X137289473Y-46382177D01*
X126048640Y-46382177D01*
X126013494Y-46339351D01*
X126000500Y-46283623D01*
X126000500Y-44725325D01*
X126000528Y-44725181D01*
X126000524Y-44725181D01*
X126000539Y-44700169D01*
X126000541Y-44700167D01*
X126000383Y-44699784D01*
X126000381Y-44699783D01*
X126000380Y-44699782D01*
X126000305Y-44699751D01*
X126000096Y-44699665D01*
X126000002Y-44699626D01*
X125975048Y-44699626D01*
X125974842Y-44699667D01*
X125765787Y-44699667D01*
X125717569Y-44690076D01*
X125676691Y-44662762D01*
X125237404Y-44223473D01*
X125210091Y-44182596D01*
X125200500Y-44134378D01*
X125200500Y-41502768D01*
X125210091Y-41454550D01*
X125237404Y-41413673D01*
X125713504Y-40937572D01*
X125754382Y-40910258D01*
X125802600Y-40900667D01*
X129923503Y-40900667D01*
X129986503Y-40917548D01*
G37*
%TD.AperFunction*%
%TA.AperFunction,Conductor*%
G36*
X137325003Y-54223851D02*
G01*
X137361450Y-54268126D01*
X137374500Y-54323968D01*
X137374500Y-63388921D01*
X137368795Y-63426407D01*
X137352198Y-63460493D01*
X137327249Y-63496639D01*
X137275180Y-63572072D01*
X137214859Y-63731128D01*
X137194355Y-63899999D01*
X137214859Y-64068871D01*
X137218633Y-64078820D01*
X137225902Y-64138687D01*
X137204517Y-64195076D01*
X137159376Y-64235067D01*
X137100821Y-64249500D01*
X136917574Y-64249500D01*
X136850231Y-64229994D01*
X136803739Y-64177515D01*
X136792493Y-64108312D01*
X136805645Y-64000000D01*
X136785140Y-63831128D01*
X136759675Y-63763983D01*
X136751551Y-63723267D01*
X136750562Y-63691765D01*
X136750500Y-63687811D01*
X136750500Y-63659077D01*
X136749959Y-63654796D01*
X136749027Y-63642955D01*
X136748998Y-63642026D01*
X136747597Y-63597431D01*
X136741721Y-63577203D01*
X136737711Y-63557842D01*
X136735546Y-63540704D01*
X136735071Y-63536942D01*
X136718298Y-63494578D01*
X136714459Y-63483368D01*
X136701744Y-63439601D01*
X136691017Y-63421464D01*
X136682320Y-63403710D01*
X136674568Y-63384129D01*
X136647788Y-63347269D01*
X136641277Y-63337357D01*
X136618081Y-63298135D01*
X136603182Y-63283236D01*
X136590347Y-63268208D01*
X136577963Y-63251163D01*
X136558425Y-63235000D01*
X136542855Y-63222119D01*
X136534075Y-63214129D01*
X133220590Y-59900644D01*
X133207216Y-59883951D01*
X133154183Y-59834150D01*
X133151371Y-59831425D01*
X133131035Y-59811089D01*
X133131034Y-59811088D01*
X133131032Y-59811086D01*
X133127622Y-59808441D01*
X133118602Y-59800737D01*
X133085391Y-59769550D01*
X133066936Y-59759405D01*
X133050410Y-59748550D01*
X133033762Y-59735636D01*
X132991957Y-59717545D01*
X132981299Y-59712324D01*
X132941369Y-59690373D01*
X132920955Y-59685131D01*
X132902255Y-59678728D01*
X132882925Y-59670364D01*
X132837932Y-59663237D01*
X132826312Y-59660831D01*
X132782177Y-59649500D01*
X132761115Y-59649500D01*
X132741404Y-59647949D01*
X132740088Y-59647740D01*
X132720595Y-59644653D01*
X132720594Y-59644653D01*
X132675235Y-59648941D01*
X132663377Y-59649500D01*
X132398982Y-59649500D01*
X132365713Y-59641300D01*
X132365080Y-59643872D01*
X132350227Y-59640211D01*
X132350225Y-59640210D01*
X132185056Y-59599500D01*
X132014944Y-59599500D01*
X131849775Y-59640210D01*
X131699148Y-59719266D01*
X131572882Y-59831128D01*
X131571816Y-59832072D01*
X131475181Y-59972070D01*
X131414859Y-60131128D01*
X131394355Y-60299999D01*
X131414859Y-60468871D01*
X131475181Y-60627929D01*
X131502319Y-60667245D01*
X131571817Y-60767929D01*
X131699148Y-60880734D01*
X131849775Y-60959790D01*
X132014944Y-61000500D01*
X132185054Y-61000500D01*
X132185056Y-61000500D01*
X132350225Y-60959790D01*
X132350231Y-60959786D01*
X132353123Y-60959074D01*
X132417112Y-60960041D01*
X132472372Y-60992318D01*
X135360253Y-63880199D01*
X135390266Y-63928192D01*
X135396239Y-63984477D01*
X135394820Y-63996172D01*
X135394355Y-64000002D01*
X135407507Y-64108312D01*
X135396261Y-64177515D01*
X135349769Y-64229994D01*
X135282426Y-64249500D01*
X129845215Y-64249500D01*
X129796997Y-64239909D01*
X129756119Y-64212595D01*
X129236990Y-63693465D01*
X129204379Y-63636981D01*
X129204379Y-63571759D01*
X129221496Y-63507877D01*
X129236207Y-63452977D01*
X129255277Y-63235000D01*
X129236207Y-63017023D01*
X129179575Y-62805670D01*
X129087102Y-62607362D01*
X129083450Y-62602147D01*
X128977795Y-62451255D01*
X128961598Y-62428123D01*
X128961597Y-62428122D01*
X128961595Y-62428119D01*
X128806880Y-62273404D01*
X128627637Y-62147896D01*
X128480304Y-62079193D01*
X128427287Y-62032698D01*
X128407555Y-61964998D01*
X128427288Y-61897299D01*
X128480304Y-61850805D01*
X128627639Y-61782102D01*
X128806877Y-61656598D01*
X128961598Y-61501877D01*
X129087102Y-61322639D01*
X129129219Y-61232315D01*
X129155510Y-61195294D01*
X129193217Y-61169998D01*
X129193720Y-61169780D01*
X129207501Y-61158567D01*
X129225264Y-61146477D01*
X129240759Y-61137766D01*
X129269742Y-61108781D01*
X129279311Y-61100145D01*
X129311108Y-61074278D01*
X129321359Y-61059754D01*
X129335197Y-61043326D01*
X136041119Y-54337404D01*
X136081996Y-54310091D01*
X136130214Y-54300500D01*
X136167236Y-54300500D01*
X136211917Y-54308688D01*
X136243352Y-54327691D01*
X136249145Y-54330731D01*
X136249148Y-54330734D01*
X136399775Y-54409790D01*
X136564944Y-54450500D01*
X136735054Y-54450500D01*
X136735056Y-54450500D01*
X136900225Y-54409790D01*
X137050852Y-54330734D01*
X137164947Y-54229654D01*
X137215399Y-54202394D01*
X137272708Y-54200315D01*
X137325003Y-54223851D01*
G37*
%TD.AperFunction*%
%TA.AperFunction,Conductor*%
G36*
X140286681Y-57428643D02*
G01*
X140343508Y-57465383D01*
X140373133Y-57526224D01*
X140367010Y-57593617D01*
X140314859Y-57731130D01*
X140301101Y-57844443D01*
X140279389Y-57900000D01*
X140301101Y-57955557D01*
X140314859Y-58068871D01*
X140375181Y-58227929D01*
X140375182Y-58227930D01*
X140471817Y-58367929D01*
X140599148Y-58480734D01*
X140749775Y-58559790D01*
X140914944Y-58600500D01*
X141085056Y-58600500D01*
X141085057Y-58600500D01*
X141118345Y-58592295D01*
X141174944Y-58591439D01*
X141226206Y-58615448D01*
X141261785Y-58659474D01*
X141274500Y-58714633D01*
X141274500Y-60110014D01*
X141261785Y-60165173D01*
X141226207Y-60209199D01*
X141174945Y-60233208D01*
X141118347Y-60232353D01*
X140985056Y-60199500D01*
X140814944Y-60199500D01*
X140649775Y-60240210D01*
X140499148Y-60319265D01*
X140499148Y-60319266D01*
X140371817Y-60432070D01*
X140340788Y-60477024D01*
X140288154Y-60553278D01*
X140279716Y-60565502D01*
X140231862Y-60606875D01*
X140169932Y-60619778D01*
X140109537Y-60600958D01*
X140065900Y-60555159D01*
X140050020Y-60493925D01*
X140050020Y-57970745D01*
X140065654Y-57909955D01*
X140075025Y-57899999D01*
X140065654Y-57890045D01*
X140050020Y-57829255D01*
X140050020Y-57622117D01*
X140059611Y-57573900D01*
X140086923Y-57533023D01*
X140104760Y-57515186D01*
X140160103Y-57459842D01*
X140219042Y-57426600D01*
X140286681Y-57428643D01*
G37*
%TD.AperFunction*%
%TA.AperFunction,Conductor*%
G36*
X147328598Y-47863950D02*
G01*
X147372541Y-47892487D01*
X148488994Y-49008940D01*
X148521473Y-49064934D01*
X148521864Y-49129665D01*
X148490065Y-49186047D01*
X148434467Y-49219200D01*
X148369746Y-49220374D01*
X148285056Y-49199500D01*
X148114944Y-49199500D01*
X147949775Y-49240210D01*
X147840116Y-49297764D01*
X147799148Y-49319266D01*
X147660365Y-49442217D01*
X147659172Y-49440870D01*
X147637273Y-49461173D01*
X147585129Y-49477853D01*
X147530832Y-49470843D01*
X147484634Y-49441465D01*
X146144941Y-48101772D01*
X146114203Y-48051613D01*
X146109587Y-47992966D01*
X146132100Y-47938616D01*
X146176833Y-47900410D01*
X146234036Y-47886677D01*
X147127536Y-47886677D01*
X147221322Y-47871824D01*
X147226240Y-47869317D01*
X147276847Y-47855755D01*
X147328598Y-47863950D01*
G37*
%TD.AperFunction*%
%TD*%
%TA.AperFunction,Conductor*%
%TO.N,+24V*%
G36*
X132406503Y-86349560D02*
G01*
X132452622Y-86395679D01*
X132469503Y-86458679D01*
X132469503Y-87579485D01*
X132469500Y-87579500D01*
X132469500Y-87684302D01*
X132469517Y-87684387D01*
X132469517Y-87688571D01*
X132494610Y-87798529D01*
X132543542Y-87900146D01*
X132613860Y-87988326D01*
X132702038Y-88058648D01*
X132803653Y-88107584D01*
X132854362Y-88119158D01*
X132913609Y-88132681D01*
X132913610Y-88132681D01*
X132970002Y-88132681D01*
X132970502Y-88132681D01*
X133022681Y-88132681D01*
X133022696Y-88132678D01*
X133039018Y-88132678D01*
X133102018Y-88149559D01*
X133148137Y-88195678D01*
X133165018Y-88258678D01*
X133165018Y-92737178D01*
X144088018Y-92737178D01*
X144151018Y-92754059D01*
X144197137Y-92800178D01*
X144214018Y-92863178D01*
X144214018Y-117870752D01*
X144204427Y-117918970D01*
X144177112Y-117959847D01*
X142510859Y-119626102D01*
X140988688Y-121148273D01*
X140947811Y-121175587D01*
X140899593Y-121185178D01*
X133799018Y-121185178D01*
X133736018Y-121168297D01*
X133689899Y-121122178D01*
X133673018Y-121059178D01*
X133673018Y-100357178D01*
X133673017Y-100357177D01*
X127954278Y-100232857D01*
X127892443Y-100215083D01*
X127847445Y-100169096D01*
X127831018Y-100106888D01*
X127831018Y-97816178D01*
X127847899Y-97753178D01*
X127894018Y-97707059D01*
X127957018Y-97690178D01*
X128466018Y-97690178D01*
X128466018Y-91466178D01*
X128482899Y-91403178D01*
X128529018Y-91357059D01*
X128592018Y-91340178D01*
X129736018Y-91340178D01*
X129736018Y-88258678D01*
X129752899Y-88195678D01*
X129799018Y-88149559D01*
X129862018Y-88132678D01*
X130944843Y-88132678D01*
X130944986Y-88132706D01*
X130944987Y-88132702D01*
X130969998Y-88132717D01*
X130970001Y-88132719D01*
X130970384Y-88132561D01*
X130970501Y-88132277D01*
X130970542Y-88132178D01*
X130970542Y-88107226D01*
X130970501Y-88107020D01*
X130970501Y-86458679D01*
X130987382Y-86395679D01*
X131033501Y-86349560D01*
X131096501Y-86332679D01*
X131969902Y-86332679D01*
X131970100Y-86332679D01*
X132343503Y-86332679D01*
X132406503Y-86349560D01*
G37*
%TD.AperFunction*%
%TD*%
M02*
