M48
; DRILL file {KiCad 7.0.1} date Mon Jun 12 22:17:19 2023
; FORMAT={-:-/ absolute / metric / decimal}
; #@! TF.CreationDate,2023-06-12T22:17:19+07:00
; #@! TF.GenerationSoftware,Kicad,Pcbnew,7.0.1
; #@! TF.FileFunction,MixedPlating,1,2
FMAT,2
METRIC
; #@! TA.AperFunction,Plated,PTH,ViaDrill
T1C0.300
; #@! TA.AperFunction,Plated,PTH,ComponentDrill
T2C0.600
; #@! TA.AperFunction,Plated,PTH,ComponentDrill
T3C0.800
; #@! TA.AperFunction,Plated,PTH,ComponentDrill
T4C1.000
; #@! TA.AperFunction,Plated,PTH,ComponentDrill
T5C1.300
; #@! TA.AperFunction,Plated,PTH,ComponentDrill
T6C1.500
; #@! TA.AperFunction,Plated,PTH,ComponentDrill
T7C2.000
; #@! TA.AperFunction,Plated,PTH,ComponentDrill
T8C3.500
%
G90
G05
T1
X126.18Y-123.725
X126.688Y-89.054
X127.2Y-77.9
X127.4Y-68.9
X127.577Y-124.741
X128.72Y-124.868
X129.0Y-72.9
X129.101Y-93.88
X129.101Y-94.769
X129.101Y-95.658
X129.101Y-96.674
X129.101Y-97.69
X129.101Y-98.706
X129.101Y-99.595
X129.3Y-52.2
X129.99Y-114.454
X130.371Y-93.372
X131.26Y-93.372
X131.5Y-62.7
X132.1Y-46.5
X132.1Y-53.7
X132.1Y-60.3
X132.149Y-93.372
X132.6Y-48.3
X133.038Y-93.372
X133.1Y-53.2
X134.181Y-93.372
X135.197Y-93.372
X135.6Y-55.8
X136.086Y-93.372
X136.1Y-64.0
X136.594Y-118.137
X136.594Y-119.153
X136.594Y-120.296
X136.65Y-53.75
X137.0Y-52.4
X137.229Y-93.372
X137.6Y-66.2
X137.6Y-67.6
X137.61Y-118.137
X137.61Y-119.153
X137.61Y-120.296
X137.7Y-50.7
X137.9Y-53.125
X137.9Y-63.9
X138.626Y-118.137
X138.626Y-119.153
X138.626Y-120.296
X138.9Y-71.1
X139.0Y-50.8
X139.4Y-66.2
X139.515Y-104.675
X139.515Y-105.691
X139.515Y-106.707
X139.7Y-55.8
X139.769Y-118.137
X139.769Y-119.153
X139.769Y-120.296
X139.8Y-49.1
X140.0Y-56.7
X140.404Y-104.675
X140.404Y-105.691
X140.404Y-106.707
X140.9Y-59.3
X140.9Y-60.9
X140.912Y-118.137
X140.912Y-119.153
X140.912Y-120.296
X141.0Y-53.576
X141.0Y-57.9
X141.149Y-64.4
X141.2Y-61.8
X141.293Y-104.675
X141.293Y-105.691
X141.293Y-106.707
X141.674Y-90.451
X141.928Y-118.137
X141.928Y-119.153
X142.275Y-66.3
X142.4Y-49.2
X142.8Y-66.924
X143.0Y-67.7
X143.071Y-118.137
X143.3Y-69.7
X143.4Y-72.2
X143.918Y-57.799
X143.97Y-61.034
X143.974Y-63.111
X144.341Y-123.598
X144.4Y-71.2
X144.543Y-58.423
X144.6Y-49.2
X144.7Y-75.2
X144.976Y-104.037
X145.1Y-70.7
X145.1Y-72.4
X145.103Y-111.914
X145.5Y-75.1
X145.524Y-59.228
X145.6Y-51.6
X145.776Y-58.376
X145.9Y-52.6
X145.9Y-74.15
X146.246Y-92.864
X146.602Y-118.899
X146.618Y-60.018
X146.8Y-51.7
X147.0Y-59.001
X147.313Y-118.899
X147.368Y-96.137
X147.5Y-54.9
X147.518Y-94.087
X147.6Y-48.8
X147.625Y-59.524
X148.0Y-52.8
X148.024Y-118.899
X148.2Y-49.9
X148.216Y-66.184
X148.275Y-53.9
X148.4Y-68.0
X148.476Y-62.554
X148.5Y-46.5
X148.526Y-63.6
X148.668Y-116.937
X148.707Y-75.249
X148.837Y-118.899
X148.868Y-103.737
X148.9Y-66.6
X148.9Y-73.424
X148.965Y-60.415
X149.4Y-67.3
X149.7Y-60.1
X149.9Y-73.9
X150.0Y-75.3
X150.3Y-67.0
X150.4Y-64.6
X150.462Y-119.966
X150.6Y-65.9
X150.6Y-69.0
X150.6Y-71.7
X150.7Y-70.8
X150.8Y-51.8
X150.8Y-55.149
X150.8Y-72.5
X151.3Y-75.4
X151.326Y-119.966
X151.9Y-64.2
X152.0Y-65.9
X152.1Y-51.7
X152.2Y-45.5
X152.215Y-103.659
X152.342Y-119.915
X152.8Y-64.401
X152.813Y-63.497
X153.3Y-61.5
X153.4Y-58.8
X153.4Y-65.9
X153.409Y-120.017
X153.5Y-74.9
X153.739Y-90.324
X154.1Y-58.1
X154.3Y-67.7
X154.6Y-56.1
X154.882Y-114.454
X154.9Y-65.9
X154.933Y-120.931
X154.933Y-121.693
X154.933Y-122.455
X154.984Y-123.319
X155.1Y-60.5
X155.6Y-55.0
X155.6Y-62.4
X156.018Y-117.637
X156.1Y-57.7
X156.1Y-60.7
X156.1Y-63.8
X156.116Y-100.664
X156.3Y-53.8
X156.368Y-109.137
X156.5Y-65.9
X156.718Y-103.587
X156.787Y-95.404
X156.787Y-122.455
X156.868Y-106.237
X156.958Y-59.242
X157.0Y-45.6
X157.2Y-56.0
X157.668Y-109.037
X158.1Y-49.5
X158.368Y-106.137
X158.4Y-71.7
X158.438Y-94.515
X158.6Y-65.9
X158.7Y-52.4
X158.9Y-48.5
X158.968Y-105.337
X159.2Y-55.9
X159.245Y-103.353
X159.668Y-97.587
X159.7Y-53.1
X160.168Y-104.737
X160.309Y-99.995
X160.5Y-65.9
X160.6Y-51.7
X160.8Y-59.0
X160.851Y-103.137
X161.1Y-56.3
X161.5Y-70.5
X161.768Y-104.487
X161.8Y-63.6
X162.1Y-57.3
X162.375Y-95.404
X162.5Y-65.0
X162.768Y-104.537
X163.5Y-57.4
X163.518Y-107.287
X163.598Y-116.025
X163.968Y-103.737
X164.2Y-63.7
X164.4Y-58.3
X164.5Y-60.0
X164.6Y-76.2
X165.3Y-59.3
X165.3Y-62.6
X166.468Y-102.177
X166.502Y-104.23
X166.618Y-117.787
X166.918Y-111.187
X167.518Y-106.737
X167.668Y-109.437
X169.106Y-90.451
X169.968Y-114.537
X170.122Y-106.326
T2
X158.034Y-58.168
X158.034Y-60.068
X158.034Y-62.217
X159.834Y-59.118
X159.834Y-61.267
X159.834Y-63.167
X161.434Y-60.867
X163.234Y-59.917
X163.234Y-61.817
T3
X156.873Y-74.144
X159.413Y-74.144
X161.953Y-74.144
X164.493Y-74.144
T4
X128.0Y-55.615
X128.0Y-58.155
X128.0Y-60.695
X128.0Y-63.235
X128.0Y-65.775
X132.32Y-74.1
X134.86Y-74.1
X137.4Y-74.1
X138.626Y-46.636
X139.94Y-74.1
X141.166Y-46.636
X142.48Y-74.1
X143.706Y-46.636
X146.246Y-46.636
T5
X131.006Y-87.403
X131.006Y-126.011
X135.006Y-87.403
X135.006Y-126.011
X139.006Y-87.403
X139.006Y-126.011
X143.006Y-87.403
X143.006Y-126.011
X147.006Y-87.403
X147.006Y-126.011
X151.006Y-87.403
X151.006Y-126.011
X155.006Y-87.403
X155.006Y-126.011
X159.006Y-87.403
X159.006Y-126.011
X163.006Y-87.403
X163.006Y-126.011
T6
X129.736Y-102.834
X129.736Y-106.834
X129.736Y-110.834
T7
X132.532Y-41.429
X132.532Y-80.037
X136.532Y-41.429
X136.532Y-80.037
X140.532Y-41.429
X140.532Y-80.037
X144.532Y-41.429
X144.532Y-80.037
X148.532Y-41.429
X148.532Y-80.037
X152.532Y-41.429
X152.532Y-80.037
X156.532Y-41.429
X156.532Y-80.037
X160.532Y-41.429
X160.532Y-80.037
X164.532Y-41.429
X164.532Y-80.037
T8
X125.799Y-48.7
X125.799Y-72.7
X125.799Y-94.782
X125.799Y-118.782
X171.265Y-48.7
X171.265Y-72.7
X171.265Y-94.782
X171.392Y-118.782
T0
M30
