%TF.GenerationSoftware,KiCad,Pcbnew,7.0.1*%
%TF.CreationDate,2023-06-12T22:17:34+07:00*%
%TF.ProjectId,servo_motor,73657276-6f5f-46d6-9f74-6f722e6b6963,rev?*%
%TF.SameCoordinates,Original*%
%TF.FileFunction,Soldermask,Bot*%
%TF.FilePolarity,Negative*%
%FSLAX46Y46*%
G04 Gerber Fmt 4.6, Leading zero omitted, Abs format (unit mm)*
G04 Created by KiCad (PCBNEW 7.0.1) date 2023-06-12 22:17:34*
%MOMM*%
%LPD*%
G01*
G04 APERTURE LIST*
%ADD10R,1.700000X1.700000*%
%ADD11O,1.700000X1.700000*%
%ADD12C,3.600000*%
%ADD13O,1.300000X1.400000*%
%ADD14O,7.000000X3.500000*%
%ADD15C,2.200000*%
%ADD16C,2.800000*%
G04 APERTURE END LIST*
D10*
%TO.C,J2*%
X128000000Y-65775000D03*
D11*
X128000000Y-63235000D03*
X128000000Y-60695000D03*
X128000000Y-58155000D03*
X128000000Y-55615000D03*
%TD*%
D12*
%TO.C,H3*%
X171265018Y-48700167D03*
%TD*%
%TO.C,H5*%
X125799018Y-94782178D03*
%TD*%
D13*
%TO.C,U4*%
X163234007Y-61816828D03*
X163234007Y-59916828D03*
X161434007Y-60866828D03*
X159834007Y-63166828D03*
X159834007Y-61266828D03*
X158034007Y-62216828D03*
X158034007Y-58167828D03*
X158034007Y-60067828D03*
X159834007Y-59117828D03*
%TD*%
D12*
%TO.C,H6*%
X125799018Y-118782200D03*
%TD*%
D14*
%TO.C,J3*%
X129736018Y-102834178D03*
X129736018Y-106834178D03*
X129736018Y-110834178D03*
%TD*%
D10*
%TO.C,J6*%
X132320000Y-74100000D03*
D11*
X134860000Y-74100000D03*
X137400000Y-74100000D03*
X139940000Y-74100000D03*
X142480000Y-74100000D03*
%TD*%
D15*
%TO.C,P1*%
X131006018Y-87403178D03*
X135006018Y-87403178D03*
X139006018Y-87403178D03*
X143006018Y-87403178D03*
X147006018Y-87403178D03*
X151006018Y-87403178D03*
X155006018Y-87403178D03*
X159006018Y-87403178D03*
X163006018Y-87403178D03*
%TD*%
D12*
%TO.C,H7*%
X171265018Y-94782178D03*
%TD*%
D15*
%TO.C,P3*%
X131006018Y-126011178D03*
X135006018Y-126011178D03*
X139006018Y-126011178D03*
X143006018Y-126011178D03*
X147006018Y-126011178D03*
X151006018Y-126011178D03*
X155006018Y-126011178D03*
X159006018Y-126011178D03*
X163006018Y-126011178D03*
%TD*%
D12*
%TO.C,H4*%
X171265018Y-72700187D03*
%TD*%
%TO.C,H1*%
X125799018Y-48700167D03*
%TD*%
D10*
%TO.C,J4*%
X156873218Y-74144378D03*
D11*
X159413218Y-74144378D03*
X161953218Y-74144378D03*
X164493218Y-74144378D03*
%TD*%
D12*
%TO.C,H2*%
X125799018Y-72700187D03*
%TD*%
D10*
%TO.C,J1*%
X146246018Y-46636178D03*
D11*
X143706018Y-46636178D03*
X141166018Y-46636178D03*
X138626018Y-46636178D03*
%TD*%
D16*
%TO.C,P2*%
X132532018Y-80037178D03*
X136532018Y-80037178D03*
X140532018Y-80037178D03*
X144532018Y-80037178D03*
X148532018Y-80037178D03*
X152532018Y-80037178D03*
X156532018Y-80037178D03*
X160532018Y-80037178D03*
X164532018Y-80037178D03*
%TD*%
D12*
%TO.C,H8*%
X171392018Y-118782200D03*
%TD*%
D16*
%TO.C,P4*%
X132532018Y-41429178D03*
X136532018Y-41429178D03*
X140532018Y-41429178D03*
X144532018Y-41429178D03*
X148532018Y-41429178D03*
X152532018Y-41429178D03*
X156532018Y-41429178D03*
X160532018Y-41429178D03*
X164532018Y-41429178D03*
%TD*%
M02*
